<svg width="229" height="30" viewBox="0 0 229 30" fill="none" xmlns="http://www.w3.org/2000/svg">
<path d="M11.1413 3.75454C10.6614 3.28104 9.8386 3.28104 9.35866 3.75454L0.582611 12.3791C0.102671 12.8526 0.102671 13.6644 0.582611 14.1379C1.06255 14.6114 1.88531 14.6114 2.36525 14.1379L11.107 5.51328C11.6212 5.03977 11.6212 4.22805 11.1413 3.75454Z" fill="url(#paint0_linear_1343_16754)"/>
<path d="M13.7821 14.2731C13.3022 13.7996 12.4794 13.7996 11.9995 14.2731L4.14902 22.0183C3.66908 22.4918 3.66908 23.3035 4.14902 23.777C4.62896 24.2506 5.45171 24.2506 5.93165 23.777L13.7821 16.0318C14.262 15.5583 14.262 14.7466 13.7821 14.2731Z" fill="url(#paint1_linear_1343_16754)"/>
<path d="M15.2899 3.95669C14.81 3.48319 13.9872 3.48319 13.5073 3.95669L3.35996 13.9341C2.88001 14.4077 2.88001 15.2194 3.35996 15.6929C3.8399 16.1664 4.66265 16.1664 5.14259 15.6929L15.2556 5.71543C15.7698 5.2081 15.7698 4.4302 15.2899 3.95669Z" fill="url(#paint2_linear_1343_16754)"/>
<path d="M10.5596 13.0211C10.0796 12.5476 9.25687 12.5476 8.77693 13.0211L1.54355 20.1576C1.06361 20.6311 1.06361 21.4428 1.54355 21.9163C2.02349 22.3898 2.84624 22.3898 3.32618 21.9163L10.5596 14.7799C11.0395 14.2726 11.0395 13.4947 10.5596 13.0211Z" fill="url(#paint3_linear_1343_16754)"/>
<path d="M3.05167 15.9297C2.53744 15.4562 1.74897 15.49 1.26903 15.9973L0.343432 16.9444C-0.136508 17.4517 -0.102226 18.2296 0.411995 18.7031C0.926217 19.1766 1.71469 19.1428 2.19463 18.6354L3.12023 17.6546C3.56589 17.1811 3.56589 16.4032 3.05167 15.9297Z" fill="url(#paint4_linear_1343_16754)"/>
<path d="M14.9468 9.63965V24.4536C14.9468 26.6182 13.1298 28.377 10.9358 28.4108C8.74182 28.4108 6.95919 26.6859 6.89062 24.5551V24.5213C6.89062 24.4874 6.89062 24.4874 6.89062 24.4536V9.63965H14.9468Z" fill="url(#paint5_linear_1343_16754)"/>
<path d="M26.911 9.87599C26.911 10.451 26.8767 11.0259 26.7739 11.5671C26.4653 13.3258 25.6768 14.9154 24.5798 16.2345C24.2713 16.6065 23.9628 16.9109 23.5857 17.2492C22.043 18.602 20.089 19.5152 17.9292 19.7181C17.7578 19.7181 17.6207 19.752 17.4493 19.752C17.3465 19.752 17.2436 19.752 17.1408 19.752C17.1065 19.752 17.0722 19.752 17.0379 19.752C17.0036 19.752 16.9351 19.752 16.9008 19.752C16.558 19.752 16.2495 19.752 15.9066 19.7181C15.8038 19.7181 15.7352 19.6843 15.6324 19.6843H15.5981C15.4953 19.6505 15.3924 19.6505 15.2553 19.6505C15.1525 19.6167 15.0496 19.6167 14.9468 19.5829C14.6382 19.5152 14.3297 19.4476 14.0212 19.3461C13.5069 19.177 12.9927 19.0079 12.5128 18.7711C12.4442 18.7373 12.4099 18.7035 12.3414 18.7035C12.0671 18.5682 11.7929 18.4329 11.5529 18.2638C11.4501 18.1962 11.3472 18.1285 11.2444 18.0609C11.1415 17.9932 11.0387 17.9256 10.9358 17.8579C10.7301 17.7227 10.5587 17.5874 10.3873 17.4183C10.2502 17.3168 10.1131 17.1815 10.0102 17.08C8.19332 15.389 7.02775 13.0214 6.89062 10.3833C6.89062 10.2142 6.89062 10.0789 6.89062 9.90981C6.89062 9.80834 6.89062 9.7407 6.89062 9.63923C6.95919 6.4938 8.53613 3.72041 10.9358 1.96167C11.2444 1.72492 11.5529 1.52198 11.8957 1.35287C13.3355 0.473506 15.0496 0 16.9008 0C17.2436 0 17.5864 0 17.895 0.0338219C20.5346 0.304397 22.8658 1.55581 24.5113 3.44983C24.5456 3.48365 24.5456 3.51747 24.5798 3.51747C24.6141 3.58512 24.6827 3.61894 24.717 3.68658C24.8198 3.78805 24.9227 3.92334 24.9912 4.05862C25.334 4.53213 25.6426 5.03946 25.9168 5.54679C26.2254 6.15558 26.4653 6.7982 26.6367 7.47463C26.8081 8.25254 26.911 9.06426 26.911 9.87599Z" fill="url(#paint6_linear_1343_16754)"/>
<path d="M15.0164 19.6503V26.0088C15.0164 27.5646 14.0908 28.9175 12.7881 29.5939C12.2396 29.8645 11.6225 30.0336 10.9369 30.0336C10.4227 30.0336 9.94275 29.9321 9.49709 29.763C7.95443 29.1881 6.85742 27.7337 6.85742 26.0088V24.5545C7.44021 22.7281 8.77718 21.2061 10.5255 20.3267C10.8684 20.1576 11.2454 20.0223 11.6225 19.887C12.3082 19.6841 13.0624 19.5488 13.8166 19.5488C14.1251 19.5488 14.4336 19.5827 14.7079 19.6165C14.8107 19.6165 14.8793 19.6503 14.9821 19.6503C14.9821 19.6503 14.9821 19.6503 15.0164 19.6503Z" fill="url(#paint7_linear_1343_16754)"/>
<path d="M15.0171 19.8538V25.9755C15.0171 27.5313 14.0915 28.8842 12.7888 29.5607C11.4861 28.8842 10.5605 27.5652 10.5605 26.0094V24.555C10.5605 24.5212 10.5605 24.5212 10.5605 24.4874V20.6993C11.6233 20.1244 12.8231 19.7861 14.1258 19.7861C14.2287 19.7861 14.3315 19.7861 14.4686 19.7861C14.6058 19.82 14.8114 19.82 15.0171 19.8538C14.9829 19.8538 15.0171 19.8538 15.0171 19.8538Z" fill="url(#paint8_linear_1343_16754)"/>
<path d="M26.9112 9.87609C26.9112 10.4511 26.8769 11.026 26.7741 11.5672C26.3627 12.8186 25.7113 13.9685 24.8886 14.9494C24.58 15.3214 24.2715 15.6258 23.8944 15.964C22.3518 17.3169 20.3977 18.2301 18.238 18.433C17.8952 18.433 17.6209 18.4668 17.3467 18.4668C17.3124 18.4668 17.2781 18.4668 17.2438 18.4668C17.141 18.4668 17.0724 18.5007 16.9696 18.5007C16.7639 18.5345 16.5239 18.5683 16.3182 18.636H16.2839H16.2497H16.2154C15.9411 18.7036 15.6326 18.7712 15.3241 18.8727H15.2898H15.2555C15.1527 18.9065 15.0498 18.9404 14.9812 18.9742C14.6727 19.0756 14.3642 19.1771 14.0556 19.3124C13.9185 19.38 13.7471 19.4477 13.61 19.4815C13.37 19.583 13.13 19.7183 12.8901 19.8197C11.9988 20.2932 11.176 20.902 10.5932 21.6461C10.4561 21.8152 10.3533 21.9843 10.2161 22.1873C10.1818 22.2549 10.1476 22.2887 10.1133 22.3564C10.1133 22.3564 10.1133 22.0858 10.1476 21.6461C10.1818 21.477 10.1818 21.2741 10.2504 21.0373C10.2847 20.902 10.319 20.7667 10.3533 20.5976C10.3533 20.5638 10.3533 20.5638 10.3533 20.53C10.3875 20.4623 10.3875 20.3609 10.4218 20.2932C10.5247 19.8874 10.6618 19.4139 10.8675 18.9404C10.8675 18.9404 10.8675 18.9404 10.8675 18.9065C11.0046 18.6021 11.1417 18.2977 11.2789 17.9595C11.4503 17.6213 11.6559 17.2831 11.8616 16.911C11.8616 16.911 11.8616 16.911 11.8616 16.8772C11.8616 16.8772 11.8616 16.8772 11.8616 16.8434C12.5815 15.7273 13.5757 14.5435 14.947 13.3936C15.0498 13.2921 15.1527 13.2245 15.2555 13.123C15.3926 13.0215 15.5297 12.8862 15.7012 12.7848C15.7354 12.7848 15.7354 12.7509 15.7697 12.7509C16.4553 12.2436 17.2095 11.7701 18.0666 11.3304C21.9404 9.36876 23.6544 6.52772 24.4086 4.16019C24.4772 3.95726 24.5458 3.72051 24.58 3.51758C24.6143 3.58522 24.6829 3.61904 24.7172 3.68669C24.82 3.78815 24.9229 3.92344 24.9914 4.05873C25.3342 4.53223 25.6428 5.03956 25.917 5.54689C26.2256 6.15568 26.4655 6.7983 26.6369 7.47474C26.8083 8.25264 26.9112 9.06437 26.9112 9.87609Z" fill="url(#paint9_linear_1343_16754)"/>
<path d="M26.9113 9.87645C26.9113 10.4514 26.877 11.0264 26.7742 11.5675C26.4657 13.3263 25.6772 14.9159 24.5802 16.235C24.2717 16.607 23.9631 16.9114 23.586 17.2496C22.0434 18.6025 20.0893 19.5157 17.9296 19.7186C17.5868 19.7186 17.3125 19.7524 17.0383 19.7524C17.004 19.7524 16.9697 19.7524 16.9354 19.7524C16.8326 19.7524 16.764 19.7863 16.6612 19.7863C16.4555 19.8201 16.2155 19.8539 16.0098 19.9215H15.9756H15.9413H15.907C15.6327 19.9892 15.3242 20.0568 15.0157 20.1583C15.0157 20.1583 15.0157 20.1583 14.9814 20.1583H14.9471H14.9128C13.3702 20.6994 11.6561 21.4435 10.5248 22.6611C10.2506 22.9317 10.0449 23.2361 9.83917 23.5743C9.80489 23.642 9.77061 23.6758 9.73633 23.7434C9.73633 23.7434 9.73633 23.4728 9.77061 23.0332C9.80489 22.7626 9.87345 22.3905 9.94202 22.0185C9.94202 21.9847 9.94202 21.9847 9.94202 21.9509C10.0106 21.7141 10.0791 21.4435 10.1477 21.173C10.2163 20.9362 10.3191 20.6656 10.422 20.3951C10.422 20.3951 10.422 20.3951 10.422 20.3612C10.6619 19.7524 11.0047 19.076 11.4161 18.3657C11.4161 18.3657 11.4161 18.3657 11.4161 18.3319C11.4161 18.3319 11.4161 18.2981 11.4504 18.2981C12.2046 17.0805 13.3016 15.7953 14.8443 14.6115C14.9814 14.51 15.1185 14.3748 15.2899 14.2733C15.3242 14.2733 15.3242 14.2395 15.3585 14.2395C16.0441 13.7321 16.7983 13.2586 17.6553 12.819C22.2833 10.3161 23.8603 6.83248 24.3059 4.26202C24.3402 4.02526 24.3745 3.78851 24.4088 3.55176C24.4431 3.58558 24.4431 3.6194 24.4773 3.6194C24.5116 3.68705 24.5802 3.72087 24.6145 3.78851C24.7173 3.88998 24.8202 4.02526 24.8887 4.16055C25.2315 4.63406 25.5401 5.14139 25.8143 5.64871C26.1229 6.25751 26.3628 6.90012 26.5342 7.57656C26.8085 8.253 26.9113 9.06472 26.9113 9.87645Z" fill="url(#paint10_linear_1343_16754)"/>
<path d="M46.1771 7.91352C47.1712 8.75907 47.6512 9.94283 47.6512 11.4648C47.6512 13.0544 47.1712 14.3059 46.1771 15.1852C45.1829 16.0646 43.8117 16.5043 42.029 16.5043H38.9094V20.6305H36.2012V6.66211H42.029C43.8117 6.66211 45.2172 7.06797 46.1771 7.91352ZM44.2573 13.4941C44.8058 13.0544 45.0801 12.4118 45.0801 11.5325C45.0801 10.6869 44.8058 10.0443 44.2573 9.60461C43.7088 9.16493 42.9203 8.962 41.8919 8.962H38.9437V14.1367H41.8919C42.9203 14.1706 43.7088 13.9338 44.2573 13.4941Z" fill="white"/>
<path d="M53.9243 10.4168C54.5414 10.0447 55.2956 9.87562 56.1183 9.8418V12.3784C54.987 12.3108 54.0957 12.5814 53.4444 13.1563C52.7587 13.7313 52.4502 14.5092 52.4502 15.5239V20.6986H49.8105V9.94326H52.4502V12.0064C52.793 11.33 53.3073 10.7888 53.9243 10.4168Z" fill="white"/>
<path d="M65.6832 10.5524C66.5402 10.9921 67.2258 11.6347 67.7058 12.4464C68.1857 13.2582 68.4257 14.2052 68.4257 15.2875C68.4257 16.3698 68.1857 17.3168 67.7058 18.1623C67.2258 18.9741 66.5402 19.6167 65.6832 20.0902C64.8261 20.5299 63.832 20.7666 62.7007 20.7666C61.5694 20.7666 60.5752 20.5299 59.6839 20.0902C58.8269 19.6505 58.1413 19.0079 57.6613 18.1623C57.1814 17.3506 56.9414 16.3698 56.9414 15.2875C56.9414 14.2052 57.1814 13.292 57.6613 12.4464C58.1413 11.6347 58.8269 10.9921 59.6839 10.5524C60.541 10.1127 61.5351 9.87598 62.7007 9.87598C63.832 9.87598 64.8261 10.1127 65.6832 10.5524ZM60.5067 12.9876C59.9239 13.5964 59.6496 14.3743 59.6496 15.3213C59.6496 16.2683 59.9239 17.0462 60.5067 17.655C61.0895 18.2638 61.8094 18.5682 62.735 18.5682C63.6263 18.5682 64.3462 18.2638 64.929 17.655C65.5118 17.0462 65.786 16.2683 65.786 15.3213C65.786 14.3743 65.5118 13.5964 64.929 12.9876C64.3462 12.3788 63.6263 12.0744 62.735 12.0744C61.8094 12.0744 61.0552 12.3788 60.5067 12.9876Z" fill="white"/>
<path d="M80.6309 9.9429V19.616C80.6309 20.6306 80.3909 21.51 79.9453 22.2541C79.4653 22.9981 78.814 23.5731 77.9569 23.979C77.0999 24.3848 76.1057 24.5878 74.9745 24.5878C73.3289 24.5878 71.7863 24.1143 70.3807 23.1673L71.4435 21.2732C72.4719 22.0173 73.6032 22.3894 74.8373 22.3894C75.7972 22.3894 76.5857 22.1526 77.1685 21.6453C77.7513 21.1379 78.0255 20.4615 78.0255 19.616V18.3646C77.6484 18.9057 77.2027 19.3116 76.62 19.616C76.0372 19.8865 75.3516 20.0556 74.5974 20.0556C73.6375 20.0556 72.8147 19.8527 72.0948 19.413C71.3749 18.9733 70.7921 18.3646 70.3807 17.5866C69.9694 16.8087 69.7637 15.8956 69.7637 14.8809C69.7637 13.8662 69.9694 12.9869 70.3807 12.2428C70.7921 11.4649 71.3406 10.8899 72.0948 10.4502C72.8147 10.0105 73.6718 9.80762 74.5974 9.80762C75.3516 9.80762 76.0372 9.9429 76.62 10.2473C77.2027 10.5517 77.6827 10.9576 78.0598 11.4987V9.90908H80.6309V9.9429ZM77.2027 17.2146C77.7512 16.6396 77.9912 15.8956 77.9912 15.0162C77.9912 14.1368 77.717 13.3589 77.2027 12.8178C76.6542 12.2428 75.9686 11.9722 75.1116 11.9722C74.2545 11.9722 73.5689 12.2428 73.0204 12.8178C72.4719 13.3927 72.1977 14.1368 72.1977 15.0162C72.1977 15.9294 72.4719 16.6735 73.0204 17.2146C73.5689 17.7896 74.2545 18.0602 75.1116 18.0602C75.9686 18.0602 76.6542 17.7896 77.2027 17.2146Z" fill="white"/>
<path d="M87.8638 10.4168C88.4808 10.0447 89.235 9.87562 90.0578 9.8418V12.3784C88.9265 12.3108 88.0352 12.5814 87.3838 13.1563C86.6982 13.7313 86.3897 14.5092 86.3897 15.5239V20.6986H83.75V9.94326H86.3897V12.0064C86.7325 11.33 87.2467 10.7888 87.8638 10.4168Z" fill="white"/>
<path d="M97.9417 20.6655V19.3803C97.5646 19.8538 97.0847 20.192 96.4676 20.4288C95.8848 20.6655 95.1992 20.8008 94.4107 20.8008C93.6565 20.8008 92.9709 20.6655 92.4224 20.3611C91.8396 20.0905 91.3939 19.6847 91.0854 19.1774C90.7769 18.67 90.6055 18.095 90.6055 17.4863C90.6055 16.4716 90.9483 15.6937 91.6682 15.1187C92.3881 14.5438 93.3823 14.2732 94.7192 14.2394H97.8731V13.9688C97.8731 13.3262 97.6674 12.8527 97.2561 12.5144C96.8447 12.1762 96.2276 12.0071 95.4392 12.0071C94.4107 12.0071 93.348 12.3453 92.2167 13.0218L91.2568 11.2292C92.1139 10.7557 92.868 10.4175 93.588 10.2146C94.2736 10.0116 95.0963 9.91016 96.0219 9.91016C97.4275 9.91016 98.5245 10.2484 99.313 10.9248C100.101 11.6012 100.479 12.5144 100.513 13.732L100.547 20.7332H97.9417V20.6655ZM96.9818 18.2303C97.5303 17.8921 97.8389 17.4524 97.9074 16.9113V15.9643H95.1649C94.445 15.9643 93.9308 16.0657 93.6222 16.2687C93.2794 16.4716 93.1423 16.8098 93.1423 17.2833C93.1423 17.723 93.3137 18.095 93.6565 18.3656C93.9993 18.6362 94.4793 18.7715 95.0621 18.7715C95.8162 18.7715 96.4676 18.6024 96.9818 18.2303Z" fill="white"/>
<path d="M120.603 10.9579C121.322 11.702 121.665 12.7167 121.665 13.9681V20.6648H119.026V14.746C119.026 14.0019 118.82 13.3931 118.374 12.9534C117.963 12.5137 117.38 12.3108 116.626 12.3108C115.803 12.3446 115.118 12.649 114.638 13.224C114.158 13.799 113.883 14.5092 113.883 15.3886V20.6648H111.244V14.746C111.244 14.0019 111.038 13.3931 110.627 12.9534C110.215 12.5137 109.632 12.3108 108.913 12.3108C108.056 12.3446 107.404 12.649 106.89 13.224C106.41 13.799 106.136 14.5092 106.136 15.3886V20.6648H103.496V9.94326H106.136V11.9388C106.856 10.5859 108.124 9.87562 109.941 9.8418C110.901 9.8418 111.689 10.0785 112.341 10.5182C112.992 10.9579 113.438 11.6005 113.678 12.4123C114.363 10.7212 115.7 9.87562 117.723 9.8418C118.923 9.8418 119.883 10.2138 120.603 10.9579Z" fill="white"/>
<path d="M141.719 10.9579C142.404 11.702 142.782 12.7167 142.782 13.9681V20.6648H140.142V14.746C140.142 14.0019 139.936 13.3931 139.491 12.9534C139.079 12.5137 138.496 12.3108 137.742 12.3108C136.919 12.3446 136.234 12.649 135.754 13.224C135.274 13.799 135 14.5092 135 15.3886V20.6648H132.326V14.746C132.326 14.0019 132.12 13.3931 131.709 12.9534C131.297 12.5137 130.715 12.3108 129.995 12.3108C129.138 12.3446 128.486 12.649 127.972 13.224C127.492 13.799 127.218 14.5092 127.218 15.3886V20.6648H124.578V9.94326H127.218V11.9388C127.938 10.5859 129.206 9.87562 131.023 9.8418C131.983 9.8418 132.771 10.0785 133.423 10.5182C134.074 10.9579 134.52 11.6005 134.76 12.4123C135.445 10.7212 136.782 9.87562 138.805 9.8418C140.039 9.8418 140.999 10.2138 141.719 10.9579Z" fill="white"/>
<path d="M148.062 5.78343C148.336 6.08783 148.474 6.45987 148.474 6.89956C148.474 7.33924 148.336 7.71128 148.062 8.01568C147.788 8.32007 147.411 8.45536 146.999 8.45536C146.554 8.45536 146.211 8.32007 145.937 8.01568C145.663 7.71128 145.525 7.33924 145.525 6.89956C145.525 6.45987 145.663 6.08783 145.937 5.78343C146.211 5.47904 146.588 5.34375 146.999 5.34375C147.445 5.34375 147.788 5.47904 148.062 5.78343ZM145.697 9.94352H148.336V20.6312H145.697V9.94352Z" fill="white"/>
<path d="M161.089 10.9579C161.809 11.702 162.151 12.7167 162.151 13.9681V20.6648H159.512V14.746C159.512 14.0019 159.306 13.3931 158.86 12.9872C158.415 12.5475 157.832 12.3446 157.112 12.3446C156.221 12.3446 155.535 12.649 155.021 13.224C154.507 13.799 154.267 14.543 154.267 15.4224V20.6986H151.627V9.94326H154.267V11.9388C155.021 10.5521 156.324 9.87562 158.175 9.8418C159.375 9.8418 160.369 10.2138 161.089 10.9579Z" fill="white"/>
<path d="M175.041 9.9429V19.616C175.041 20.6306 174.801 21.51 174.355 22.2541C173.875 22.9981 173.224 23.5731 172.367 23.979C171.51 24.3848 170.516 24.5878 169.385 24.5878C167.739 24.5878 166.196 24.1143 164.791 23.1673L165.854 21.2732C166.882 22.0173 168.013 22.3894 169.247 22.3894C170.207 22.3894 170.996 22.1526 171.579 21.6453C172.161 21.1379 172.436 20.4615 172.436 19.616V18.3646C172.059 18.9057 171.613 19.3116 171.03 19.616C170.447 19.8865 169.762 20.0556 169.008 20.0556C168.048 20.0556 167.225 19.8527 166.505 19.413C165.785 18.9733 165.202 18.3646 164.791 17.5866C164.38 16.8087 164.174 15.8956 164.174 14.8809C164.174 13.8662 164.38 12.9869 164.791 12.2428C165.202 11.4649 165.751 10.8899 166.505 10.4502C167.225 10.0105 168.082 9.80762 169.008 9.80762C169.762 9.80762 170.447 9.9429 171.03 10.2473C171.613 10.5517 172.093 10.9576 172.47 11.4987V9.90908H175.041V9.9429ZM171.579 17.2146C172.127 16.6396 172.367 15.8956 172.367 15.0162C172.367 14.1368 172.093 13.3589 171.579 12.8178C171.03 12.2428 170.344 11.9722 169.487 11.9722C168.63 11.9722 167.945 12.2428 167.396 12.8178C166.848 13.3927 166.574 14.1368 166.574 15.0162C166.574 15.9294 166.848 16.6735 167.396 17.2146C167.945 17.7896 168.63 18.0602 169.487 18.0602C170.379 18.0602 171.064 17.7896 171.579 17.2146Z" fill="white"/>
<path d="M183.475 6.66211H185.429V12.9192H193.553V6.66211H195.507V20.6644H193.553V14.6441H185.429V20.6644H183.475V6.66211Z" fill="white"/>
<path d="M207.438 11.4652C208.295 12.446 208.707 13.7651 208.707 15.49C208.707 15.7606 208.707 15.9635 208.672 16.0988H200.205C200.342 17.0458 200.753 17.7899 201.405 18.3648C202.056 18.9398 202.879 19.2104 203.839 19.2104C204.49 19.2104 205.073 19.1089 205.621 18.8722C206.17 18.6354 206.65 18.331 207.061 17.9252L208.09 18.9736C207.575 19.5486 206.924 19.9545 206.17 20.2589C205.416 20.5633 204.593 20.7324 203.702 20.7324C202.639 20.7324 201.713 20.4956 200.891 20.0559C200.068 19.6163 199.451 18.9736 198.971 18.1619C198.525 17.3502 198.285 16.437 198.285 15.3885C198.285 14.34 198.525 13.4268 198.971 12.6151C199.416 11.8034 200.068 11.1608 200.856 10.7211C201.679 10.2476 202.605 10.0447 203.633 10.0447C205.347 10.0108 206.616 10.4843 207.438 11.4652ZM207.027 14.6444C206.958 13.6974 206.65 12.9195 206.067 12.3784C205.484 11.8372 204.696 11.5328 203.702 11.5328C202.742 11.5328 201.953 11.8034 201.336 12.3784C200.719 12.9533 200.342 13.6974 200.205 14.6444H207.027Z" fill="white"/>
<path d="M214.704 10.6195C215.356 10.2137 216.11 10.0107 217.001 10.0107V11.8033C215.904 11.7695 215.013 12.0401 214.362 12.6488C213.676 13.2576 213.299 14.0694 213.196 15.084V20.6646H211.311V10.0784H213.196V12.3445C213.539 11.6004 214.053 11.0254 214.704 10.6195Z" fill="white"/>
<path d="M226.361 10.6878C227.184 11.1275 227.835 11.7701 228.315 12.5818C228.795 13.3935 229 14.3067 229 15.3552C229 16.4037 228.76 17.3169 228.315 18.1286C227.835 18.9403 227.184 19.5829 226.361 20.0226C225.538 20.4623 224.578 20.6991 223.515 20.6991C222.418 20.6991 221.493 20.4623 220.636 20.0226C219.813 19.5829 219.162 18.9403 218.682 18.1286C218.202 17.3169 217.996 16.4037 217.996 15.3214C217.996 14.2729 218.236 13.3597 218.682 12.548C219.162 11.7363 219.813 11.1275 220.636 10.654C221.459 10.2143 222.418 9.97754 223.515 9.97754C224.578 10.0114 225.538 10.2481 226.361 10.6878ZM221.63 12.1083C221.081 12.4127 220.67 12.8862 220.362 13.4274C220.053 14.0023 219.916 14.645 219.916 15.3552C219.916 16.0993 220.053 16.7419 220.362 17.3169C220.67 17.8919 221.081 18.3315 221.63 18.6359C222.178 18.9403 222.795 19.1094 223.515 19.1094C224.201 19.1094 224.818 18.9403 225.367 18.6359C225.915 18.3315 226.326 17.8919 226.635 17.3169C226.944 16.7419 227.081 16.0993 227.081 15.3552C227.081 14.645 226.944 14.0023 226.635 13.4274C226.326 12.8524 225.915 12.4127 225.367 12.1083C224.818 11.8039 224.201 11.6348 223.515 11.6348C222.795 11.6348 222.178 11.8039 221.63 12.1083Z" fill="white"/>
<defs>
<linearGradient id="paint0_linear_1343_16754" x1="12.4989" y1="3.53098" x2="-1.72854" y2="15.4722" gradientUnits="userSpaceOnUse">
<stop offset="1.38522e-07" stop-color="#FF9C35"/>
<stop offset="1" stop-color="#FFD019"/>
</linearGradient>
<linearGradient id="paint1_linear_1343_16754" x1="11.6367" y1="16.5984" x2="4.56484" y2="23.1798" gradientUnits="userSpaceOnUse">
<stop offset="1.38522e-07" stop-color="#8623D6"/>
<stop offset="1" stop-color="#467DE1"/>
</linearGradient>
<linearGradient id="paint2_linear_1343_16754" x1="21.6791" y1="3.65399" x2="-3.34665" y2="16.4909" gradientUnits="userSpaceOnUse">
<stop offset="1.38522e-07" stop-color="#4289FF"/>
<stop offset="1" stop-color="#07F8C3"/>
</linearGradient>
<linearGradient id="paint3_linear_1343_16754" x1="12.1049" y1="12.3937" x2="1.42179" y2="21.5912" gradientUnits="userSpaceOnUse">
<stop offset="1.38522e-07" stop-color="#FF589B"/>
<stop offset="1" stop-color="#FF136F"/>
</linearGradient>
<linearGradient id="paint4_linear_1343_16754" x1="4.80461" y1="13.9898" x2="0.122626" y2="19.1905" gradientUnits="userSpaceOnUse">
<stop offset="1.38522e-07" stop-color="#FC5E51"/>
<stop offset="1" stop-color="#F59E75"/>
</linearGradient>
<linearGradient id="paint5_linear_1343_16754" x1="4.07345" y1="26.2269" x2="26.9341" y2="-3.03529" gradientUnits="userSpaceOnUse">
<stop offset="0.0005008" stop-color="#8D00F3"/>
<stop offset="0.0415826" stop-color="#850FF1"/>
<stop offset="0.2503" stop-color="#5D57E9"/>
<stop offset="0.4469" stop-color="#3C93E2"/>
<stop offset="0.6256" stop-color="#22C1DD"/>
<stop offset="0.7831" stop-color="#0FE3D9"/>
<stop offset="0.9133" stop-color="#04F8D7"/>
<stop offset="1" stop-color="#00FFD6"/>
</linearGradient>
<linearGradient id="paint6_linear_1343_16754" x1="3.89158" y1="26.0829" x2="26.7506" y2="-3.17736" gradientUnits="userSpaceOnUse">
<stop offset="0.0005008" stop-color="#8D00F3"/>
<stop offset="0.0415826" stop-color="#850FF1"/>
<stop offset="0.2503" stop-color="#5D57E9"/>
<stop offset="0.4469" stop-color="#3C93E2"/>
<stop offset="0.6256" stop-color="#22C1DD"/>
<stop offset="0.7831" stop-color="#0FE3D9"/>
<stop offset="0.9133" stop-color="#04F8D7"/>
<stop offset="1" stop-color="#00FFD6"/>
</linearGradient>
<linearGradient id="paint7_linear_1343_16754" x1="6.93953" y1="32.6554" x2="15.0089" y2="18.0391" gradientUnits="userSpaceOnUse">
<stop stop-color="#FF00D7"/>
<stop offset="1" stop-color="#FFD58D"/>
</linearGradient>
<linearGradient id="paint8_linear_1343_16754" x1="9.4813" y1="28.4627" x2="19.3721" y2="14.6401" gradientUnits="userSpaceOnUse">
<stop stop-color="#FF00D7"/>
<stop offset="1" stop-color="#FFD58D"/>
</linearGradient>
<linearGradient id="paint9_linear_1343_16754" x1="18.0599" y1="24.0416" x2="19.3994" y2="-0.462548" gradientUnits="userSpaceOnUse">
<stop offset="0.0005008" stop-color="#8D00F3"/>
<stop offset="0.0415826" stop-color="#850FF1"/>
<stop offset="0.2503" stop-color="#5D57E9"/>
<stop offset="0.4469" stop-color="#3C93E2"/>
<stop offset="0.6256" stop-color="#22C1DD"/>
<stop offset="0.7831" stop-color="#0FE3D9"/>
<stop offset="0.9133" stop-color="#04F8D7"/>
<stop offset="1" stop-color="#00FFD6"/>
</linearGradient>
<linearGradient id="paint10_linear_1343_16754" x1="18.9922" y1="26.3231" x2="17.4946" y2="3.47014" gradientUnits="userSpaceOnUse">
<stop offset="0.0005008" stop-color="#8D00F3"/>
<stop offset="0.0415826" stop-color="#850FF1"/>
<stop offset="0.2503" stop-color="#5D57E9"/>
<stop offset="0.4469" stop-color="#3C93E2"/>
<stop offset="0.6256" stop-color="#22C1DD"/>
<stop offset="0.7831" stop-color="#0FE3D9"/>
<stop offset="0.9133" stop-color="#04F8D7"/>
<stop offset="1" stop-color="#00FFD6"/>
</linearGradient>
</defs>
</svg>
