<svg width="117" height="117" viewBox="0 0 117 117" fill="none" xmlns="http://www.w3.org/2000/svg">
<path d="M109.549 10.2883V19.1058H5.7207V10.2883C5.7207 8.33245 7.30678 6.75049 9.2585 6.75049H106.007C107.963 6.75049 109.549 8.33245 109.549 10.2883Z" fill="#D9E5F1"/>
<path d="M13.5849 13.3642C13.5849 14.4623 12.6944 15.3527 11.5963 15.3527C10.5037 15.3527 9.61328 14.4623 9.61328 13.3642C9.61328 12.2661 10.5037 11.3757 11.5963 11.3757C12.6944 11.3757 13.5849 12.2661 13.5849 13.3642Z" fill="white"/>
<path d="M19.3212 13.3642C19.3212 14.4623 18.4307 15.3527 17.3326 15.3527C16.24 15.3527 15.3496 14.4623 15.3496 13.3642C15.3496 12.2661 16.24 11.3757 17.3326 11.3757C18.4307 11.3757 19.3212 12.2661 19.3212 13.3642Z" fill="white"/>
<path d="M25.0576 13.3642C25.0576 14.4623 24.167 15.3527 23.069 15.3527C21.9763 15.3527 21.0859 14.4623 21.0859 13.3642C21.0859 12.2661 21.9763 11.3757 23.069 11.3757C24.167 11.3757 25.0576 12.2661 25.0576 13.3642Z" fill="white"/>
<path d="M109.549 19.1057V107.461C109.549 109.417 107.963 111.003 106.007 111.003H9.2585C7.30678 111.003 5.7207 109.417 5.7207 107.461V19.1057H109.549Z" fill="#EFF6FF"/>
<path d="M57.6361 81.654C72.5582 81.654 84.655 69.5572 84.655 54.6351C84.655 39.713 72.5582 27.6162 57.6361 27.6162C42.714 27.6162 30.6172 39.713 30.6172 54.6351C30.6172 69.5572 42.714 81.654 57.6361 81.654Z" fill="#F24E66"/>
<path d="M57.6357 76.1322C69.5081 76.1322 79.1326 66.5076 79.1326 54.6352C79.1326 42.7627 69.5081 33.1382 57.6357 33.1382C45.7632 33.1382 36.1387 42.7627 36.1387 54.6352C36.1387 66.5076 45.7632 76.1322 57.6357 76.1322Z" fill="#EFF6FF"/>
<path d="M42.998 61.8826L43.0419 61.6845L48.329 47.4758C48.4755 47.109 48.7401 46.925 49.1222 46.925H51.5453C51.9267 46.925 52.1913 47.109 52.3384 47.4758L57.6249 61.6845L57.6694 61.8826C57.6694 62.1596 57.4319 62.3453 57.2067 62.3453H55.2463C54.9378 62.3453 54.7248 62.2059 54.6074 61.9268L53.5936 59.2613H47.0733L46.0601 61.9268C45.942 62.2059 45.7297 62.3453 45.4212 62.3453H43.4607C43.1955 62.3453 42.998 62.149 42.998 61.8826ZM47.8444 56.7059H52.8231L50.3334 49.921L47.8444 56.7059Z" fill="#29275C"/>
<path d="M59.6953 61.8165V47.4758C59.6953 47.1642 59.887 46.925 60.2238 46.925H65.5987C69.9308 46.925 72.1416 48.9226 72.2294 52.9169C72.2862 54.5827 72.2866 54.6525 72.2294 56.3316C72.1084 60.5663 69.9457 62.3453 65.7091 62.3453H60.2238C59.9312 62.3453 59.6953 62.1151 59.6953 61.8165ZM65.5987 59.7899C68.033 59.7899 69.0424 58.7817 69.1015 56.2654C69.1578 54.5574 69.159 54.6692 69.1015 52.983C69.0402 50.4953 67.8706 49.4805 65.4884 49.4805H62.8012V59.7899H65.5987Z" fill="#29275C"/>
<path d="M72.8789 37.2532L76.0622 40.4365L42.821 73.6777L39.6377 70.4944L72.8789 37.2532Z" fill="#F24E66"/>
<path d="M77.7103 90.0381V98.9897C77.7103 99.9647 76.9272 100.755 75.9446 100.755H39.3243C38.3493 100.755 37.5586 99.9647 37.5586 98.9897V90.0381C37.5586 89.0708 38.3493 88.28 39.3243 88.28H75.9446C76.9272 88.28 77.7103 89.0708 77.7103 90.0381Z" fill="#FEB630"/>
<path d="M44.405 96.4748C44.2338 96.247 44.1428 95.9983 44.1328 95.7289C44.1328 95.6483 44.198 95.5654 44.2963 95.5654H45.0033C45.0924 95.5654 45.1657 95.595 45.2438 95.7131C45.3782 96.1714 45.8781 96.3349 46.3556 96.3349C46.718 96.3349 46.9909 96.274 47.1752 96.1521C47.5338 95.9148 47.6549 95.34 46.8876 95.0566C45.6589 94.6027 44.2724 94.6208 44.2724 93.2031C44.2724 92.5658 44.6535 92.0963 45.2322 91.843C45.8492 91.5739 46.7899 91.5627 47.4242 91.8666C47.7372 92.0169 47.9754 92.2046 48.1389 92.4298C48.3016 92.6553 48.3887 92.8793 48.3987 93.1021C48.3987 93.1822 48.3338 93.2651 48.2361 93.2651H47.4974C47.3833 93.2651 47.3062 93.2185 47.2646 93.1256C47.2384 92.9598 47.1374 92.8211 46.9616 92.7096C46.5799 92.4688 45.9417 92.5027 45.6363 92.7058C45.4736 92.8145 45.3918 92.9726 45.3918 93.18C45.3918 93.688 45.9777 93.829 46.674 94.0115C47.1351 94.1152 47.5013 94.2316 47.7735 94.3611C48.7465 94.8242 48.7209 95.9087 48.2939 96.4787C47.8666 97.0522 47.0753 97.2365 46.3556 97.2365C45.6445 97.2365 44.8303 97.0445 44.405 96.4748Z" fill="white"/>
<path d="M49.3711 96.9722V91.8277C49.3711 91.7113 49.4564 91.6411 49.5577 91.6411H50.203C50.3078 91.6411 50.3896 91.7245 50.3896 91.8277V94.4853C50.5551 94.3279 51.5793 93.338 51.7535 93.1916C51.8149 93.1387 51.8697 93.1176 51.967 93.1176H52.7049C52.86 93.1176 52.9512 93.2905 52.7982 93.4287L51.213 94.9283L52.9925 96.8558C53.0395 96.9024 53.0626 96.9463 53.0626 96.988C53.0626 97.0947 52.9909 97.1588 52.8992 97.1588H52.1459C52.0125 97.1588 51.9694 97.1384 51.8583 97.0265L50.3896 95.4645V96.9722C50.3896 97.0746 50.3083 97.1588 50.203 97.1588H49.5577C49.4523 97.1588 49.3711 97.0746 49.3711 96.9722Z" fill="white"/>
<path d="M53.6211 92.2705V91.7031C53.6211 91.5822 53.7094 91.5088 53.8077 91.5088H54.5224C54.6319 91.5088 54.7167 91.5837 54.7167 91.7031V92.2705C54.7167 92.3788 54.6238 92.4571 54.5224 92.4571H53.8077C53.7041 92.4571 53.6211 92.377 53.6211 92.2705ZM53.6519 96.9721V93.3041C53.6519 93.1876 53.7372 93.1175 53.8385 93.1175H54.4993C54.6045 93.1175 54.6858 93.2021 54.6858 93.3041V96.9721C54.6858 97.0745 54.6046 97.1587 54.4993 97.1587H53.8385C53.7332 97.1587 53.6519 97.0745 53.6519 96.9721Z" fill="white"/>
<path d="M55.7188 98.4486V93.3041C55.7188 93.1877 55.804 93.1175 55.9053 93.1175H56.5275C56.6457 93.1175 56.7218 93.2045 56.7218 93.3041V93.6152C56.9963 93.2316 57.408 93.04 57.9569 93.04C59.0358 93.04 59.572 93.787 59.6123 94.8584C59.7239 96.1418 59.2599 97.2366 57.9569 97.2366C57.4388 97.2366 57.0426 97.0527 56.7681 96.6845V98.4486C56.7681 98.5655 56.6939 98.6352 56.5815 98.6352H55.9053C55.8048 98.6352 55.7188 98.566 55.7188 98.4486ZM58.5475 95.3711C58.558 95.2713 58.558 95.0049 58.5475 94.9051C58.5113 94.2212 58.216 93.8793 57.6617 93.8793C57.0773 93.8793 56.7884 94.3093 56.7681 94.8661C56.7576 94.9871 56.7577 95.3352 56.7681 95.4644C56.8154 96.6898 58.4712 96.8114 58.5475 95.3711Z" fill="white"/>
<path d="M61.6484 96.9957L61.6639 96.9255L63.5289 91.9133C63.5806 91.7838 63.6738 91.719 63.8088 91.719H64.6638C64.7987 91.719 64.892 91.7838 64.9437 91.9133L66.8087 96.9255L66.8241 96.9957C66.8241 97.0934 66.7414 97.1588 66.6607 97.1588H65.9691C65.8604 97.1588 65.7856 97.1094 65.744 97.0111L65.3862 96.0709H63.0863L62.7286 97.0111C62.687 97.1094 62.6122 97.1588 62.5035 97.1588H61.8119C61.7168 97.1588 61.6484 97.0878 61.6484 96.9957ZM63.3585 95.1692H65.1148L64.2367 92.7756L63.3585 95.1692Z" fill="white"/>
<path d="M67.237 95.3947L67.2285 95.1384L67.237 94.8816C67.275 93.8418 67.806 93.0401 68.9 93.0401C69.3973 93.0401 69.7936 93.2109 70.0889 93.5528V91.8277C70.0889 91.7091 70.1743 91.6411 70.2755 91.6411H70.9517C71.0612 91.6411 71.1375 91.7083 71.1375 91.8277V96.9722C71.1375 97.075 71.0682 97.1588 70.9517 97.1588H70.3218C70.2164 97.1588 70.1352 97.0746 70.1352 96.9722V96.6846C69.8507 97.0527 69.4382 97.2366 68.9 97.2366C67.817 97.2366 67.2858 96.4686 67.237 95.3947ZM70.0889 95.4101C70.0996 95.267 70.0989 94.9464 70.0889 94.8118C70.068 94.3101 69.7781 93.8793 69.1953 93.8793C68.6402 93.8793 68.3449 94.2213 68.3094 94.9051L68.301 95.1384L68.3094 95.3712C68.3449 96.0551 68.6402 96.397 69.1953 96.397C69.7768 96.397 70.0575 95.9802 70.0889 95.4101Z" fill="white"/>
</svg>
