<svg width="28" height="34" viewBox="0 0 28 34" fill="none" xmlns="http://www.w3.org/2000/svg">
<path d="M22.8568 17.7378C22.8185 13.5241 26.3362 11.4741 26.497 11.3786C24.5048 8.4984 21.417 8.10487 20.3319 8.07349C17.7386 7.80286 15.2229 9.61231 13.9019 9.61231C12.5544 9.61231 10.52 8.09964 8.32746 8.14409C5.50597 8.18723 2.86644 9.80711 1.41878 12.3226C-1.56883 17.4515 0.659351 24.9887 3.52171 29.1345C4.95354 31.1649 6.62666 33.4319 8.8166 33.3522C10.9591 33.2646 11.7594 31.9977 14.3449 31.9977C16.9066 31.9977 17.6581 33.3522 19.8916 33.3012C22.191 33.2646 23.6386 31.2616 25.0203 29.2129C26.675 26.8858 27.3395 24.5939 27.3659 24.4762C27.3118 24.4579 22.9003 22.7883 22.8568 17.7378Z" fill="#161616"/>
<path d="M18.6362 5.34598C19.7886 3.91699 20.577 1.97288 20.3581 0C18.6903 0.0732147 16.6045 1.14398 15.4034 2.5416C14.3407 3.77317 13.3914 5.79181 13.6367 7.69016C15.5102 7.82875 17.4338 6.75275 18.6362 5.34598Z" fill="#161616"/>
</svg>
