<svg width="27" height="30" viewBox="0 0 27 30" fill="none" xmlns="http://www.w3.org/2000/svg">
<path d="M11.1413 3.75454C10.6614 3.28104 9.8386 3.28104 9.35866 3.75454L0.582611 12.3791C0.102671 12.8526 0.102671 13.6644 0.582611 14.1379C1.06255 14.6114 1.88531 14.6114 2.36525 14.1379L11.107 5.51328C11.6212 5.03977 11.6212 4.22805 11.1413 3.75454Z" fill="url(#paint0_linear_1343_16755)"/>
<path d="M13.7821 14.2731C13.3022 13.7996 12.4794 13.7996 11.9995 14.2731L4.14902 22.0183C3.66908 22.4918 3.66908 23.3035 4.14902 23.777C4.62896 24.2506 5.45171 24.2506 5.93165 23.777L13.7821 16.0318C14.262 15.5583 14.262 14.7466 13.7821 14.2731Z" fill="url(#paint1_linear_1343_16755)"/>
<path d="M15.2899 3.95669C14.81 3.48319 13.9872 3.48319 13.5073 3.95669L3.35996 13.9341C2.88001 14.4077 2.88001 15.2194 3.35996 15.6929C3.8399 16.1664 4.66265 16.1664 5.14259 15.6929L15.2556 5.71543C15.7698 5.2081 15.7698 4.4302 15.2899 3.95669Z" fill="url(#paint2_linear_1343_16755)"/>
<path d="M10.5596 13.0211C10.0796 12.5476 9.25687 12.5476 8.77693 13.0211L1.54355 20.1576C1.06361 20.6311 1.06361 21.4428 1.54355 21.9163C2.02349 22.3898 2.84624 22.3898 3.32618 21.9163L10.5596 14.7799C11.0395 14.2726 11.0395 13.4947 10.5596 13.0211Z" fill="url(#paint3_linear_1343_16755)"/>
<path d="M3.05167 15.9297C2.53744 15.4562 1.74897 15.49 1.26903 15.9973L0.343432 16.9444C-0.136508 17.4517 -0.102226 18.2296 0.411995 18.7031C0.926217 19.1766 1.71469 19.1428 2.19463 18.6354L3.12023 17.6546C3.56589 17.1811 3.56589 16.4032 3.05167 15.9297Z" fill="url(#paint4_linear_1343_16755)"/>
<path d="M14.9468 9.63965V24.4536C14.9468 26.6182 13.1298 28.377 10.9358 28.4108C8.74182 28.4108 6.95919 26.6859 6.89062 24.5551V24.5213C6.89062 24.4874 6.89062 24.4874 6.89062 24.4536V9.63965H14.9468Z" fill="url(#paint5_linear_1343_16755)"/>
<path d="M26.911 9.87599C26.911 10.451 26.8767 11.0259 26.7739 11.5671C26.4653 13.3258 25.6768 14.9154 24.5798 16.2345C24.2713 16.6065 23.9628 16.9109 23.5857 17.2492C22.043 18.602 20.089 19.5152 17.9292 19.7181C17.7578 19.7181 17.6207 19.752 17.4493 19.752C17.3465 19.752 17.2436 19.752 17.1408 19.752C17.1065 19.752 17.0722 19.752 17.0379 19.752C17.0036 19.752 16.9351 19.752 16.9008 19.752C16.558 19.752 16.2495 19.752 15.9066 19.7181C15.8038 19.7181 15.7352 19.6843 15.6324 19.6843H15.5981C15.4953 19.6505 15.3924 19.6505 15.2553 19.6505C15.1525 19.6167 15.0496 19.6167 14.9468 19.5829C14.6382 19.5152 14.3297 19.4476 14.0212 19.3461C13.5069 19.177 12.9927 19.0079 12.5128 18.7711C12.4442 18.7373 12.4099 18.7035 12.3414 18.7035C12.0671 18.5682 11.7929 18.4329 11.5529 18.2638C11.4501 18.1962 11.3472 18.1285 11.2444 18.0609C11.1415 17.9932 11.0387 17.9256 10.9358 17.8579C10.7301 17.7227 10.5587 17.5874 10.3873 17.4183C10.2502 17.3168 10.1131 17.1815 10.0102 17.08C8.19332 15.389 7.02775 13.0214 6.89062 10.3833C6.89062 10.2142 6.89062 10.0789 6.89062 9.90981C6.89062 9.80834 6.89062 9.7407 6.89062 9.63923C6.95919 6.4938 8.53613 3.72041 10.9358 1.96167C11.2444 1.72492 11.5529 1.52198 11.8957 1.35287C13.3355 0.473506 15.0496 0 16.9008 0C17.2436 0 17.5864 0 17.895 0.0338219C20.5346 0.304397 22.8658 1.55581 24.5113 3.44983C24.5456 3.48365 24.5456 3.51747 24.5798 3.51747C24.6141 3.58512 24.6827 3.61894 24.717 3.68658C24.8198 3.78805 24.9227 3.92334 24.9912 4.05862C25.334 4.53213 25.6426 5.03946 25.9168 5.54679C26.2254 6.15558 26.4653 6.7982 26.6367 7.47463C26.8081 8.25254 26.911 9.06426 26.911 9.87599Z" fill="url(#paint6_linear_1343_16755)"/>
<path d="M15.0164 19.6503V26.0088C15.0164 27.5646 14.0908 28.9175 12.7881 29.5939C12.2396 29.8645 11.6225 30.0336 10.9369 30.0336C10.4227 30.0336 9.94275 29.9321 9.49709 29.763C7.95443 29.1881 6.85742 27.7337 6.85742 26.0088V24.5545C7.44021 22.7281 8.77718 21.2061 10.5255 20.3267C10.8684 20.1576 11.2454 20.0223 11.6225 19.887C12.3082 19.6841 13.0624 19.5488 13.8166 19.5488C14.1251 19.5488 14.4336 19.5827 14.7079 19.6165C14.8107 19.6165 14.8793 19.6503 14.9821 19.6503C14.9821 19.6503 14.9821 19.6503 15.0164 19.6503Z" fill="url(#paint7_linear_1343_16755)"/>
<path d="M15.0171 19.8538V25.9755C15.0171 27.5313 14.0915 28.8842 12.7888 29.5607C11.4861 28.8842 10.5605 27.5652 10.5605 26.0094V24.555C10.5605 24.5212 10.5605 24.5212 10.5605 24.4874V20.6993C11.6233 20.1244 12.8231 19.7861 14.1258 19.7861C14.2287 19.7861 14.3315 19.7861 14.4686 19.7861C14.6058 19.82 14.8114 19.82 15.0171 19.8538C14.9829 19.8538 15.0171 19.8538 15.0171 19.8538Z" fill="url(#paint8_linear_1343_16755)"/>
<path d="M26.9112 9.87609C26.9112 10.4511 26.8769 11.026 26.7741 11.5672C26.3627 12.8186 25.7113 13.9685 24.8886 14.9494C24.58 15.3214 24.2715 15.6258 23.8944 15.964C22.3518 17.3169 20.3977 18.2301 18.238 18.433C17.8952 18.433 17.6209 18.4668 17.3467 18.4668C17.3124 18.4668 17.2781 18.4668 17.2438 18.4668C17.141 18.4668 17.0724 18.5007 16.9696 18.5007C16.7639 18.5345 16.5239 18.5683 16.3182 18.636H16.2839H16.2497H16.2154C15.9411 18.7036 15.6326 18.7712 15.3241 18.8727H15.2898H15.2555C15.1527 18.9065 15.0498 18.9404 14.9812 18.9742C14.6727 19.0756 14.3642 19.1771 14.0556 19.3124C13.9185 19.38 13.7471 19.4477 13.61 19.4815C13.37 19.583 13.13 19.7183 12.8901 19.8197C11.9988 20.2932 11.176 20.902 10.5932 21.6461C10.4561 21.8152 10.3533 21.9843 10.2161 22.1873C10.1818 22.2549 10.1476 22.2887 10.1133 22.3564C10.1133 22.3564 10.1133 22.0858 10.1476 21.6461C10.1818 21.477 10.1818 21.2741 10.2504 21.0373C10.2847 20.902 10.319 20.7667 10.3533 20.5976C10.3533 20.5638 10.3533 20.5638 10.3533 20.53C10.3875 20.4623 10.3875 20.3609 10.4218 20.2932C10.5247 19.8874 10.6618 19.4139 10.8675 18.9404C10.8675 18.9404 10.8675 18.9404 10.8675 18.9065C11.0046 18.6021 11.1417 18.2977 11.2789 17.9595C11.4503 17.6213 11.6559 17.2831 11.8616 16.911C11.8616 16.911 11.8616 16.911 11.8616 16.8772C11.8616 16.8772 11.8616 16.8772 11.8616 16.8434C12.5815 15.7273 13.5757 14.5435 14.947 13.3936C15.0498 13.2921 15.1527 13.2245 15.2555 13.123C15.3926 13.0215 15.5297 12.8862 15.7012 12.7848C15.7354 12.7848 15.7354 12.7509 15.7697 12.7509C16.4553 12.2436 17.2095 11.7701 18.0666 11.3304C21.9404 9.36876 23.6544 6.52772 24.4086 4.16019C24.4772 3.95726 24.5458 3.72051 24.58 3.51758C24.6143 3.58522 24.6829 3.61904 24.7172 3.68669C24.82 3.78815 24.9229 3.92344 24.9914 4.05873C25.3342 4.53223 25.6428 5.03956 25.917 5.54689C26.2256 6.15568 26.4655 6.7983 26.6369 7.47474C26.8083 8.25264 26.9112 9.06437 26.9112 9.87609Z" fill="url(#paint9_linear_1343_16755)"/>
<path d="M26.9113 9.87645C26.9113 10.4514 26.877 11.0264 26.7742 11.5675C26.4657 13.3263 25.6772 14.9159 24.5802 16.235C24.2717 16.607 23.9631 16.9114 23.586 17.2496C22.0434 18.6025 20.0893 19.5157 17.9296 19.7186C17.5868 19.7186 17.3125 19.7524 17.0383 19.7524C17.004 19.7524 16.9697 19.7524 16.9354 19.7524C16.8326 19.7524 16.764 19.7863 16.6612 19.7863C16.4555 19.8201 16.2155 19.8539 16.0098 19.9215H15.9756H15.9413H15.907C15.6327 19.9892 15.3242 20.0568 15.0157 20.1583C15.0157 20.1583 15.0157 20.1583 14.9814 20.1583H14.9471H14.9128C13.3702 20.6994 11.6561 21.4435 10.5248 22.6611C10.2506 22.9317 10.0449 23.2361 9.83917 23.5743C9.80489 23.642 9.77061 23.6758 9.73633 23.7434C9.73633 23.7434 9.73633 23.4728 9.77061 23.0332C9.80489 22.7626 9.87345 22.3905 9.94202 22.0185C9.94202 21.9847 9.94202 21.9847 9.94202 21.9509C10.0106 21.7141 10.0791 21.4435 10.1477 21.173C10.2163 20.9362 10.3191 20.6656 10.422 20.3951C10.422 20.3951 10.422 20.3951 10.422 20.3612C10.6619 19.7524 11.0047 19.076 11.4161 18.3657C11.4161 18.3657 11.4161 18.3657 11.4161 18.3319C11.4161 18.3319 11.4161 18.2981 11.4504 18.2981C12.2046 17.0805 13.3016 15.7953 14.8443 14.6115C14.9814 14.51 15.1185 14.3748 15.2899 14.2733C15.3242 14.2733 15.3242 14.2395 15.3585 14.2395C16.0441 13.7321 16.7983 13.2586 17.6553 12.819C22.2833 10.3161 23.8603 6.83248 24.3059 4.26202C24.3402 4.02526 24.3745 3.78851 24.4088 3.55176C24.4431 3.58558 24.4431 3.6194 24.4773 3.6194C24.5116 3.68705 24.5802 3.72087 24.6145 3.78851C24.7173 3.88998 24.8202 4.02526 24.8887 4.16055C25.2315 4.63406 25.5401 5.14139 25.8143 5.64871C26.1229 6.25751 26.3628 6.90012 26.5342 7.57656C26.8085 8.253 26.9113 9.06472 26.9113 9.87645Z" fill="url(#paint10_linear_1343_16755)"/>
<defs>
<linearGradient id="paint0_linear_1343_16755" x1="12.4989" y1="3.53098" x2="-1.72854" y2="15.4722" gradientUnits="userSpaceOnUse">
<stop offset="1.38522e-07" stop-color="#FF9C35"/>
<stop offset="1" stop-color="#FFD019"/>
</linearGradient>
<linearGradient id="paint1_linear_1343_16755" x1="11.6367" y1="16.5984" x2="4.56484" y2="23.1798" gradientUnits="userSpaceOnUse">
<stop offset="1.38522e-07" stop-color="#8623D6"/>
<stop offset="1" stop-color="#467DE1"/>
</linearGradient>
<linearGradient id="paint2_linear_1343_16755" x1="21.6791" y1="3.65399" x2="-3.34665" y2="16.4909" gradientUnits="userSpaceOnUse">
<stop offset="1.38522e-07" stop-color="#4289FF"/>
<stop offset="1" stop-color="#07F8C3"/>
</linearGradient>
<linearGradient id="paint3_linear_1343_16755" x1="12.1049" y1="12.3937" x2="1.42179" y2="21.5912" gradientUnits="userSpaceOnUse">
<stop offset="1.38522e-07" stop-color="#FF589B"/>
<stop offset="1" stop-color="#FF136F"/>
</linearGradient>
<linearGradient id="paint4_linear_1343_16755" x1="4.80461" y1="13.9898" x2="0.122626" y2="19.1905" gradientUnits="userSpaceOnUse">
<stop offset="1.38522e-07" stop-color="#FC5E51"/>
<stop offset="1" stop-color="#F59E75"/>
</linearGradient>
<linearGradient id="paint5_linear_1343_16755" x1="4.07345" y1="26.2269" x2="26.9341" y2="-3.03529" gradientUnits="userSpaceOnUse">
<stop offset="0.0005008" stop-color="#8D00F3"/>
<stop offset="0.0415826" stop-color="#850FF1"/>
<stop offset="0.2503" stop-color="#5D57E9"/>
<stop offset="0.4469" stop-color="#3C93E2"/>
<stop offset="0.6256" stop-color="#22C1DD"/>
<stop offset="0.7831" stop-color="#0FE3D9"/>
<stop offset="0.9133" stop-color="#04F8D7"/>
<stop offset="1" stop-color="#00FFD6"/>
</linearGradient>
<linearGradient id="paint6_linear_1343_16755" x1="3.89158" y1="26.0829" x2="26.7506" y2="-3.17736" gradientUnits="userSpaceOnUse">
<stop offset="0.0005008" stop-color="#8D00F3"/>
<stop offset="0.0415826" stop-color="#850FF1"/>
<stop offset="0.2503" stop-color="#5D57E9"/>
<stop offset="0.4469" stop-color="#3C93E2"/>
<stop offset="0.6256" stop-color="#22C1DD"/>
<stop offset="0.7831" stop-color="#0FE3D9"/>
<stop offset="0.9133" stop-color="#04F8D7"/>
<stop offset="1" stop-color="#00FFD6"/>
</linearGradient>
<linearGradient id="paint7_linear_1343_16755" x1="6.93953" y1="32.6554" x2="15.0089" y2="18.0391" gradientUnits="userSpaceOnUse">
<stop stop-color="#FF00D7"/>
<stop offset="1" stop-color="#FFD58D"/>
</linearGradient>
<linearGradient id="paint8_linear_1343_16755" x1="9.4813" y1="28.4627" x2="19.3721" y2="14.6401" gradientUnits="userSpaceOnUse">
<stop stop-color="#FF00D7"/>
<stop offset="1" stop-color="#FFD58D"/>
</linearGradient>
<linearGradient id="paint9_linear_1343_16755" x1="18.0599" y1="24.0416" x2="19.3994" y2="-0.462548" gradientUnits="userSpaceOnUse">
<stop offset="0.0005008" stop-color="#8D00F3"/>
<stop offset="0.0415826" stop-color="#850FF1"/>
<stop offset="0.2503" stop-color="#5D57E9"/>
<stop offset="0.4469" stop-color="#3C93E2"/>
<stop offset="0.6256" stop-color="#22C1DD"/>
<stop offset="0.7831" stop-color="#0FE3D9"/>
<stop offset="0.9133" stop-color="#04F8D7"/>
<stop offset="1" stop-color="#00FFD6"/>
</linearGradient>
<linearGradient id="paint10_linear_1343_16755" x1="18.9922" y1="26.3231" x2="17.4946" y2="3.47014" gradientUnits="userSpaceOnUse">
<stop offset="0.0005008" stop-color="#8D00F3"/>
<stop offset="0.0415826" stop-color="#850FF1"/>
<stop offset="0.2503" stop-color="#5D57E9"/>
<stop offset="0.4469" stop-color="#3C93E2"/>
<stop offset="0.6256" stop-color="#22C1DD"/>
<stop offset="0.7831" stop-color="#0FE3D9"/>
<stop offset="0.9133" stop-color="#04F8D7"/>
<stop offset="1" stop-color="#00FFD6"/>
</linearGradient>
</defs>
</svg>
