<svg width="33" height="32" viewBox="0 0 33 32" fill="none" xmlns="http://www.w3.org/2000/svg">
<path fill-rule="evenodd" clip-rule="evenodd" d="M0.5 16C0.5 7.16344 7.66344 0 16.5 0C25.3366 0 32.5 7.16344 32.5 16C32.5 24.8366 25.3366 32 16.5 32C7.66344 32 0.5 24.8366 0.5 16Z" fill="url(#paint0_linear_1453_14075)"/>
<path d="M9.375 8.32394V23.6755C9.3751 23.7088 9.38504 23.7413 9.40356 23.769C9.42208 23.7967 9.44836 23.8183 9.4791 23.8311C9.50985 23.8439 9.54369 23.8474 9.57638 23.841C9.60908 23.8347 9.63917 23.8188 9.66289 23.7954L17.6562 16.0001L9.66289 8.20402C9.63917 8.18064 9.60908 8.16478 9.57638 8.15843C9.54369 8.15208 9.50985 8.15552 9.4791 8.16833C9.44836 8.18114 9.42208 8.20274 9.40356 8.23042C9.38504 8.2581 9.3751 8.29064 9.375 8.32394ZM21.0078 12.797L10.9852 7.27512L10.9789 7.2716C10.8062 7.17785 10.6422 7.41144 10.7836 7.54738L18.6402 15.0599L21.0078 12.797ZM10.7844 24.4529C10.6422 24.5888 10.8063 24.8224 10.9797 24.7286L10.9859 24.7251L21.0078 19.2032L18.6402 16.9396L10.7844 24.4529ZM25.0539 15.0236L22.2551 13.4821L19.6234 16.0001L22.2551 18.5169L25.0539 16.9767C25.8152 16.556 25.8152 15.4443 25.0539 15.0236Z" fill="white"/>
<defs>
<linearGradient id="paint0_linear_1453_14075" x1="16.5" y1="0" x2="16.5" y2="32" gradientUnits="userSpaceOnUse">
<stop stop-color="#FF3E6C"/>
<stop offset="1" stop-color="#FC5E51"/>
</linearGradient>
</defs>
</svg>
