<svg width="33" height="32" viewBox="0 0 33 32" fill="none" xmlns="http://www.w3.org/2000/svg">
<path fill-rule="evenodd" clip-rule="evenodd" d="M0.5 16C0.5 7.16344 7.66344 0 16.5 0C25.3366 0 32.5 7.16344 32.5 16C32.5 24.8366 25.3366 32 16.5 32C7.66344 32 0.5 24.8366 0.5 16Z" fill="#FF0000"/>
<path fill-rule="evenodd" clip-rule="evenodd" d="M23.1679 10.4995C23.9022 10.701 24.4805 11.2948 24.6768 12.0488C25.0335 13.4153 25.0335 16.2666 25.0335 16.2666C25.0335 16.2666 25.0335 19.1178 24.6768 20.4845C24.4805 21.2385 23.9022 21.8322 23.1679 22.0338C21.8371 22.4 16.5001 22.4 16.5001 22.4C16.5001 22.4 11.1632 22.4 9.8323 22.0338C9.09795 21.8322 8.51962 21.2385 8.32335 20.4845C7.9668 19.1178 7.9668 16.2666 7.9668 16.2666C7.9668 16.2666 7.9668 13.4153 8.32335 12.0488C8.51962 11.2948 9.09795 10.701 9.8323 10.4995C11.1632 10.1333 16.5001 10.1333 16.5001 10.1333C16.5001 10.1333 21.8371 10.1333 23.1679 10.4995ZM14.9001 13.8666V19.1999L19.1668 16.5333L14.9001 13.8666Z" fill="white"/>
</svg>
