<svg width="33" height="32" viewBox="0 0 33 32" fill="none" xmlns="http://www.w3.org/2000/svg">
<path fill-rule="evenodd" clip-rule="evenodd" d="M0.5 16C0.5 7.16344 7.66344 0 16.5 0C25.3366 0 32.5 7.16344 32.5 16C32.5 24.8366 25.3366 32 16.5 32C7.66344 32 0.5 24.8366 0.5 16Z" fill="url(#paint0_linear_1453_14083)"/>
<path d="M20.5 7.1226V9.81971H19.0463C18.5154 9.81971 18.1574 9.94231 17.9722 10.1875C17.787 10.4327 17.6944 10.8005 17.6944 11.2909V13.2218H20.4074L20.0463 16.2458H17.6944V24H14.8611V16.2458H12.5V13.2218H14.8611V10.9946C14.8611 9.72776 15.1821 8.74529 15.8241 8.04718C16.466 7.34906 17.321 7 18.3889 7C19.2963 7 20 7.04087 20.5 7.1226Z" fill="white"/>
<defs>
<linearGradient id="paint0_linear_1453_14083" x1="2.46923" y1="1.26274e-08" x2="16.4098" y2="32.0393" gradientUnits="userSpaceOnUse">
<stop stop-color="#5F5FFF"/>
<stop offset="1" stop-color="#5222D0"/>
</linearGradient>
</defs>
</svg>
