<svg width="20" height="20" viewBox="0 0 20 20" fill="none" xmlns="http://www.w3.org/2000/svg">
<path d="M15.8327 3.33398H4.16602C3.50297 3.33398 2.86709 3.59738 2.39825 4.06622C1.92941 4.53506 1.66602 5.17094 1.66602 5.83398V14.1673C1.66602 14.8304 1.92941 15.4662 2.39825 15.9351C2.86709 16.4039 3.50297 16.6673 4.16602 16.6673H15.8327C16.4957 16.6673 17.1316 16.4039 17.6005 15.9351C18.0693 15.4662 18.3327 14.8304 18.3327 14.1673V5.83398C18.3327 5.17094 18.0693 4.53506 17.6005 4.06622C17.1316 3.59738 16.4957 3.33398 15.8327 3.33398ZM15.8327 5.00065L10.416 8.72565C10.2893 8.79879 10.1456 8.8373 9.99935 8.8373C9.85307 8.8373 9.70936 8.79879 9.58268 8.72565L4.16602 5.00065H15.8327Z" fill="white"/>
</svg>
