<svg width="23" height="23" viewBox="0 0 23 23" fill="none" xmlns="http://www.w3.org/2000/svg">
<path d="M21.7469 0H0.906122C0.404923 0 0 0.404923 0 0.906122V21.7469C0 22.2481 0.404923 22.6531 0.906122 22.6531H21.7469C22.2481 22.6531 22.6531 22.2481 22.6531 21.7469V0.906122C22.6531 0.404923 22.2481 0 21.7469 0ZM19.1305 6.61186H17.3211C15.9024 6.61186 15.6278 7.28579 15.6278 8.27686V10.4601H19.0144L18.5727 13.8778H15.6278V22.6531H12.0967V13.8807H9.14334V10.4601H12.0967V7.9399C12.0967 5.01482 13.8835 3.42061 16.4943 3.42061C17.7458 3.42061 18.819 3.51406 19.1333 3.55653V6.61186H19.1305Z" fill="white"/>
</svg>
