<svg width="48" height="48" viewBox="0 0 48 48" fill="none" xmlns="http://www.w3.org/2000/svg">
<g clip-path="url(#clip0_1343_17817)">
<path d="M45.3331 22.3733C45.8287 22.0042 46.1963 21.4892 46.3843 20.9006C46.5724 20.3119 46.5716 19.6792 46.3819 19.0911C46.1922 18.503 45.8233 17.989 45.3267 17.6211C44.8302 17.2533 44.231 17.0501 43.6131 17.04L31.6131 16.5867C31.5541 16.5826 31.4976 16.5616 31.4502 16.5261C31.4029 16.4906 31.3669 16.4422 31.3465 16.3867L27.1998 5.18667C26.9914 4.61686 26.613 4.12483 26.1158 3.7772C25.6186 3.42957 25.0265 3.24313 24.4198 3.24313C23.8131 3.24313 23.221 3.42957 22.7238 3.7772C22.2265 4.12483 21.8481 4.61686 21.6398 5.18667L17.5065 16.4267C17.486 16.4822 17.45 16.5306 17.4027 16.5661C17.3554 16.6015 17.2988 16.6226 17.2398 16.6267L5.23979 17.08C4.62193 17.0901 4.02272 17.2933 3.52618 17.6611C3.02964 18.029 2.66067 18.543 2.471 19.1311C2.28133 19.7192 2.28048 20.3519 2.46857 20.9405C2.65665 21.5292 3.02424 22.0442 3.51979 22.4133L12.9331 29.8133C12.9817 29.8492 13.018 29.8992 13.0371 29.9565C13.0561 30.0137 13.0571 30.0755 13.0398 30.1333L9.79979 41.6133C9.68627 42.0508 9.67399 42.5085 9.76388 42.9515C9.85378 43.3944 10.0435 43.8111 10.3186 44.1697C10.5937 44.5284 10.9469 44.8196 11.3514 45.0212C11.756 45.2228 12.2011 45.3296 12.6531 45.3333C13.2424 45.3328 13.8181 45.1564 14.3065 44.8267L24.2531 38.16C24.3021 38.1262 24.3603 38.1081 24.4198 38.1081C24.4793 38.1081 24.5375 38.1262 24.5865 38.16L34.5331 44.8267C35.0365 45.1681 35.6328 45.3462 36.2409 45.3367C36.8491 45.3273 37.4395 45.1307 37.932 44.7737C38.4244 44.4168 38.795 43.9168 38.9932 43.3417C39.1914 42.7667 39.2077 42.1446 39.0398 41.56L35.7731 30.04C35.7577 29.9821 35.7596 29.9209 35.7785 29.864C35.7975 29.8071 35.8327 29.7571 35.8798 29.72L45.3331 22.3733ZM24.4398 35.4933C23.8504 35.4931 23.2745 35.6696 22.7865 36L12.8265 42.6667C12.776 42.705 12.7146 42.726 12.6513 42.7265C12.588 42.727 12.5262 42.707 12.4752 42.6695C12.4242 42.632 12.3867 42.5789 12.3683 42.5184C12.3499 42.4578 12.3516 42.3929 12.3731 42.3333L15.6398 30.8133C15.8064 30.2534 15.8029 29.6566 15.6296 29.0987C15.4563 28.5408 15.121 28.047 14.6665 27.68L5.19979 20.28C5.14844 20.2439 5.11001 20.1924 5.09014 20.1328C5.07028 20.0733 5.07002 20.009 5.08942 19.9493C5.10881 19.8896 5.14684 19.8377 5.1979 19.8013C5.24896 19.7648 5.31038 19.7457 5.37312 19.7467L17.3731 19.2933C17.9553 19.2617 18.5152 19.0587 18.9825 18.71C19.4498 18.3613 19.8037 17.8824 19.9998 17.3333L24.1331 6.09334C24.1487 6.0323 24.1853 5.97874 24.2365 5.94213C24.2878 5.90553 24.3503 5.88824 24.4131 5.89334L24.4398 35.4933Z" fill="white"/>
</g>
<defs>
<clipPath id="clip0_1343_17817">
<rect width="48" height="48" fill="white"/>
</clipPath>
</defs>
</svg>
