<svg width="24" height="23" viewBox="0 0 24 23" fill="none" xmlns="http://www.w3.org/2000/svg">
<path d="M12.1809 7.54941C10.1011 7.54941 8.40386 9.24671 8.40386 11.3265C8.40386 13.4064 10.1011 15.1036 12.1809 15.1036C14.2607 15.1036 15.958 13.4064 15.958 11.3265C15.958 9.24671 14.2607 7.54941 12.1809 7.54941ZM23.5092 11.3265C23.5092 9.76241 23.5234 8.21246 23.4355 6.65118C23.3477 4.83771 22.934 3.22825 21.6079 1.90215C20.279 0.573219 18.6724 0.162355 16.859 0.074515C15.2949 -0.013325 13.745 0.000842822 12.1837 0.000842822C10.6197 0.000842822 9.06973 -0.013325 7.50848 0.074515C5.69504 0.162355 4.08561 0.576053 2.75954 1.90215C1.43063 3.23109 1.01977 4.83771 0.931935 6.65118C0.844097 8.2153 0.858265 9.76525 0.858265 11.3265C0.858265 12.8878 0.844097 14.4406 0.931935 16.0019C1.01977 17.8154 1.43346 19.4248 2.75954 20.7509C4.08845 22.0798 5.69504 22.4907 7.50848 22.5785C9.07257 22.6664 10.6225 22.6522 12.1837 22.6522C13.7478 22.6522 15.2978 22.6664 16.859 22.5785C18.6724 22.4907 20.2819 22.077 21.6079 20.7509C22.9369 19.422 23.3477 17.8154 23.4355 16.0019C23.5262 14.4406 23.5092 12.8906 23.5092 11.3265ZM12.1809 17.1381C8.96489 17.1381 6.36941 14.5426 6.36941 11.3265C6.36941 8.11045 8.96489 5.51493 12.1809 5.51493C15.3969 5.51493 17.9924 8.11045 17.9924 11.3265C17.9924 14.5426 15.3969 17.1381 12.1809 17.1381ZM18.2304 6.63418C17.4795 6.63418 16.8732 6.0278 16.8732 5.27691C16.8732 4.52602 17.4795 3.91964 18.2304 3.91964C18.9813 3.91964 19.5877 4.52602 19.5877 5.27691C19.5879 5.45521 19.5529 5.6318 19.4848 5.79658C19.4167 5.96135 19.3167 6.11106 19.1906 6.23714C19.0646 6.36322 18.9148 6.46319 18.7501 6.53132C18.5853 6.59945 18.4087 6.6344 18.2304 6.63418Z" fill="white"/>
</svg>
