<svg width="24" height="23" viewBox="0 0 24 23" fill="none" xmlns="http://www.w3.org/2000/svg">
<path d="M22.4618 0H1.62097C1.11977 0 0.714844 0.404923 0.714844 0.906122V21.7469C0.714844 22.2481 1.11977 22.6531 1.62097 22.6531H22.4618C22.963 22.6531 23.3679 22.2481 23.3679 21.7469V0.906122C23.3679 0.404923 22.963 0 22.4618 0ZM7.43431 19.3032H4.07316V8.49207H7.43431V19.3032ZM5.75515 7.01395C5.36984 7.01395 4.99318 6.8997 4.67281 6.68563C4.35243 6.47156 4.10273 6.1673 3.95528 5.81132C3.80783 5.45534 3.76925 5.06363 3.84442 4.68572C3.91959 4.30782 4.10513 3.96069 4.37759 3.68823C4.65005 3.41578 4.99718 3.23023 5.37508 3.15506C5.75299 3.07989 6.1447 3.11847 6.50068 3.26592C6.85666 3.41337 7.16092 3.66308 7.37499 3.98345C7.58906 4.30382 7.70331 4.68048 7.70331 5.06579C7.70048 6.14181 6.82834 7.01395 5.75515 7.01395ZM20.0181 19.3032H16.6598V14.0449C16.6598 12.7905 16.6371 11.1793 14.9127 11.1793C13.1655 11.1793 12.8965 12.5441 12.8965 13.9543V19.3032H9.54104V8.49207H12.7634V9.97018H12.8087C13.2561 9.12069 14.352 8.22306 15.9887 8.22306C19.3923 8.22306 20.0181 10.4629 20.0181 13.3738V19.3032Z" fill="white"/>
</svg>
