<svg width="59" height="59" viewBox="0 0 59 59" fill="none" xmlns="http://www.w3.org/2000/svg">
<g clip-path="url(#clip0_1343_17795)">
<path d="M53.2512 27.8897H5.68193C2.88481 27.8897 0.609375 30.1651 0.609375 32.9622V53.2524C0.609375 56.0496 2.88481 58.325 5.68193 58.325H53.2512C56.0483 58.325 58.3237 56.0496 58.3237 53.2524V32.9622C58.3237 30.1651 56.0484 27.8897 53.2512 27.8897ZM15.9398 51.5616H9.17635C8.24176 51.5616 7.4855 50.8053 7.4855 49.8707V36.3439C7.4855 35.4093 8.24176 34.6531 9.17635 34.6531C10.1109 34.6531 10.8672 35.4093 10.8672 36.3439V48.1799H15.9398C16.8743 48.1799 17.6306 48.9361 17.6306 49.8707C17.6306 50.8053 16.8743 51.5616 15.9398 51.5616ZM24.394 49.8707C24.394 50.8053 23.6377 51.5616 22.7032 51.5616C21.7686 51.5616 21.0123 50.8053 21.0123 49.8707V36.3439C21.0123 35.4093 21.7686 34.6531 22.7032 34.6531C23.6377 34.6531 24.394 35.4093 24.394 36.3439V49.8707ZM37.8696 36.7535L34.4879 50.2803C34.2997 51.0333 33.6244 51.5616 32.8483 51.5616C32.0722 51.5616 31.3968 51.0331 31.2086 50.2803L27.8269 36.7535C27.5991 35.8486 28.1505 34.9305 29.057 34.7043C29.9603 34.4698 30.88 35.0279 31.1062 35.9344L32.8483 42.8994L34.5903 35.9345C34.8148 35.028 35.733 34.4682 36.6395 34.7044C37.546 34.9305 38.0976 35.8486 37.8696 36.7535ZM49.7568 41.4165C50.6914 41.4165 51.4476 42.1727 51.4476 43.1073C51.4476 44.0419 50.6914 44.7982 49.7568 44.7982H44.6842V48.1799H49.7568C50.6914 48.1799 51.4476 48.9361 51.4476 49.8707C51.4476 50.8053 50.6914 51.5616 49.7568 51.5616H42.9934C42.0588 51.5616 41.3025 50.8053 41.3025 49.8707V36.3439C41.3025 35.4093 42.0588 34.6531 42.9934 34.6531H49.7568C50.6914 34.6531 51.4476 35.4093 51.4476 36.3439C51.4476 37.2785 50.6914 38.0348 49.7568 38.0348H44.6842V41.4165H49.7568Z" fill="white"/>
<path d="M14.5852 23.607C9.65129 17.0352 9.65129 7.85767 14.5852 1.28578C15.145 0.541133 16.2067 0.387491 16.9531 0.948966C17.6994 1.51044 17.8497 2.57049 17.2899 3.31683C13.2527 8.6916 13.2527 16.2013 17.2899 21.576C17.8497 22.3223 17.6994 23.3824 16.9531 23.9439C16.2099 24.5014 15.1477 24.3569 14.5852 23.607Z" fill="white"/>
<path d="M41.9798 23.9441C41.2335 23.3827 41.0832 22.3226 41.643 21.5762C45.6802 16.2014 45.6802 8.6917 41.643 3.31705C41.0832 2.57071 41.2335 1.51066 41.9798 0.949186C42.7262 0.389401 43.7896 0.541353 44.3477 1.286C49.2816 7.85789 49.2816 17.0354 44.3477 23.6073C43.7861 24.356 42.7245 24.5025 41.9798 23.9441Z" fill="white"/>
<path d="M20.6448 20.338C16.6158 15.8401 16.6158 9.05364 20.6448 4.55564C21.2689 3.86047 22.3423 3.80433 23.0325 4.42352C23.7276 5.04598 23.787 6.11607 23.1646 6.81123C20.2881 10.0245 20.2881 14.8691 23.1646 18.0824C23.787 18.7776 23.7276 19.8476 23.0325 20.4701C22.3397 21.0918 21.2679 21.0352 20.6448 20.338Z" fill="white"/>
<path d="M35.9007 20.4695C35.2055 19.847 35.1461 18.7769 35.7686 18.0817C38.645 14.8685 38.645 10.0238 35.7686 6.81054C35.1461 6.11537 35.2055 5.0454 35.9007 4.42283C36.5941 3.80195 37.6658 3.85809 38.2884 4.55494C42.3173 9.05283 42.3173 15.8393 38.2884 20.3373C37.6655 21.0343 36.5936 21.0912 35.9007 20.4695Z" fill="white"/>
<path d="M29.4671 17.5192C26.67 17.5192 24.3945 15.2437 24.3945 12.4466C24.3945 9.64949 26.67 7.37405 29.4671 7.37405C32.2642 7.37405 34.5396 9.64949 34.5396 12.4466C34.5396 15.2437 32.2643 17.5192 29.4671 17.5192Z" fill="white"/>
</g>
<defs>
<clipPath id="clip0_1343_17795">
<rect width="57.7144" height="57.7144" fill="white" transform="translate(0.609375 0.610382)"/>
</clipPath>
</defs>
</svg>
