<svg width="232" height="221" viewBox="0 0 232 221" fill="none" xmlns="http://www.w3.org/2000/svg">
<path d="M231.468 179.454L219.382 158.735L231.144 137.801L151.83 138.448L152.154 180.102L231.468 179.454Z" fill="#5D07BB"/>
<path d="M0 181.721L12.0859 161.002L0.32373 140.067L101.112 140.715L100.788 182.368L0 181.721Z" fill="#5D07BB"/>
<path d="M195.426 70.3572V137.585C195.426 144.923 191.433 151.829 185.066 155.498L126.795 189.166C120.428 192.835 112.551 192.835 106.076 189.166L65.2861 165.642L52.229 158.088L47.8047 155.606C46.0781 154.635 44.5674 153.448 43.2725 152.045C39.6035 148.268 37.4453 143.089 37.4453 137.693V70.3572C37.4453 63.0193 41.438 56.113 47.8047 52.4441L106.076 18.7761C112.443 15.1072 120.32 15.1072 126.795 18.7761L160.571 38.3079L185.066 52.4441C187.117 53.6311 188.843 55.1418 190.354 56.8684C192.512 59.4583 194.131 62.4797 194.886 65.825C195.21 67.2278 195.426 68.8464 195.426 70.3572Z" fill="url(#paint0_linear_1343_17824)"/>
<path d="M195.426 70.3572V137.585C195.426 144.923 191.433 151.829 185.066 155.498L126.795 189.166C120.428 192.835 112.551 192.835 106.076 189.166L65.2861 165.642L52.229 158.088L47.8047 155.606C46.0781 154.635 44.5674 153.448 43.2725 152.045C39.6035 148.268 37.4453 143.089 37.4453 137.693V70.3572C37.4453 63.0193 41.438 56.113 47.8047 52.4441L106.076 18.7761C112.443 15.1072 120.32 15.1072 126.795 18.7761L160.571 38.3079L185.066 52.4441C187.117 53.6311 188.843 55.1418 190.354 56.8684C192.512 59.4582 194.131 62.4797 194.886 65.8249C195.21 67.2278 195.426 68.8464 195.426 70.3572Z" stroke="#FFAB00" stroke-width="10.1977" stroke-miterlimit="10" stroke-linecap="round" stroke-linejoin="round"/>
<path d="M116.544 16.0786C120.105 16.0786 123.666 17.0498 126.903 18.8843L160.679 38.416L185.175 52.5522C187.225 53.7393 188.952 55.25 190.462 56.9766C192.621 59.5664 194.239 62.5879 194.995 65.9331C195.318 67.4438 195.534 68.9546 195.534 70.4653V137.693C195.534 145.031 191.542 151.938 185.175 155.606L126.903 189.274C123.666 191.109 120.105 192.08 116.544 192.08C112.983 192.08 109.422 191.109 106.185 189.274L65.3945 165.75L52.3374 158.196L47.9131 155.714C46.1865 154.743 44.6758 153.556 43.3809 152.153C39.7119 148.376 37.5537 143.197 37.5537 137.801V70.3574C37.5537 63.0195 41.5464 56.1133 47.9131 52.4443L106.185 18.7764C109.314 16.9419 112.875 16.0786 116.544 16.0786ZM116.544 11.0068C112.012 11.0068 107.587 12.1938 103.703 14.46L45.4311 48.1279C37.5537 52.6602 32.5898 61.1851 32.5898 70.3574V137.585C32.5898 144.276 35.1797 150.535 39.8198 155.391C41.5464 157.117 43.3809 158.628 45.5391 159.815L49.8555 162.297L62.9126 169.851L103.595 193.483C107.479 195.749 111.904 196.936 116.436 196.936C120.968 196.936 125.393 195.749 129.277 193.483L187.549 159.815C195.426 155.283 200.39 146.758 200.39 137.585V70.3574C200.39 68.415 200.174 66.5806 199.743 64.7461C198.879 60.6455 196.937 56.8687 194.131 53.6313C192.297 51.4731 190.031 49.6387 187.549 48.1279L163.053 33.9917L129.277 14.46C125.393 12.1938 120.968 11.0068 116.544 11.0068Z" fill="#FFDA6A"/>
<path opacity="0.68" d="M190.353 56.8691L43.3799 151.938C39.7109 148.161 37.5527 142.981 37.5527 137.586V117.838L160.57 38.3086L185.066 52.4448C187.116 53.6318 188.843 55.1426 190.353 56.8691Z" fill="#FFDA6A"/>
<path opacity="0.68" d="M195.425 70.3574V81.4722L65.3931 165.534L52.3359 157.98L194.885 65.8252C195.209 67.228 195.425 68.8467 195.425 70.3574Z" fill="#FFDA6A"/>
<g filter="url(#filter0_di_1343_17824)">
<path d="M94.682 71.2253V118.256H78.826V83.1845H70.7637V71.2253H94.682ZM144.331 118.256L144.196 96.8234L133.984 114.023H126.997L116.784 97.5624V118.256H102.339V71.2253H115.373L130.692 96.2859L145.607 71.2253H158.641L158.776 118.256H144.331Z" fill="#FFFCFF"/>
</g>
<path d="M171.038 91.7236L173.628 96.9033L179.347 97.7666L175.247 101.867L176.218 107.586L171.038 104.889L165.858 107.586L166.83 101.867L162.621 97.7666L168.448 96.9033L171.038 91.7236Z" fill="#FFFCFF"/>
<path d="M65.3936 92.9102L67.9834 98.0898L73.7026 98.9531L69.4941 103.054L70.5732 108.773L65.3936 106.075L60.2139 108.773L61.1851 103.054L56.9766 98.9531L62.8037 98.0898L65.3936 92.9102Z" fill="#FFFCFF"/>
<path d="M206.973 133.053H22.6621V165.857H206.973V133.053Z" fill="#8601F8"/>
<path d="M36.042 144L37.4448 146.914L40.6821 147.345L38.3081 149.611L38.8477 152.741L36.042 151.23L33.2363 152.741L33.7759 149.611L31.5098 147.345L34.6392 146.914L36.042 144Z" fill="#FFFCFF"/>
<path d="M193.374 144L194.777 146.914L198.014 147.345L195.64 149.611L196.18 152.741L193.374 151.23L190.568 152.741L191.108 149.611L188.842 147.345L191.971 146.914L193.374 144Z" fill="#FFFCFF"/>
<path d="M51.8851 141.923H58.3301C59.7872 141.923 61.07 142.191 62.1784 142.727C63.2993 143.25 64.1648 144.003 64.7751 144.987C65.3978 145.971 65.7091 147.129 65.7091 148.462C65.7091 149.794 65.3978 150.952 64.7751 151.936C64.1648 152.92 63.2993 153.68 62.1784 154.215C61.07 154.739 59.7872 155 58.3301 155H51.8851V141.923ZM58.1433 151.563C59.0898 151.563 59.8433 151.295 60.4037 150.759C60.9766 150.211 61.263 149.446 61.263 148.462C61.263 147.478 60.9766 146.718 60.4037 146.183C59.8433 145.635 59.0898 145.361 58.1433 145.361H56.2939V151.563H58.1433ZM74.1749 155.299C72.7676 155.299 71.5035 155.006 70.3826 154.421C69.2617 153.836 68.3837 153.026 67.7486 151.992C67.1134 150.946 66.7958 149.769 66.7958 148.462C66.7958 147.154 67.1134 145.983 67.7486 144.95C68.3837 143.903 69.2617 143.088 70.3826 142.502C71.5035 141.917 72.7676 141.624 74.1749 141.624C75.5822 141.624 76.8463 141.917 77.9671 142.502C79.088 143.088 79.966 143.903 80.6012 144.95C81.2363 145.983 81.5539 147.154 81.5539 148.462C81.5539 149.769 81.2363 150.946 80.6012 151.992C79.966 153.026 79.088 153.836 77.9671 154.421C76.8463 155.006 75.5822 155.299 74.1749 155.299ZM74.1749 151.731C74.7228 151.731 75.2148 151.6 75.6507 151.339C76.099 151.065 76.454 150.685 76.7155 150.199C76.977 149.701 77.1078 149.122 77.1078 148.462C77.1078 147.802 76.977 147.229 76.7155 146.743C76.454 146.245 76.099 145.865 75.6507 145.603C75.2148 145.329 74.7228 145.192 74.1749 145.192C73.6269 145.192 73.1287 145.329 72.6804 145.603C72.2445 145.865 71.8958 146.245 71.6342 146.743C71.3727 147.229 71.2419 147.802 71.2419 148.462C71.2419 149.122 71.3727 149.701 71.6342 150.199C71.8958 150.685 72.2445 151.065 72.6804 151.339C73.1287 151.6 73.6269 151.731 74.1749 151.731ZM103.957 141.923L99.7729 155H95.0466L92.9356 148.013L90.7126 155H85.9863L81.8017 141.923H86.3412L88.6203 149.358L91.0302 141.923H95.084L97.3631 149.452L99.7729 141.923H103.957ZM117.826 141.923V155H114.202L109.233 149.059V155H104.936V141.923H108.561L113.53 147.864V141.923H117.826ZM119.951 141.923H124.359V151.581H130.263V155H119.951V141.923ZM138.154 155.299C136.747 155.299 135.483 155.006 134.362 154.421C133.241 153.836 132.363 153.026 131.728 151.992C131.092 150.946 130.775 149.769 130.775 148.462C130.775 147.154 131.092 145.983 131.728 144.95C132.363 143.903 133.241 143.088 134.362 142.502C135.483 141.917 136.747 141.624 138.154 141.624C139.561 141.624 140.825 141.917 141.946 142.502C143.067 143.088 143.945 143.903 144.58 144.95C145.215 145.983 145.533 147.154 145.533 148.462C145.533 149.769 145.215 150.946 144.58 151.992C143.945 153.026 143.067 153.836 141.946 154.421C140.825 155.006 139.561 155.299 138.154 155.299ZM138.154 151.731C138.702 151.731 139.194 151.6 139.63 151.339C140.078 151.065 140.433 150.685 140.695 150.199C140.956 149.701 141.087 149.122 141.087 148.462C141.087 147.802 140.956 147.229 140.695 146.743C140.433 146.245 140.078 145.865 139.63 145.603C139.194 145.329 138.702 145.192 138.154 145.192C137.606 145.192 137.108 145.329 136.659 145.603C136.224 145.865 135.875 146.245 135.613 146.743C135.352 147.229 135.221 147.802 135.221 148.462C135.221 149.122 135.352 149.701 135.613 150.199C135.875 150.685 136.224 151.065 136.659 151.339C137.108 151.6 137.606 151.731 138.154 151.731ZM155.862 152.721H150.892L150.014 155H145.531L151.247 141.923H155.581L161.298 155H156.74L155.862 152.721ZM154.647 149.545L153.377 146.257L152.107 149.545H154.647ZM162.001 141.923H168.446C169.903 141.923 171.186 142.191 172.295 142.727C173.415 143.25 174.281 144.003 174.891 144.987C175.514 145.971 175.825 147.129 175.825 148.462C175.825 149.794 175.514 150.952 174.891 151.936C174.281 152.92 173.415 153.68 172.295 154.215C171.186 154.739 169.903 155 168.446 155H162.001V141.923ZM168.259 151.563C169.206 151.563 169.959 151.295 170.52 150.759C171.093 150.211 171.379 149.446 171.379 148.462C171.379 147.478 171.093 146.718 170.52 146.183C169.959 145.635 169.206 145.361 168.259 145.361H166.41V151.563H168.259Z" fill="#FFFCFF"/>
<path d="M20.3955 117.514C21.7066 117.514 22.7695 116.451 22.7695 115.14C22.7695 113.829 21.7066 112.766 20.3955 112.766C19.0844 112.766 18.0215 113.829 18.0215 115.14C18.0215 116.451 19.0844 117.514 20.3955 117.514Z" fill="#8601F8"/>
<path d="M97.1191 2.37402C97.1191 3.66895 96.04 4.74805 94.7451 4.74805C93.4502 4.74805 92.3711 3.66895 92.3711 2.37402C92.3711 1.0791 93.4502 0 94.7451 0C96.04 0 97.1191 1.0791 97.1191 2.37402Z" fill="#8601F8"/>
<path d="M227.043 99.0615C229.01 99.0615 230.604 97.4672 230.604 95.5005C230.604 93.5338 229.01 91.9395 227.043 91.9395C225.077 91.9395 223.482 93.5338 223.482 95.5005C223.482 97.4672 225.077 99.0615 227.043 99.0615Z" fill="#8601F8"/>
<path d="M71.2212 202.655C73.6647 202.655 75.6455 200.674 75.6455 198.231C75.6455 195.787 73.6647 193.807 71.2212 193.807C68.7777 193.807 66.7969 195.787 66.7969 198.231C66.7969 200.674 68.7777 202.655 71.2212 202.655Z" fill="white"/>
<path d="M183.448 23.9561C187.858 23.9561 191.434 20.3809 191.434 15.9707C191.434 11.5605 187.858 7.98535 183.448 7.98535C179.038 7.98535 175.463 11.5605 175.463 15.9707C175.463 20.3809 179.038 23.9561 183.448 23.9561Z" stroke="#8601F8" stroke-width="1.19899" stroke-miterlimit="10"/>
<path d="M55.5747 27.9482C57.7798 27.9482 59.5674 26.1607 59.5674 23.9556C59.5674 21.7505 57.7798 19.9629 55.5747 19.9629C53.3696 19.9629 51.582 21.7505 51.582 23.9556C51.582 26.1607 53.3696 27.9482 55.5747 27.9482Z" stroke="url(#paint1_linear_1343_17824)" stroke-width="1.19899" stroke-miterlimit="10"/>
<path d="M156.362 205.029C156.362 206.971 154.744 208.59 152.801 208.59C150.859 208.59 149.24 206.971 149.24 205.029C149.24 203.086 150.859 201.468 152.801 201.468C154.744 201.468 156.362 203.086 156.362 205.029Z" stroke="url(#paint2_linear_1343_17824)" stroke-width="1.19899" stroke-miterlimit="10"/>
<path d="M15.2163 82.3355C14.5688 82.3355 14.0293 81.7959 14.0293 81.1484V68.3071C14.0293 67.6597 14.5688 67.1201 15.2163 67.1201C15.8638 67.1201 16.4033 67.6597 16.4033 68.3071V81.1484C16.4033 81.7959 15.8638 82.3355 15.2163 82.3355Z" fill="url(#paint3_linear_1343_17824)"/>
<path d="M7.66211 74.7817C7.66211 74.1343 8.20166 73.5947 8.84912 73.5947H21.5825C22.23 73.5947 22.7695 74.1343 22.7695 74.7817C22.7695 75.4292 22.23 75.9688 21.5825 75.9688H8.84912C8.20166 75.9688 7.66211 75.4292 7.66211 74.7817Z" fill="url(#paint4_linear_1343_17824)"/>
<path d="M215.498 47.5884C214.85 47.5884 214.311 47.0488 214.311 46.4014V33.5601C214.311 32.9126 214.85 32.3731 215.498 32.3731C216.145 32.3731 216.685 32.9126 216.685 33.5601V46.4014C216.685 47.0488 216.145 47.5884 215.498 47.5884Z" fill="white"/>
<path d="M207.836 39.9272C207.836 39.2798 208.375 38.7402 209.023 38.7402H221.864C222.512 38.7402 223.051 39.2798 223.051 39.9272C223.051 40.5747 222.512 41.1143 221.864 41.1143H209.023C208.375 41.1143 207.836 40.5747 207.836 39.9272Z" fill="white"/>
<path d="M95.6089 221C94.9614 221 94.4219 220.46 94.4219 219.813V206.971C94.4219 206.324 94.9614 205.784 95.6089 205.784C96.2563 205.784 96.7959 206.324 96.7959 206.971V219.813C96.7959 220.46 96.2563 221 95.6089 221Z" fill="#8601F8"/>
<path d="M87.9473 213.446C87.9473 212.798 88.4868 212.259 89.1343 212.259H101.976C102.623 212.259 103.163 212.798 103.163 213.446C103.163 214.093 102.623 214.633 101.976 214.633H89.1343C88.4868 214.633 87.9473 214.093 87.9473 213.446Z" fill="#8601F8"/>
<defs>
<filter id="filter0_di_1343_17824" x="70.7637" y="71.2253" width="88.0117" height="50.0476" filterUnits="userSpaceOnUse" color-interpolation-filters="sRGB">
<feFlood flood-opacity="0" result="BackgroundImageFix"/>
<feColorMatrix in="SourceAlpha" type="matrix" values="0 0 0 0 0 0 0 0 0 0 0 0 0 0 0 0 0 0 127 0" result="hardAlpha"/>
<feOffset dy="3.01707"/>
<feComposite in2="hardAlpha" operator="out"/>
<feColorMatrix type="matrix" values="0 0 0 0 1 0 0 0 0 0.412549 0 0 0 0 0.160784 0 0 0 1 0"/>
<feBlend mode="normal" in2="BackgroundImageFix" result="effect1_dropShadow_1343_17824"/>
<feBlend mode="normal" in="SourceGraphic" in2="effect1_dropShadow_1343_17824" result="shape"/>
<feColorMatrix in="SourceAlpha" type="matrix" values="0 0 0 0 0 0 0 0 0 0 0 0 0 0 0 0 0 0 127 0" result="hardAlpha"/>
<feOffset dy="3.01707"/>
<feComposite in2="hardAlpha" operator="arithmetic" k2="-1" k3="1"/>
<feColorMatrix type="matrix" values="0 0 0 0 0.975 0 0 0 0 0.975 0 0 0 0 0.975 0 0 0 1 0"/>
<feBlend mode="normal" in2="shape" result="effect2_innerShadow_1343_17824"/>
</filter>
<linearGradient id="paint0_linear_1343_17824" x1="69.5884" y1="42.2843" x2="165.285" y2="168.107" gradientUnits="userSpaceOnUse">
<stop stop-color="#FFC500"/>
<stop offset="0.1046" stop-color="#FFB811"/>
<stop offset="0.3109" stop-color="#FF963C"/>
<stop offset="0.5993" stop-color="#FF6082"/>
<stop offset="0.9555" stop-color="#FF16E2"/>
<stop offset="1" stop-color="#FF0CEE"/>
</linearGradient>
<linearGradient id="paint1_linear_1343_17824" x1="55.5747" y1="19.9629" x2="55.5747" y2="27.9482" gradientUnits="userSpaceOnUse">
<stop stop-color="#4289FF"/>
<stop offset="1" stop-color="#01FDD6"/>
</linearGradient>
<linearGradient id="paint2_linear_1343_17824" x1="148.021" y1="200.854" x2="152.775" y2="208.606" gradientUnits="userSpaceOnUse">
<stop stop-color="#FFCC3E"/>
<stop offset="1" stop-color="#F79C41"/>
</linearGradient>
<linearGradient id="paint3_linear_1343_17824" x1="17.951" y1="73.5036" x2="13.1113" y2="73.3399" gradientUnits="userSpaceOnUse">
<stop stop-color="#FF3E6C"/>
<stop offset="1" stop-color="#FC5E51"/>
</linearGradient>
<linearGradient id="paint4_linear_1343_17824" x1="32.6184" y1="74.5907" x2="21.999" y2="59.9393" gradientUnits="userSpaceOnUse">
<stop stop-color="#FF3E6C"/>
<stop offset="1" stop-color="#FC5E51"/>
</linearGradient>
</defs>
</svg>
