<svg width="20" height="20" viewBox="0 0 20 20" fill="none" xmlns="http://www.w3.org/2000/svg">
<path d="M14.4993 18.3328C11.0971 18.3284 7.83544 16.9749 5.42968 14.5691C3.02392 12.1633 1.67043 8.9017 1.66602 5.49944C1.66602 4.48278 2.06988 3.50776 2.78877 2.78887C3.50766 2.06998 4.48269 1.66611 5.49935 1.66611C5.71463 1.66447 5.92956 1.68401 6.14102 1.72444C6.34544 1.75469 6.5464 1.80494 6.74102 1.87444C6.87789 1.92247 6.99986 2.00539 7.09486 2.115C7.18986 2.22462 7.2546 2.35713 7.28268 2.49944L8.42435 7.49944C8.45512 7.63516 8.45142 7.77643 8.41357 7.91035C8.37572 8.04427 8.30494 8.16657 8.20768 8.26611C8.09935 8.38278 8.09102 8.39111 7.06602 8.92444C7.88684 10.7252 9.32701 12.1712 11.1243 12.9994C11.666 11.9661 11.6743 11.9578 11.791 11.8494C11.8906 11.7522 12.0129 11.6814 12.1468 11.6436C12.2807 11.6057 12.422 11.602 12.5577 11.6328L17.5577 12.7744C17.6954 12.8064 17.8228 12.8729 17.9278 12.9677C18.0327 13.0624 18.1118 13.1823 18.1577 13.3161C18.228 13.5139 18.281 13.7175 18.316 13.9244C18.3496 14.1339 18.3663 14.3457 18.366 14.5578C18.3507 15.5701 17.9354 16.5352 17.211 17.2425C16.4866 17.9497 15.5117 18.3417 14.4993 18.3328Z" fill="white"/>
</svg>
