<svg width="29" height="32" viewBox="0 0 29 32" fill="none" xmlns="http://www.w3.org/2000/svg">
<path d="M0.25 2.21192C0.25 1.56259 0.406448 1.08053 0.655552 0.755722L15.5911 15.6836V15.8155L0.66413 30.7439C0.408786 30.4333 0.25 29.9539 0.25 29.2994V2.21192Z" fill="white" stroke="#FF136F" stroke-width="0.5"/>
<path d="M26.863 14.2033L26.8638 14.2038C27.6747 14.6606 28.0218 15.231 28.0218 15.7501C28.0218 16.2697 27.6742 16.8433 26.8629 17.3062C26.8628 17.3063 26.8627 17.3063 26.8627 17.3063L20.9287 20.6793L16.0781 15.8284V15.6811L20.9287 10.8301L26.863 14.2033Z" fill="white" stroke="#FF136F" stroke-width="0.5"/>
<path d="M0.922645 31.0147L15.8285 16.1075L20.5912 20.8707L2.98143 30.8892C2.98109 30.8894 2.98075 30.8896 2.9804 30.8898C2.11067 31.3738 1.39035 31.3527 0.922645 31.0147Z" fill="white" stroke="#FF136F" stroke-width="0.5"/>
<path d="M20.5911 10.6377L15.8284 15.4008L0.922043 0.508015C1.38927 0.166748 2.11206 0.137411 2.97902 0.632864L2.97958 0.633182L20.5911 10.6377Z" fill="white" stroke="#FF136F" stroke-width="0.5"/>
</svg>
