<svg width="191" height="88" viewBox="0 0 191 88" fill="none" xmlns="http://www.w3.org/2000/svg">
<g style="mix-blend-mode:soft-light">
<path d="M175.494 0.400708C176.734 1.64081 105.22 80.2391 102.579 82.8803C101.951 83.5083 101.205 84.0065 100.384 84.3464C99.5639 84.6863 98.6845 84.8612 97.7963 84.8612C96.9082 84.8612 96.0287 84.6863 95.2082 84.3464C94.3877 84.0065 93.6421 83.5083 93.0141 82.8803C92.3861 82.2523 91.8879 81.5067 91.548 80.6862C91.2081 79.8657 91.0332 78.9862 91.0332 78.0981C91.0332 77.2099 91.2081 76.3305 91.548 75.5099C91.8879 74.6894 92.3861 73.9438 93.0141 73.3158C95.6553 70.6747 174.254 -0.839392 175.494 0.400708Z" fill="#8989CE"/>
</g>
<path d="M144.869 30.496C145.625 31.2521 102.021 79.1757 100.411 80.7861C99.6373 81.5595 98.5884 81.9939 97.4948 81.9939C96.4011 81.9939 95.3522 81.5595 94.5789 80.7861C93.8056 80.0128 93.3711 78.9639 93.3711 77.8703C93.3711 76.7766 93.8056 75.7278 94.5789 74.9545C96.1893 73.3441 144.113 29.7399 144.869 30.496Z" fill="url(#paint0_linear_1343_18053)"/>
<g style="mix-blend-mode:soft-light">
<path d="M180.855 20.0764C181.328 20.5497 154.034 50.5475 153.026 51.5555C152.542 52.0382 151.886 52.309 151.202 52.3084C150.518 52.3078 149.863 52.0359 149.379 51.5523C148.896 51.0688 148.624 50.4132 148.623 49.7294C148.622 49.0456 148.893 48.3895 149.376 47.9051C150.384 46.8971 180.382 19.6031 180.855 20.0764Z" fill="#8989CE"/>
</g>
<path d="M169.166 31.5623C169.455 31.8509 152.813 50.1413 152.198 50.756C151.903 51.0511 151.503 51.2169 151.086 51.2169C150.668 51.2169 150.268 51.0511 149.973 50.756C149.678 50.4608 149.512 50.0605 149.512 49.6431C149.512 49.2257 149.678 48.8253 149.973 48.5302C150.587 47.9156 168.878 31.2737 169.166 31.5623Z" fill="url(#paint1_linear_1343_18053)"/>
<path d="M65.0466 51.5491H63.5025V50.005C63.5025 49.8777 63.4775 49.7516 63.4287 49.6339C63.38 49.5162 63.3085 49.4093 63.2184 49.3192C63.1284 49.2291 63.0215 49.1577 62.9038 49.1089C62.7861 49.0602 62.66 49.0351 62.5326 49.0352C62.4053 49.0352 62.2791 49.0602 62.1615 49.109C62.0438 49.1577 61.9369 49.2292 61.8468 49.3192C61.7568 49.4093 61.6854 49.5162 61.6366 49.6339C61.5879 49.7516 61.5628 49.8777 61.5628 50.005V51.5491H60.0187C59.8913 51.5491 59.7653 51.5742 59.6476 51.623C59.5299 51.6717 59.423 51.7431 59.3329 51.8332C59.2429 51.9232 59.1714 52.0301 59.1227 52.1478C59.0739 52.2655 59.0488 52.3916 59.0488 52.519V52.519C59.0488 52.6463 59.0739 52.7724 59.1227 52.8901C59.1714 53.0077 59.2429 53.1147 59.3329 53.2047C59.423 53.2948 59.5299 53.3662 59.6476 53.4149C59.7653 53.4637 59.8913 53.4887 60.0187 53.4887H61.5628V55.033C61.5628 55.2902 61.665 55.5368 61.8469 55.7187C62.0287 55.9006 62.2754 56.0027 62.5326 56.0027V56.0027C62.66 56.0028 62.7861 55.9777 62.9038 55.929C63.0214 55.8802 63.1284 55.8088 63.2184 55.7187C63.3085 55.6287 63.3799 55.5217 63.4287 55.4041C63.4774 55.2864 63.5025 55.1603 63.5025 55.033V53.4887H65.0466C65.3038 53.4887 65.5505 53.3866 65.7324 53.2047C65.9142 53.0228 66.0164 52.7762 66.0164 52.519V52.519C66.0164 52.2617 65.9142 52.0151 65.7324 51.8332C65.5505 51.6513 65.3038 51.5491 65.0466 51.5491V51.5491Z" fill="#49B8F6"/>
<path d="M166.115 80.8908H164.571V79.3467C164.571 79.0895 164.469 78.8429 164.287 78.661C164.105 78.4791 163.858 78.377 163.601 78.377V78.377C163.344 78.377 163.097 78.4791 162.915 78.661C162.733 78.8429 162.631 79.0895 162.631 79.3467V80.8908H161.087C160.83 80.8908 160.583 80.993 160.401 81.1749C160.219 81.3568 160.117 81.6035 160.117 81.8607V81.8607C160.117 81.988 160.142 82.1141 160.191 82.2318C160.24 82.3495 160.311 82.4564 160.401 82.5464C160.491 82.6365 160.598 82.708 160.716 82.7567C160.834 82.8055 160.96 82.8305 161.087 82.8305H162.631V84.3746C162.631 84.6319 162.733 84.8785 162.915 85.0604C163.097 85.2423 163.344 85.3445 163.601 85.3445C163.858 85.3445 164.105 85.2423 164.287 85.0604C164.469 84.8785 164.571 84.6318 164.571 84.3746V82.8305H166.115C166.242 82.8305 166.368 82.8055 166.486 82.7567C166.604 82.708 166.711 82.6365 166.801 82.5464C166.891 82.4564 166.962 82.3495 167.011 82.2318C167.06 82.1141 167.085 81.988 167.085 81.8607V81.8607C167.085 81.6034 166.983 81.3568 166.801 81.1749C166.619 80.993 166.372 80.8908 166.115 80.8908V80.8908Z" fill="#49B8F6"/>
<g style="mix-blend-mode:soft-light" opacity="0.45">
<path d="M10.3985 85.293C10.3985 85.7291 10.2692 86.1555 10.0269 86.5181C9.78457 86.8807 9.44017 87.1634 9.03724 87.3303C8.63431 87.4972 8.19094 87.5408 7.7632 87.4557C7.33545 87.3706 6.94253 87.1606 6.63414 86.8522C6.32575 86.5438 6.11574 86.151 6.03065 85.7232C5.94557 85.2955 5.98924 84.8521 6.15614 84.4492C6.32304 84.0462 6.60568 83.7018 6.9683 83.4595C7.33093 83.2172 7.75727 83.0879 8.1934 83.0879C8.77823 83.0879 9.3391 83.3202 9.75264 83.7338C10.1662 84.1473 10.3985 84.7082 10.3985 85.293V85.293Z" fill="white"/>
</g>
<g style="mix-blend-mode:soft-light" opacity="0.45">
<path d="M31.2807 55.4715C33.3104 55.4715 34.9559 53.8261 34.9559 51.7963C34.9559 49.7665 33.3104 48.1211 31.2807 48.1211C29.2509 48.1211 27.6055 49.7665 27.6055 51.7963C27.6055 53.8261 29.2509 55.4715 31.2807 55.4715Z" fill="white"/>
</g>
<g style="mix-blend-mode:soft-light" opacity="0.45">
<path d="M18.8594 36.9278C20.0772 36.9278 21.0645 35.9405 21.0645 34.7227C21.0645 33.5048 20.0772 32.5176 18.8594 32.5176C17.6416 32.5176 16.6543 33.5048 16.6543 34.7227C16.6543 35.9405 17.6416 36.9278 18.8594 36.9278Z" fill="white"/>
</g>
<g style="mix-blend-mode:soft-light" opacity="0.45">
<path d="M186.939 35.2332C188.969 35.2332 190.614 33.5878 190.614 31.558C190.614 29.5283 188.969 27.8828 186.939 27.8828C184.909 27.8828 183.264 29.5283 183.264 31.558C183.264 33.5878 184.909 35.2332 186.939 35.2332Z" fill="white"/>
</g>
<g style="mix-blend-mode:soft-light" opacity="0.45">
<path d="M186.939 65.8829C188.157 65.8829 189.145 64.8956 189.145 63.6778C189.145 62.4599 188.157 61.4727 186.939 61.4727C185.722 61.4727 184.734 62.4599 184.734 63.6778C184.734 64.8956 185.722 65.8829 186.939 65.8829Z" fill="white"/>
</g>
<path d="M3.39853 58.342C4.98425 58.342 6.26974 57.0565 6.26974 55.4708C6.26974 53.8851 4.98425 52.5996 3.39853 52.5996C1.81281 52.5996 0.527344 53.8851 0.527344 55.4708C0.527344 57.0565 1.81281 58.342 3.39853 58.342Z" stroke="url(#paint2_linear_1343_18053)" stroke-width="0.5" stroke-miterlimit="10"/>
<defs>
<linearGradient id="paint0_linear_1343_18053" x1="87548.8" y1="-165512" x2="91212.1" y2="-165512" gradientUnits="userSpaceOnUse">
<stop stop-color="#F3AF2D"/>
<stop offset="0.00876" stop-color="#F3AD2F"/>
<stop offset="0.2403" stop-color="#F67F5C"/>
<stop offset="0.46184" stop-color="#F85B7F"/>
<stop offset="0.6682" stop-color="#FA4198"/>
<stop offset="0.85358" stop-color="#FB31A8"/>
<stop offset="1" stop-color="#FB2CAD"/>
</linearGradient>
<linearGradient id="paint1_linear_1343_18053" x1="34715.3" y1="-62796.8" x2="35248.9" y2="-62796.8" gradientUnits="userSpaceOnUse">
<stop stop-color="#F3AF2D"/>
<stop offset="0.00876" stop-color="#F3AD2F"/>
<stop offset="0.2403" stop-color="#F67F5C"/>
<stop offset="0.46184" stop-color="#F85B7F"/>
<stop offset="0.6682" stop-color="#FA4198"/>
<stop offset="0.85358" stop-color="#FB31A8"/>
<stop offset="1" stop-color="#FB2CAD"/>
</linearGradient>
<linearGradient id="paint2_linear_1343_18053" x1="1462.11" y1="1860.26" x2="1497.96" y2="1860.26" gradientUnits="userSpaceOnUse">
<stop stop-color="#F3AF2D"/>
<stop offset="0.00876" stop-color="#F3AD2F"/>
<stop offset="0.2403" stop-color="#F67F5C"/>
<stop offset="0.46184" stop-color="#F85B7F"/>
<stop offset="0.6682" stop-color="#FA4198"/>
<stop offset="0.85358" stop-color="#FB31A8"/>
<stop offset="1" stop-color="#FB2CAD"/>
</linearGradient>
</defs>
</svg>
