<svg width="61" height="100" viewBox="0 0 61 100" fill="none" xmlns="http://www.w3.org/2000/svg">
<g clip-path="url(#clip0_1343_18073)">
<path d="M34.0438 57.4417C33.8468 57.4417 33.6875 57.2799 33.6875 57.0798V30.1874C33.6875 29.9874 33.8468 29.8256 34.0438 29.8256C34.2407 29.8256 34.4001 29.9874 34.4001 30.1874V57.0798C34.403 57.2799 34.2407 57.4417 34.0438 57.4417Z" fill="#371A45"/>
<path d="M18.5103 68.4093C18.5103 68.4093 9.73106 70.7334 9.41824 74.2314C9.14597 77.2823 12.4364 87.5673 14.3712 88.6971C15.7818 89.5208 20.0338 88.0086 20.0338 88.0086L18.5103 68.4093Z" fill="white"/>
<g opacity="0.35">
<g opacity="0.35">
<path opacity="0.35" d="M9.40234 74.8022C9.50372 78.3914 12.5421 87.6291 14.3698 88.6971C15.7804 89.5208 20.0324 88.0087 20.0324 88.0087L19.3576 84.0076C19.3576 84.0076 15.1055 85.5198 13.6949 84.696C12.3741 83.9252 10.4219 78.8916 9.40234 74.8022Z" fill="#371A45"/>
</g>
</g>
<path d="M16.1222 89.2795C15.2099 89.2795 14.2917 89.0794 13.5328 88.5087C11.4299 86.9318 8.80572 77.3146 8.9853 74.2049C9.15619 71.2335 14.5205 69.4036 14.7493 69.3272C14.9781 69.2507 15.2214 69.3772 15.2967 69.6096C15.3721 69.842 15.2475 70.0891 15.0216 70.1656C13.6226 70.6363 9.96431 72.2868 9.85135 74.2579C9.68046 77.2351 12.3597 86.5317 14.0484 87.7997C16.1049 89.3413 19.9022 87.429 19.9398 87.4113C20.1542 87.3025 20.4148 87.3878 20.522 87.6085C20.6292 87.8262 20.5423 88.0909 20.3279 88.1998C20.2092 88.2616 18.1816 89.2795 16.1222 89.2795Z" fill="#371A45"/>
<path d="M28.6144 69.5451C28.6144 69.5451 28.2321 72.6989 29.5789 70.5365C30.807 68.5596 32.3364 65.2646 33.689 59.8925C33.7006 59.8484 33.7122 59.8043 33.7238 59.7602C33.7238 59.7602 34.3321 59.7072 35.0765 59.3277C36.8346 58.4363 36.4581 54.9559 36.1192 53.7733C35.7195 52.3788 34.7752 52.7554 34.7752 52.7554C34.445 52.2052 33.7904 51.911 32.6897 51.9287C30.6217 51.9581 30.2017 53.6585 30.2017 53.6585C28.3074 59.4513 25.9989 63.0228 24.623 64.7997C23.896 65.7441 23.4297 66.1825 23.4297 66.1825L28.6144 69.5451Z" fill="white"/>
<g opacity="0.35">
<g opacity="0.35">
<path opacity="0.35" d="M28.6153 69.545C28.6153 69.545 28.233 72.6988 29.5799 70.5365C30.808 68.5595 32.3373 65.2645 33.69 59.8925C33.2381 59.7807 32.5719 59.5689 32.2186 59.2511C31.338 58.4509 31.1787 56.6122 31.1787 56.6122C30.8138 58.3862 31.1787 59.4247 31.6045 60.0102C32.0622 60.6398 32.2012 61.4517 31.9347 62.1872C31.5466 63.2552 31.0571 64.4143 30.2808 65.1645C28.4995 66.8855 26.0201 66.1147 24.6211 64.7967C23.8941 65.7411 23.4277 66.1795 23.4277 66.1795L28.6153 69.545Z" fill="#371A45"/>
</g>
</g>
<g opacity="0.35">
<g opacity="0.35">
<path opacity="0.35" d="M34.3356 59.6248C34.3356 59.6248 32.7309 60.222 31.6621 57.7567C31.6621 57.7567 32.2791 58.0685 33.8026 57.9891C35.3146 57.9096 36.3399 56.4504 36.3399 56.4504C36.3399 56.4504 36.4442 59.107 34.3356 59.6248Z" fill="#371A45"/>
</g>
</g>
<path d="M23.6501 66.2294C23.5255 66.2294 23.401 66.1764 23.3141 66.0735C23.1519 65.8852 23.1693 65.5969 23.3546 65.4321C23.4068 65.3851 26.9579 62.1165 29.7704 53.529C29.9557 52.82 30.7899 51.502 32.6813 51.4755C33.7501 51.4608 34.4974 51.7138 34.9638 52.2551C35.4533 52.82 35.601 53.6408 35.4272 54.8411C35.2563 56.0238 34.4685 56.8534 33.5937 56.7681C32.7914 56.6916 31.9659 55.806 32.0586 53.5555C32.0702 53.3054 32.2758 53.1112 32.5249 53.12C32.7711 53.1318 32.9652 53.3436 32.9536 53.5937C32.8899 55.1 33.2838 55.8266 33.6777 55.8619C34.0108 55.8914 34.4337 55.4618 34.5409 54.7087C34.6712 53.8055 34.5872 53.1995 34.2889 52.8553C34.0108 52.5317 33.4721 52.3728 32.6929 52.3846C30.9898 52.411 30.6364 53.7555 30.6306 53.7702L30.6219 53.8026C27.7168 62.6843 24.0932 65.9823 23.9426 66.1176C23.8586 66.1911 23.7544 66.2294 23.6501 66.2294Z" fill="#371A45"/>
<path d="M27.2459 73.7373C27.0924 73.7373 26.9418 73.6549 26.8578 73.5108C26.7333 73.2931 26.8057 73.0165 27.02 72.89C27.0519 72.8694 30.5537 70.6129 33.288 59.6482L33.3662 59.3364L33.6819 59.307C33.6848 59.307 34.2236 59.2511 34.8753 58.9216C36.2772 58.2096 36.0281 55.0853 35.6892 53.9026C35.5878 53.5466 35.4401 53.3113 35.2605 53.2171C35.0954 53.1289 34.9361 53.1848 34.9274 53.1848C34.6986 53.276 34.4408 53.1583 34.351 52.9259C34.2612 52.6935 34.38 52.4257 34.6088 52.3345C34.661 52.3139 35.1331 52.1404 35.6458 52.3934C36.0657 52.6023 36.3699 53.0259 36.5495 53.6466C36.9752 55.1353 37.2504 58.7333 35.2779 59.7336C34.7971 59.9777 34.3626 60.1013 34.0845 60.1601C31.246 71.3396 27.6254 73.5872 27.4719 73.6784C27.3995 73.7167 27.3212 73.7373 27.2459 73.7373Z" fill="#371A45"/>
<path d="M33.4113 60.222C32.8493 60.222 32.3801 60.0396 32.0123 59.6748C31.3026 58.9717 31.0419 57.6478 31.236 55.7355C31.4243 53.8703 32.2498 53.5761 32.412 53.5349L32.6147 54.394C32.6147 54.394 32.6263 54.394 32.6466 54.3852C32.6437 54.3881 32.2237 54.5852 32.0991 55.8267C31.9398 57.4095 32.1223 58.551 32.6176 59.0423C32.8667 59.2894 33.2085 59.3806 33.6661 59.3218C33.9037 59.2924 34.1209 59.463 34.1527 59.7043C34.1817 59.9455 34.0137 60.1661 33.7762 60.1985C33.6517 60.2132 33.5271 60.222 33.4113 60.222Z" fill="#371A45"/>
<path d="M15.0918 78.8357C15.3032 79.2799 15.4625 79.7418 15.5958 80.2125C16.0158 81.6805 16.1838 83.2456 16.8442 84.7313C17.0093 85.0991 17.2062 85.4168 17.4148 85.6845C17.4785 85.7698 17.5422 85.8463 17.6088 85.9228C18.0955 86.4847 18.5531 86.7642 18.5531 86.7642C18.556 86.9113 18.5676 87.0967 18.5734 87.3202C18.6023 88.2352 18.5908 89.765 17.9419 91.6773C17.8956 91.8185 17.8435 91.9626 17.7884 92.1039C17.354 93.2512 17.6175 96.9669 18.0926 97.8142C19.4626 100.259 22.892 99.8883 23.8681 98.2172C24.7516 96.7021 24.3808 93.7661 24.2157 92.7334C24.1781 92.4981 24.1491 92.3627 24.1491 92.3627C25.0557 90.4387 25.832 87.8527 25.832 85.9169C25.832 85.9169 26.0753 85.9581 26.4055 85.9611V86.0258C26.5358 87.2232 26.3157 89.2708 25.887 91.1389C25.8407 91.3448 25.7885 91.5508 25.7364 91.7508C25.4844 92.7217 25.9536 95.7901 27.2165 97.314C28.6792 99.0851 31.8856 98.4643 32.5286 97.1434C33.302 95.5577 32.2911 92.8952 31.903 91.9862C31.8161 91.7861 31.7611 91.6714 31.7611 91.6714C33.3744 87.791 33.47 84.4724 33.1832 81.1186C32.7314 75.8613 30.672 71.722 28.5576 68.8742C28.4243 68.6948 28.2853 68.5212 28.1434 68.3476C27.9638 68.1299 27.7784 67.9181 27.5959 67.7151C27.2715 67.3591 26.9558 67.0267 26.6864 66.7354L26.3186 67.0531L25.719 67.1944L15.7696 69.5479L15.6827 70.7335L15.645 71.266L15.561 72.4075L15.3525 75.2759L15.2279 76.994L15.1237 78.4032L15.0918 78.8357Z" fill="white"/>
<g opacity="0.35">
<g opacity="0.35">
<path opacity="0.35" d="M27.216 97.3142C28.6787 99.0853 31.8851 98.4675 32.5281 97.1436C33.3015 95.5579 32.2906 92.8954 31.9025 91.9863C31.8533 92.0099 31.8301 92.0187 31.8301 92.0187C31.8301 92.0187 33.2928 94.7694 31.6998 96.2433C30.4427 97.4054 28.4151 97.0377 27.5839 95.4931C26.5701 93.6073 26.4397 90.2212 26.4397 90.2212L25.8894 91.1361C25.8402 91.342 25.7909 91.548 25.7388 91.751C25.4839 92.7218 25.9531 95.7903 27.216 97.3142Z" fill="#371A45"/>
</g>
</g>
<g opacity="0.3">
<g opacity="0.3">
<path opacity="0.3" d="M21.7266 93.3307L21.8019 93.3131C21.7671 93.319 21.741 93.3248 21.7266 93.3307Z" fill="#293856"/>
</g>
</g>
<g opacity="0.3">
<g opacity="0.3">
<path opacity="0.3" d="M21.7129 93.3366L21.7272 93.3337C21.7186 93.3337 21.7129 93.3366 21.7129 93.3366Z" fill="#293856"/>
</g>
</g>
<g opacity="0.35">
<g opacity="0.35">
<path opacity="0.35" d="M18.0924 97.8143C19.4624 100.259 22.8919 99.8884 23.868 98.2203C24.7514 96.7052 24.3807 93.7691 24.2156 92.7335L21.8115 93.3131C22.1417 93.2484 23.2134 93.1836 23.28 95.0106C23.3234 96.208 23.1352 97.5436 21.5566 97.7554C17.684 98.2732 17.9736 94.2957 18.1474 92.0392C18.1822 91.5891 18.0982 91.5126 17.9418 91.6774C17.8954 91.8186 17.8433 91.9598 17.7883 92.1069C17.3509 93.2513 17.6174 96.967 18.0924 97.8143Z" fill="#371A45"/>
</g>
</g>
<g opacity="0.35">
<g opacity="0.35">
<path opacity="0.35" d="M24.8444 91.2685C24.8444 91.2685 23.958 93.1101 21.6466 93.4867C21.4207 93.522 21.3193 93.2131 21.5192 93.1043C22.42 92.6159 23.7321 91.3803 24.0913 89.6945C24.3983 88.25 24.2708 86.8379 24.0971 85.87C23.9812 85.2198 24.4504 84.6138 25.1021 84.5844C26.2723 84.5314 27.9668 84.3931 29.079 84.0519C29.8263 83.8224 30.5997 83.5047 31.2572 82.928C31.5236 82.6927 31.9378 82.8692 31.961 83.2281C31.9813 83.5782 31.9552 83.9371 31.7901 84.1195C31.1645 84.8079 28.2274 85.667 25.8292 86.1759C25.8292 86.1759 25.7828 87.2821 25.4323 88.759C25.0384 90.4212 24.8444 91.2685 24.8444 91.2685Z" fill="#371A45"/>
</g>
</g>
<g opacity="0.35">
<g opacity="0.35">
<path opacity="0.35" d="M26.4061 86.0259C26.4061 86.0259 29.8732 85.4698 31.5561 83.8223C31.5561 83.8223 31.391 85.9317 28.396 87.591C27.0578 88.3323 26.4553 89.2649 26.0527 90.5506C26.0527 90.5476 26.6233 87.6528 26.4061 86.0259Z" fill="#371A45"/>
</g>
</g>
<path d="M29.7788 98.8498C28.6028 98.8498 27.5456 98.4026 26.8823 97.5994C25.5123 95.9431 25.0401 92.6981 25.3153 91.639C25.8309 89.662 26.1089 87.3202 25.9728 86.0728C25.9467 85.8316 26.1176 85.6139 26.358 85.5874C26.5985 85.5609 26.8099 85.7375 26.836 85.9787C26.9837 87.3438 26.7027 89.765 26.1553 91.8656C25.9496 92.654 26.3436 95.5783 27.5485 97.0316C28.1307 97.7348 29.1416 98.0731 30.2538 97.9377C31.1315 97.8318 31.9077 97.4229 32.1394 96.9492C32.8346 95.5253 31.8208 92.7982 31.3719 91.8685L31.285 91.689L31.3632 91.5037C33.0229 87.5203 33.0113 84.1782 32.7535 81.1627C32.3972 76.9999 31.311 73.6755 29.3385 70.6982C29.2053 70.4952 29.2574 70.2216 29.4573 70.0863C29.6571 69.9509 29.9265 70.0039 30.0598 70.2069C32.1163 73.3136 33.2488 76.7704 33.6166 81.0892C33.8802 84.1723 33.8947 87.588 32.2379 91.6684C32.5884 92.451 33.8281 95.4842 32.9186 97.3464C32.5478 98.1084 31.5659 98.6703 30.3581 98.8174C30.1611 98.838 29.97 98.8498 29.7788 98.8498Z" fill="#371A45"/>
<path d="M28.0675 68.1652C28.2876 68.3005 28.4875 68.4505 28.6845 68.6035C28.8785 68.7594 29.0697 68.9212 29.2493 69.0919C29.4318 69.2625 29.6113 69.4361 29.7677 69.6303C29.9271 69.8244 30.0719 70.0274 30.179 70.2657C30.2804 70.4893 30.1848 70.757 29.9647 70.86C29.7938 70.9394 29.5997 70.9012 29.4723 70.7747L29.4665 70.7688C29.2985 70.6011 29.1566 70.4128 29.0176 70.2128C28.8814 70.0157 28.7598 69.8038 28.6381 69.592C28.5165 69.3802 28.3977 69.1625 28.2847 68.9389C28.1718 68.7153 28.0617 68.4888 27.9719 68.2446C27.9574 68.2093 27.9748 68.171 28.0096 68.1593C28.0298 68.1534 28.0501 68.1563 28.0675 68.1652Z" fill="#371A45"/>
<path d="M16.002 78.1179L16.338 79.0652L16.3119 78.6298C16.2279 78.4562 16.1294 78.2826 16.002 78.1179Z" fill="white"/>
<path d="M21.1426 100C21.1282 100 21.1166 100 21.1021 100C19.6423 99.9854 18.4084 99.2705 17.7161 98.0319C17.186 97.0876 16.8964 93.2307 17.3859 91.945C18.2346 89.7091 18.1679 87.991 18.1332 87.0643C18.1332 87.0437 18.1303 87.0231 18.1303 87.0025C17.7566 86.7231 16.9514 86.0317 16.4532 84.9138C15.984 83.8547 15.8015 82.6426 15.6248 81.4687C15.4337 80.1978 15.2541 78.9975 14.7327 78.1914C14.6024 77.9884 14.6574 77.7148 14.8573 77.5795C15.0571 77.4471 15.3265 77.503 15.4597 77.706C16.0854 78.6739 16.2794 79.9654 16.4851 81.3363C16.6531 82.4513 16.824 83.6016 17.2469 84.549C17.7827 85.7552 18.7733 86.3818 18.7849 86.3877L18.9877 86.5142L18.9934 86.7554C18.9963 86.8349 18.9992 86.9261 19.0021 87.029C19.0369 87.9469 19.1122 89.8562 18.1969 92.2628C17.8088 93.2836 18.0637 96.864 18.4721 97.5965C19.0079 98.5527 19.9696 99.1057 21.1108 99.1175C22.1448 99.1293 23.0978 98.6762 23.4946 97.9937C24.4823 96.305 23.7321 92.4893 23.7234 92.451L23.6944 92.3069L23.7582 92.1745C24.7575 90.0504 25.331 87.8645 25.331 86.1759C25.331 85.9317 25.525 85.7346 25.7654 85.7346C26.0058 85.7346 26.1999 85.9317 26.1999 86.1759C26.1999 87.9557 25.6177 90.2269 24.601 92.4246C24.7401 93.1895 25.2875 96.6551 24.239 98.4467C23.6858 99.3911 22.4721 100 21.1426 100Z" fill="#371A45"/>
<path d="M25.6238 85.6788C25.87 85.6023 26.1162 85.5375 26.3624 85.4758C26.6086 85.4081 26.8548 85.3463 27.101 85.2845C27.5934 85.1521 28.0887 85.0374 28.5753 84.8903C29.0648 84.7491 29.5515 84.5932 30.0294 84.4137C30.5044 84.2343 30.9852 84.0372 31.4255 83.7812L31.4284 83.7783C31.4545 83.7636 31.4863 83.7724 31.4979 83.7989C31.5095 83.8195 31.5066 83.8459 31.4892 83.8606C31.3009 84.0578 31.0895 84.2166 30.8752 84.3755C30.6608 84.5343 30.4349 84.6726 30.209 84.8109C29.7513 85.0786 29.2763 85.311 28.7897 85.5169C28.3031 85.7258 27.8078 85.9053 27.3038 86.0553C27.0518 86.1289 26.7969 86.1936 26.542 86.2554C26.2842 86.3113 26.0264 86.3613 25.7686 86.3995C25.5717 86.4289 25.3863 86.2907 25.3573 86.0877C25.3313 85.9053 25.4413 85.7346 25.6093 85.6817L25.6238 85.6788Z" fill="#371A45"/>
<path d="M34.4888 71.322C34.173 71.322 33.9674 71.2749 33.9587 71.2749C33.7646 71.2279 33.643 71.0308 33.6893 70.8336C33.7357 70.6365 33.9297 70.513 34.1238 70.56C34.2136 70.5806 36.3425 71.0308 37.2143 68.1094C37.7328 66.3707 36.5453 64.7732 35.3954 63.2287C34.5119 62.0431 33.6777 60.9222 33.6777 59.7777C33.6777 59.5748 33.8399 59.41 34.0398 59.41C34.2397 59.41 34.4019 59.5748 34.4019 59.7777C34.4019 60.675 35.1636 61.6989 35.9718 62.7844C37.1709 64.3966 38.5322 66.2236 37.9066 68.3212C37.1217 70.966 35.3722 71.322 34.4888 71.322Z" fill="#371A45"/>
<path d="M31.2024 80.0801C30.7274 80.336 30.1886 80.6096 29.6035 80.8921C29.9627 80.7509 30.2929 80.6126 30.5854 80.489C30.8171 80.389 31.0257 80.2507 31.2024 80.0801Z" fill="white"/>
<path d="M21.5672 93.2835C21.8511 93.2041 22.1262 93.0953 22.3811 92.9688C22.636 92.8423 22.8764 92.6952 23.0908 92.5245C23.308 92.3568 23.5021 92.1686 23.6816 91.9715C23.7251 91.9185 23.7772 91.8773 23.8149 91.8214C23.8554 91.7685 23.8989 91.7184 23.9452 91.6684C24.0321 91.5655 24.1074 91.4537 24.203 91.3537L24.2378 91.3184C24.3768 91.1713 24.6056 91.1683 24.7504 91.3095C24.8663 91.4243 24.8895 91.5978 24.8229 91.739C24.678 92.0362 24.4811 92.3098 24.2378 92.5363C24.0031 92.7717 23.7164 92.9511 23.4267 93.0953C23.1342 93.2394 22.8243 93.3365 22.5086 93.3894C22.1957 93.4395 21.88 93.4512 21.5672 93.3924C21.5382 93.3865 21.5209 93.36 21.5238 93.3306C21.5266 93.31 21.5411 93.2953 21.5614 93.2894L21.5672 93.2835Z" fill="#371A45"/>
<path d="M29.485 92.7805C30.0093 92.5334 30.4785 92.2127 30.8579 91.8303C31.0491 91.642 31.2171 91.4361 31.3677 91.2243C31.527 91.0183 31.6516 90.7888 31.808 90.5682L31.8282 90.5417C31.9441 90.377 32.17 90.3358 32.3351 90.4564C32.4713 90.5535 32.5205 90.73 32.4655 90.883C32.3554 91.186 32.1961 91.4773 31.9847 91.7244C31.7819 91.9803 31.527 92.1863 31.2605 92.3598C30.9941 92.5334 30.7073 92.6658 30.4119 92.757C30.1164 92.8453 29.8123 92.9012 29.5053 92.8894C29.4763 92.8894 29.4531 92.8629 29.4531 92.8335C29.4531 92.8129 29.4647 92.7952 29.4821 92.7864L29.485 92.7805Z" fill="#371A45"/>
<path d="M11.3199 91.2154C12.128 91.4537 15.6241 92.1686 15.5285 88.8295C15.5082 88.1234 15.2823 86.9878 15.2997 86.9849C15.3141 86.9849 17.1563 87.9498 17.6777 86.9319C17.8659 86.5642 17.808 86.2229 17.6081 85.9228C17.5531 85.8405 17.4894 85.761 17.4141 85.6845C16.7798 85.0285 15.514 84.6048 14.9752 84.5342C14.9752 84.5342 14.9781 84.4901 14.9868 84.4048C15.0332 83.89 15.2301 81.9188 15.5951 80.2125C15.7921 79.2917 16.0383 78.4473 16.3337 77.9502L16.0759 76.1144L15.9572 75.2553L15.5603 72.4163L15.3605 70.9865C15.3141 70.9865 12.2352 71.0013 11.0505 74.5904C11.0476 74.5963 11.0476 74.6052 11.0447 74.611C10.3351 76.7793 10.196 80.7832 10.5349 86.2288C10.6276 87.7645 9.61095 90.7123 11.3199 91.2154Z" fill="white"/>
<g opacity="0.35">
<g opacity="0.35">
<path opacity="0.35" d="M14.5247 84.949C14.6666 85.0519 14.8288 84.8019 14.991 84.4047C15.0374 83.8899 15.2343 81.9188 15.5993 80.2124C16.0193 81.6805 16.1873 83.2456 16.8477 84.7313C17.0128 85.099 17.2097 85.4168 17.4183 85.6845C17.482 85.7698 17.5457 85.8463 17.6123 85.9228C18.099 86.4847 18.5566 86.7642 18.5566 86.7642C18.5595 86.9113 18.5711 87.0966 18.5769 87.3202L19.078 87.2614C19.078 87.2614 19.1185 86.2905 18.9911 85.152C18.9245 84.5548 19.3242 84.0134 19.9035 83.9105C20.8825 83.734 22.1048 83.3603 23.5588 82.6248C23.5588 82.6248 24.2945 80.7596 22.7739 80.2213C22.7739 80.2213 20.141 81.9423 17.7774 81.5863C17.3372 80.5655 16.9548 79.1857 17.175 77.1145C17.3343 75.6053 16.8506 75.5759 16.3234 75.9231C16.2365 75.9819 16.1554 76.0437 16.0859 76.1084C15.579 76.5644 15.3965 77.2175 15.2199 78.0236C15.1938 78.1384 15.1648 78.2678 15.1301 78.4061C14.8491 79.5358 14.3017 81.398 14.0613 83.4603C13.8411 85.3226 14.5247 84.949 14.5247 84.949Z" fill="#371A45"/>
</g>
</g>
<path d="M16.4638 78.0295C16.3334 78.5591 16.2465 79.0945 16.1568 79.6358L16.0177 80.4478L15.8845 81.2656L15.6296 82.9131C15.5485 83.4633 15.479 84.0223 15.4268 84.5695L15.0358 84.0752C15.2704 84.1105 15.4703 84.1664 15.673 84.2252C15.8729 84.287 16.067 84.3547 16.261 84.4341C16.6463 84.593 17.0199 84.7842 17.3791 85.049C17.5558 85.1843 17.7324 85.3344 17.886 85.5315C18.0395 85.7256 18.1785 85.9728 18.2248 86.2728C18.2712 86.57 18.2046 86.8818 18.0829 87.1201C18.0163 87.2466 17.9323 87.379 17.8164 87.4849C17.7035 87.5908 17.5731 87.6732 17.437 87.7321C17.1676 87.8409 16.9069 87.8586 16.6723 87.8468C16.4377 87.8321 16.2176 87.7909 16.009 87.735C15.8005 87.6791 15.6006 87.6085 15.4066 87.5261L15.2617 87.4643L15.1285 87.4025C15.0966 87.3878 15.1575 87.4261 15.2704 87.4379C15.2907 87.6614 16.0467 86.7347 15.7455 86.9789V86.9524L15.7483 86.976L15.7599 87.0436L15.7831 87.1878C15.8468 87.5791 15.9105 87.9762 15.9482 88.3881C15.9685 88.5911 15.9801 88.8117 15.9772 89.0294C15.9772 89.2472 15.9569 89.4678 15.9163 89.6914C15.8439 90.1356 15.6557 90.5975 15.3399 90.9682C15.0242 91.3418 14.5926 91.5919 14.1669 91.7243C13.7353 91.8626 13.3008 91.9008 12.8808 91.9008C12.4579 91.8949 12.0466 91.8478 11.6411 91.7625C11.5398 91.7419 11.4384 91.7184 11.337 91.6919C11.2849 91.6772 11.2356 91.6654 11.1806 91.6478L11.001 91.5831C10.7635 91.483 10.5318 91.3183 10.3638 91.1094C10.1929 90.9005 10.0857 90.6622 10.0133 90.4328C9.94379 90.2033 9.90903 89.9768 9.89165 89.7591C9.854 89.3207 9.88006 88.9059 9.91193 88.4999C9.94668 88.0969 9.99592 87.7026 10.0365 87.3172C10.077 86.9318 10.1089 86.5612 10.0857 86.2169L10.0191 85.0343C9.97854 84.2458 9.94668 83.4545 9.9293 82.6631C9.91192 81.8717 9.90324 81.0774 9.91772 80.283C9.9322 79.4887 9.95827 78.6944 10.0249 77.8971C10.0886 77.0998 10.1842 76.3026 10.3493 75.5024C10.3898 75.3023 10.442 75.1023 10.4912 74.9022L10.5781 74.6021L10.6245 74.4521L10.6795 74.305C10.7577 74.1108 10.8243 73.9108 10.9112 73.7195C11.0068 73.5313 11.0995 73.34 11.198 73.1547C11.3138 72.9752 11.4268 72.7958 11.5455 72.6222L11.7454 72.3721C11.812 72.2898 11.8728 72.1986 11.9482 72.125C12.0988 71.972 12.2349 71.8043 12.4058 71.6719L12.652 71.466C12.7389 71.4042 12.8316 71.3454 12.9214 71.2865C13.2863 71.06 13.6832 70.8835 14.0973 70.7982C14.303 70.7541 14.5144 70.7305 14.7288 70.7335C14.9431 70.7364 15.1488 70.757 15.366 70.8276C15.4471 70.8541 15.4935 70.9453 15.4674 71.0277C15.4529 71.0718 15.421 71.1071 15.3834 71.1247L15.366 71.1336C15.0155 71.2895 14.6766 71.4425 14.3551 71.5984C14.274 71.6396 14.1929 71.6749 14.1147 71.7161C14.0365 71.7602 13.9583 71.7984 13.8801 71.8396C13.8019 71.8808 13.7295 71.9308 13.6542 71.975L13.5412 72.0397L13.4341 72.1132C13.3616 72.1603 13.2892 72.2103 13.2168 72.2574L13.0112 72.4192C12.8663 72.5163 12.7476 72.6516 12.6172 72.7663C12.4898 72.8899 12.3855 73.0341 12.2697 73.1694C12.1654 73.3165 12.0756 73.4695 11.9742 73.6195C11.2588 74.8787 11.056 76.435 10.9228 77.9707C10.8591 78.7415 10.833 79.5211 10.8185 80.2977C10.804 81.0774 10.8127 81.857 10.8301 82.6395C10.8475 83.4221 10.8794 84.2047 10.9199 84.9843L10.9865 86.1581C11.0126 86.5994 10.972 87.0142 10.9344 87.4114C10.8938 87.8085 10.8446 88.1969 10.8127 88.5764C10.7809 88.9559 10.7635 89.3295 10.7925 89.6767C10.8185 90.0238 10.9054 90.3386 11.0618 90.5269C11.14 90.621 11.2327 90.6917 11.3515 90.7417L11.4471 90.774C11.4847 90.7858 11.5282 90.7976 11.5716 90.8093C11.6556 90.8329 11.7454 90.8505 11.8323 90.8711C12.5361 91.0153 13.2834 91.0535 13.9091 90.8564C14.219 90.7593 14.4826 90.5946 14.6766 90.371C14.8649 90.1445 14.9924 89.8561 15.0474 89.5237C15.0764 89.3589 15.0937 89.1883 15.0937 89.0118C15.0995 88.8353 15.0879 88.6617 15.0706 88.4734C15.0329 88.0998 14.975 87.7203 14.9113 87.3349L14.8881 87.1878L14.8765 87.1084L14.8707 87.0583C14.8707 87.0436 14.8678 87.0436 14.8649 86.9966C14.5666 87.2407 15.3168 86.2993 15.3457 86.5259C15.4645 86.5376 15.5311 86.5788 15.505 86.567L15.6354 86.6259L15.757 86.6788C15.9221 86.7465 16.0872 86.8053 16.2523 86.8495C16.4174 86.8936 16.5796 86.923 16.7332 86.9318C16.8838 86.9407 17.017 86.923 17.1097 86.8848C17.1995 86.8436 17.2487 86.7995 17.2951 86.7053C17.3501 86.5935 17.3617 86.5023 17.3501 86.4082C17.3269 86.2228 17.1271 85.9698 16.8548 85.7757C16.5854 85.5756 16.2639 85.4079 15.9337 85.2726C15.7686 85.2049 15.5977 85.1431 15.4268 85.0902C15.2588 85.0372 15.0793 84.9931 14.9315 84.9754L14.5058 84.9225L14.5405 84.4812C14.5869 83.9075 14.6448 83.3456 14.7056 82.7778C14.7664 82.213 14.8475 81.6481 14.9518 81.0832L15.0358 80.6625L15.1343 80.2418C15.1662 80.1006 15.2009 79.9624 15.2444 79.8241C15.2849 79.6858 15.3226 79.5475 15.3718 79.4093C15.421 79.271 15.4703 79.1357 15.5253 79.0003C15.5861 78.865 15.647 78.7297 15.7107 78.6002C15.7802 78.4678 15.8584 78.3384 15.9366 78.2148C16.0177 78.0883 16.122 77.9707 16.2205 77.8589C16.2755 77.7941 16.3711 77.7883 16.4348 77.8471C16.4783 77.8853 16.4956 77.9442 16.4812 78.0001L16.4638 78.0295Z" fill="#371A45"/>
<g opacity="0.35">
<g opacity="0.35">
<path opacity="0.35" d="M11.3197 91.2184C12.1249 91.4567 15.6238 92.1716 15.5283 88.8325C15.5196 88.5295 15.4906 88.2 15.453 87.897C14.7926 89.9034 11.9106 90.0181 11.3747 89.518C10.6651 88.8561 10.6969 87.3468 10.6071 86.7202C10.4478 88.1618 10.1089 90.8595 11.3197 91.2184Z" fill="#371A45"/>
</g>
</g>
<g opacity="0.35">
<g opacity="0.35">
<path opacity="0.35" d="M32.0594 77.0734C31.3121 75.6025 30.7878 74.1815 30.4258 72.8812C30.7038 73.6078 31.0311 74.361 31.4222 75.1259C31.8798 76.0232 32.2506 76.997 32.4881 77.9972C32.3548 77.6824 32.21 77.3735 32.0594 77.0734Z" fill="#371A45"/>
</g>
</g>
<path d="M31.9427 77.7708C32.7266 77.7708 33.362 77.1254 33.362 76.3292C33.362 75.5331 32.7266 74.8876 31.9427 74.8876C31.1589 74.8876 30.5234 75.5331 30.5234 76.3292C30.5234 77.1254 31.1589 77.7708 31.9427 77.7708Z" fill="white"/>
<g opacity="0.35">
<g opacity="0.35">
<path opacity="0.35" d="M33.2938 75.8791C33.5401 76.6351 33.1345 77.4501 32.3901 77.7001C31.6457 77.9502 30.8434 77.5383 30.5972 76.7822C30.5306 76.5734 30.5103 76.3586 30.5364 76.1527C30.9042 76.5439 31.472 76.7087 32.0107 76.5292C32.5494 76.3498 32.9086 75.8732 32.9752 75.3377C33.1143 75.4878 33.2243 75.6702 33.2938 75.8791Z" fill="#371A45"/>
</g>
</g>
<path d="M31.9437 78.2266C31.657 78.2266 31.3702 78.1589 31.1038 78.0236C30.6577 77.7941 30.3275 77.4058 30.1711 76.9233C30.0147 76.4408 30.0523 75.9289 30.2783 75.4758C30.5013 75.0228 30.8865 74.6874 31.3616 74.5285C32.3406 74.202 33.3978 74.7433 33.7193 75.7347C34.0408 76.7291 33.5078 77.8029 32.5288 78.1295C32.3377 78.1971 32.1378 78.2266 31.9437 78.2266ZM31.9437 75.3434C31.8424 75.3434 31.741 75.3582 31.6396 75.3935C31.3934 75.4758 31.1936 75.6524 31.0748 75.8877C30.9589 76.1231 30.9387 76.3908 31.0198 76.6409C31.1009 76.8909 31.2747 77.0939 31.5064 77.2145C31.7381 77.3322 32.0017 77.3528 32.2479 77.2704C32.7577 77.0998 33.0357 76.5408 32.8677 76.023C32.7316 75.6053 32.3521 75.3434 31.9437 75.3434Z" fill="#371A45"/>
<path d="M31.6387 80.1978L24.6639 83.0073C23.8384 83.3398 22.8942 82.9279 22.5669 82.0865L21.0955 78.3149C20.8087 77.5795 21.0868 76.7528 21.7124 76.335C21.8022 76.2762 21.8978 76.2262 21.9992 76.182L28.9739 73.3725C29.7994 73.04 30.7436 73.4519 31.0709 74.2933L32.2382 77.2794L32.5452 78.0619C32.8754 78.9063 32.4642 79.8653 31.6387 80.1978Z" fill="white"/>
<g opacity="0.35">
<g opacity="0.35">
<path opacity="0.35" d="M31.6387 80.1979L24.6639 83.0075C23.8384 83.3399 22.8942 82.928 22.5669 82.0866L21.0955 78.315C20.8087 77.5796 21.0868 76.7529 21.7124 76.3351C22.2135 76.444 22.5321 76.5116 22.5321 76.5116C24.0528 79.4006 25.4923 80.5686 29.2143 79.1388C30.8218 78.521 31.7342 77.8679 32.2382 77.2795L32.5452 78.062C32.8754 78.9064 32.4642 79.8655 31.6387 80.1979Z" fill="#371A45"/>
</g>
</g>
<path d="M24.0733 83.4929C23.2855 83.4929 22.5411 83.0134 22.2311 82.2249L20.7568 78.4533C20.5628 77.9561 20.5714 77.4119 20.78 76.9176C20.9914 76.4234 21.3738 76.0439 21.8633 75.8468L28.838 73.0342C29.3275 72.8371 29.8663 72.846 30.35 73.0578C30.8366 73.2725 31.2102 73.6609 31.4043 74.1581L32.8786 77.9297C33.0727 78.4269 33.064 78.9711 32.8554 79.4654C32.6469 79.9596 32.2617 80.3391 31.7722 80.5363L24.7974 83.3488C24.5599 83.4459 24.3137 83.4929 24.0733 83.4929ZM29.5679 73.6285C29.4115 73.6285 29.258 73.6579 29.1103 73.7168L22.1355 76.5293C21.8256 76.6529 21.5823 76.8941 21.4491 77.2089C21.3158 77.5237 21.31 77.8679 21.4317 78.1827L22.906 81.9543C23.1609 82.6074 23.8908 82.9281 24.5338 82.6692L31.5086 79.8596C31.8185 79.736 32.0618 79.4948 32.195 79.18C32.3283 78.8652 32.3341 78.521 32.2124 78.2062L30.7381 74.4346C30.6165 74.1198 30.3789 73.8727 30.069 73.7374C29.9068 73.6638 29.7359 73.6285 29.5679 73.6285Z" fill="#371A45"/>
<path d="M31.9089 80.0565C31.8249 80.1124 31.738 80.1594 31.6396 80.1977L24.6648 83.0073C24.0595 83.2514 23.3904 83.0955 22.9472 82.6601C22.785 82.5042 22.6547 82.31 22.5678 82.0864L21.9132 80.4125L21.6959 79.8594L21.0935 78.3178C20.7662 77.4793 21.1746 76.5202 22.0001 76.1878L23.5062 75.5818C22.8632 75.9936 22.5765 76.8291 22.8661 77.5735L23.6655 79.6093L24.3433 81.3451C24.6706 82.1835 25.6149 82.5983 26.4404 82.2659L31.9089 80.0565Z" fill="white"/>
<g opacity="0.35">
<g opacity="0.35">
<path opacity="0.35" d="M31.9083 80.0566C31.8243 80.1125 31.7374 80.1595 31.639 80.1978L24.6642 83.0074C23.8387 83.3398 22.8945 82.9279 22.5672 82.0865L21.6953 79.8595C22.0255 80.1831 22.5295 80.539 23.0538 80.3861C23.3405 80.3037 23.5346 79.9918 23.662 79.6064L24.3398 81.3422C24.6671 82.1807 25.6114 82.5955 26.4369 82.263L31.9083 80.0566Z" fill="#371A45"/>
</g>
</g>
<path d="M24.0733 83.4928C23.8068 83.4928 23.5403 83.4369 23.2855 83.3251C22.7988 83.1104 22.4252 82.7191 22.2311 82.2219L20.7568 78.4503C20.5628 77.9531 20.5714 77.4088 20.78 76.9146C20.9885 76.4203 21.3738 76.0408 21.8633 75.8437L23.3694 75.2377L23.6968 75.8908C23.187 76.2173 22.9784 76.8675 23.2015 77.4353L24.6758 81.2069C24.7974 81.5217 25.0349 81.7688 25.3449 81.9042C25.6519 82.0395 25.9937 82.0454 26.3036 81.9218L31.7751 79.7153L32.1053 80.3655C32.001 80.4361 31.888 80.495 31.7693 80.5391L24.7974 83.3487C24.5657 83.4457 24.3195 83.4928 24.0733 83.4928ZM22.4773 76.3909L22.1355 76.5292C21.8256 76.6528 21.5823 76.8969 21.4491 77.2088C21.3158 77.5236 21.31 77.8678 21.4317 78.1826L22.906 81.9542C23.0277 82.269 23.2652 82.5161 23.5751 82.6514C23.8821 82.7867 24.2239 82.7926 24.5338 82.6691L24.922 82.5131C24.5049 82.2896 24.1834 81.9277 24.0096 81.4805L22.5353 77.7089C22.3644 77.2735 22.3528 76.8116 22.4773 76.3909Z" fill="#371A45"/>
<path d="M26.368 78.3796C26.423 78.5178 26.6605 79.724 26.6605 79.724C26.6605 79.724 26.31 79.8623 25.8756 80.0359C25.3368 80.2506 24.6793 79.8564 24.4099 79.1562C24.1406 78.4561 24.3607 77.7147 24.8994 77.4999C25.2644 77.3558 25.6844 77.1881 25.6844 77.1881C25.6844 77.1881 26.2811 78.1501 26.368 78.3796Z" fill="#22A7F0"/>
<g opacity="0.35">
<g opacity="0.35">
<path opacity="0.35" d="M26.368 78.3796C26.423 78.5178 26.6605 79.724 26.6605 79.724C26.6605 79.724 26.31 79.8623 25.8756 80.0359C25.3368 80.2506 24.6793 79.8564 24.4099 79.1562C24.1406 78.4561 24.3607 77.7147 24.8994 77.4999C25.2644 77.3558 25.6844 77.1881 25.6844 77.1881C25.6844 77.1881 26.2811 78.1501 26.368 78.3796Z" fill="#371A45"/>
</g>
</g>
<path d="M25.7191 80.1654C25.1687 80.1654 24.6097 79.7447 24.3548 79.0857C24.2071 78.7003 24.1839 78.2914 24.2911 77.9324C24.4041 77.5529 24.6445 77.2734 24.9689 77.144L25.5163 76.9263C25.7509 76.8322 26.0174 76.9234 26.1506 77.144C26.4722 77.6765 26.6633 78.0148 26.7155 78.1501C26.7299 78.1854 26.7647 78.2796 26.9675 79.274C27.0196 79.527 26.8835 79.78 26.6459 79.8741L26.1014 80.0889C25.9769 80.1418 25.8494 80.1654 25.7191 80.1654ZM25.7075 77.3352C25.6959 77.3352 25.6872 77.3382 25.6756 77.3411L25.1282 77.5588C24.9312 77.6383 24.7806 77.8148 24.7082 78.0619C24.63 78.3267 24.6474 78.6356 24.7603 78.9268C24.9863 79.5123 25.5163 79.8506 25.9421 79.6829L26.4866 79.4681C26.5272 79.4534 26.5504 79.4093 26.5417 79.3681C26.3592 78.4708 26.3157 78.3326 26.31 78.3149C26.2694 78.2119 26.0724 77.8618 25.7799 77.3794C25.7654 77.3499 25.7365 77.3352 25.7075 77.3352Z" fill="#371A45"/>
<path d="M26.8072 79.5775C27.3467 79.3637 27.5658 78.6222 27.2966 77.9214C27.0273 77.2206 26.3718 76.8258 25.8323 77.0396C25.2928 77.2534 25.0737 77.9948 25.343 78.6956C25.6122 79.3965 26.2678 79.7913 26.8072 79.5775Z" fill="#22A7F0"/>
<g opacity="0.35">
<g opacity="0.35">
<path opacity="0.35" d="M25.389 77.4382C25.4064 77.5618 25.4383 77.6883 25.4875 77.8118C25.7569 78.512 26.4115 78.9063 26.9531 78.6915C27.1443 78.615 27.292 78.4738 27.3963 78.2943C27.4803 78.868 27.2515 79.4005 26.8083 79.5741C26.2696 79.7889 25.6121 79.3946 25.3427 78.6944C25.1689 78.2414 25.2008 77.7736 25.389 77.4382Z" fill="#371A45"/>
</g>
</g>
<g opacity="0.6">
<g opacity="0.6">
<path opacity="0.6" d="M27.1519 78.362C26.8825 77.6618 26.2279 77.2676 25.6863 77.4824C25.4951 77.5589 25.3445 77.7001 25.2402 77.8854C25.2953 77.4941 25.5038 77.1705 25.8311 77.0411C26.3699 76.8263 27.0274 77.2205 27.2967 77.9207C27.4705 78.3738 27.4387 78.8416 27.2504 79.174C27.2851 78.921 27.2562 78.6386 27.1519 78.362Z" fill="white"/>
</g>
</g>
<path d="M26.5031 79.8536C25.9528 79.8536 25.3938 79.4329 25.1389 78.7739C24.8261 77.9619 25.1012 77.0911 25.7529 76.8322C26.4047 76.5733 27.1867 77.0263 27.4995 77.8383C27.6473 78.2237 27.6704 78.6327 27.5633 78.9916C27.4503 79.3711 27.2099 79.6506 26.8855 79.78C26.7609 79.8301 26.6306 79.8536 26.5031 79.8536ZM26.1411 77.2029C26.0629 77.2029 25.9847 77.2176 25.9094 77.247C25.4836 77.4176 25.3185 78.0296 25.5415 78.615C25.7674 79.2005 26.2975 79.5388 26.7233 79.3711C26.9202 79.2917 27.0708 79.1152 27.1433 78.868C27.2215 78.6032 27.2041 78.2943 27.0911 78.0031C26.9086 77.5176 26.5147 77.2029 26.1411 77.2029Z" fill="#371A45"/>
<path d="M29.4614 81.413C29.3137 81.413 29.1746 81.3218 29.1225 81.1717L28.242 78.7505C28.1493 78.4975 28.1898 78.218 28.3462 78.0032L28.9719 77.1353C28.9835 77.1177 28.9864 77.0941 28.9806 77.0765L27.7438 73.8786C27.6713 73.6903 27.7611 73.4755 27.9494 73.402C28.1348 73.3284 28.3462 73.4196 28.4186 73.6108L29.6554 76.8088C29.7539 77.0647 29.7192 77.3501 29.557 77.5707L28.9313 78.4386C28.9197 78.4563 28.9168 78.4769 28.9226 78.4975L29.8032 80.9187C29.8727 81.1099 29.7771 81.3218 29.5888 81.3924C29.5454 81.4041 29.5048 81.413 29.4614 81.413Z" fill="#371A45"/>
<path d="M15.8676 79.8831C15.8676 79.8831 15.3809 80.5833 15.575 81.4159C15.8009 82.3779 16.4613 82.6162 16.4613 82.6162C16.4613 82.6162 19.268 83.3046 22.9524 81.3776C22.9524 81.3776 23.6881 79.5124 22.1645 78.974C22.1674 78.977 18.1905 80.6804 15.8676 79.8831Z" fill="white"/>
<g opacity="0.35">
<g opacity="0.35">
<path opacity="0.35" d="M15.5788 81.4186C15.8019 82.3806 16.4652 82.6189 16.4652 82.6189C16.4652 82.6189 19.2719 83.3073 22.9562 81.3803C22.9562 81.3803 23.1966 80.7655 23.1155 80.1418C23.1039 80.1771 23.0981 80.1947 23.0981 80.1947C20.4044 81.6039 18.1799 81.6157 17.1777 81.5186C16.4825 81.4509 15.8946 80.9508 15.7237 80.2624C15.7208 80.2535 15.7179 80.2447 15.7179 80.233C15.715 80.2182 15.7092 80.2006 15.7092 80.1859C15.5904 80.4683 15.463 80.9184 15.5788 81.4186Z" fill="#371A45"/>
</g>
</g>
<path d="M17.7937 83.1956C16.9306 83.1956 16.4092 83.072 16.36 83.0602L16.3165 83.0455C15.9834 82.9249 15.3636 82.4718 15.1434 81.5216C14.9059 80.5007 15.4794 79.6564 15.5026 79.6211L15.6938 79.3416L16.0095 79.4505C18.1413 80.183 21.9531 78.5708 21.9936 78.5532L22.1529 78.4855L22.3151 78.5414C22.8249 78.7209 23.2015 79.0562 23.4042 79.5064C23.8039 80.3948 23.4187 81.4274 23.3724 81.5422L23.3115 81.7011L23.1638 81.7775C20.9364 82.9484 19.0189 83.1956 17.7937 83.1956ZM16.6004 82.1835C16.9074 82.2453 19.3955 82.6719 22.5903 81.0568C22.6714 80.7685 22.7554 80.2595 22.5874 79.8859C22.5034 79.7035 22.3673 79.5652 22.1674 79.4681C21.3941 79.777 18.289 80.9332 16.0964 80.4242C16.0095 80.6449 15.9313 80.9685 16.0124 81.3157C16.1543 81.9246 16.5106 82.1365 16.6004 82.1835Z" fill="#371A45"/>
<path d="M29.0751 90.9684C28.1338 90.9684 27.0794 90.7243 26.002 90.0152C25.8687 89.927 25.8282 89.7446 25.9151 89.6092C26.002 89.4739 26.1815 89.4327 26.3148 89.521C29.4372 91.5715 32.3134 89.318 32.3424 89.2945C32.4669 89.1944 32.6494 89.215 32.7479 89.3445C32.8464 89.4739 32.8261 89.6563 32.6986 89.7563C32.6813 89.774 31.1548 90.9684 29.0751 90.9684Z" fill="#371A45"/>
<path d="M21.5369 90.8918C20.5173 90.8918 19.3906 90.6447 18.2812 89.9151C18.148 89.8268 18.1075 89.6444 18.1944 89.5091C18.2812 89.3738 18.4608 89.3326 18.5941 89.4208C21.731 91.4831 25.0416 89.3002 25.0764 89.2767C25.2096 89.1855 25.3892 89.2237 25.479 89.359C25.5688 89.4944 25.5312 89.6768 25.3979 89.768C25.3747 89.7856 23.6948 90.8918 21.5369 90.8918Z" fill="#371A45"/>
<path d="M15.2077 82.8045C15.1758 82.8045 15.144 82.7986 15.1121 82.7868C15.0802 82.7751 11.9404 81.6659 10.5501 82.7427C10.4227 82.8398 10.2402 82.8162 10.1446 82.6868C10.049 82.5573 10.0722 82.372 10.1997 82.2749C11.8391 81.0039 15.1671 82.1807 15.3091 82.2308C15.4597 82.2837 15.5379 82.4544 15.4857 82.6073C15.4394 82.7309 15.3264 82.8045 15.2077 82.8045Z" fill="#371A45"/>
<path d="M32.5813 63.105C28.4509 63.105 27.7442 59.2245 27.7384 59.1834C27.7123 59.0245 27.8166 58.8715 27.9759 58.8421C28.1352 58.8127 28.2829 58.9215 28.3119 59.0804C28.3379 59.2304 28.9839 62.6814 32.871 62.5078C32.8767 62.5078 32.8796 62.5078 32.8854 62.5078C33.0389 62.5078 33.1664 62.6314 33.1751 62.7902C33.1809 62.952 33.0592 63.0903 32.8999 63.0962C32.7898 63.1021 32.6856 63.105 32.5813 63.105Z" fill="#371A45"/>
<g opacity="0.35">
<g opacity="0.35">
<path opacity="0.35" d="M11.0508 74.5875C11.9139 74.9346 12.8263 75.1553 13.7648 75.2377C14.2659 75.2788 14.7959 75.2994 15.3521 75.2847C15.5519 75.2788 15.7547 75.27 15.9603 75.2553C17.7301 75.1288 19.7258 74.6434 21.8054 73.5048C24.7541 71.8868 26.5296 69.6921 27.5984 67.721C27.274 67.365 26.9583 67.0326 26.6889 66.7413L26.3211 67.059L25.7215 67.2002L15.7721 69.5538L15.6852 70.7394L15.6475 71.2719L15.5635 72.4134L15.3636 70.9836C15.3144 70.9836 12.2354 70.9954 11.0508 74.5875Z" fill="#371A45"/>
</g>
</g>
<path d="M28.4288 57.5624C28.6287 59.9366 28.2463 62.3696 27.2355 64.6349C27.0298 65.0968 26.7981 65.5498 26.5403 65.9941C26.4158 66.2118 26.2825 66.4265 26.1435 66.6383C25.7235 67.2797 25.263 67.8769 24.7648 68.4241C24.3361 68.8978 23.8784 69.3361 23.4005 69.7421C22.8241 70.2305 22.213 70.6629 21.5757 71.0454C21.344 71.1837 21.1065 71.316 20.869 71.4396C16.5011 73.7167 11.0818 73.5961 6.69649 70.6423C0.237322 66.2941 -1.52664 57.4506 2.75147 50.8901C3.57697 49.628 4.56467 48.5395 5.67113 47.6392C5.79858 47.5333 5.93181 47.4303 6.06505 47.3303C6.42132 47.0597 6.78917 46.8096 7.16282 46.5772C8.03177 46.0417 8.95575 45.6063 9.90579 45.2768C10.8587 44.9473 11.8435 44.7208 12.8399 44.6031C13.1557 44.5649 13.4743 44.5384 13.7958 44.5237C14.2766 44.5002 14.7574 44.5031 15.2382 44.5325C17.6423 44.6678 20.0435 45.4327 22.1956 46.8831C25.9147 49.3897 28.0783 53.376 28.4288 57.5624Z" fill="white"/>
<path d="M14.4534 73.0578C11.7307 73.0578 9.01672 72.2576 6.67346 70.6807C0.20561 66.3266 -1.56994 57.4389 2.71686 50.8695C3.53078 49.6251 4.51558 48.5277 5.64521 47.6099C5.76686 47.5098 5.9001 47.4039 6.04203 47.301C6.3983 47.0332 6.76905 46.7773 7.14559 46.5449C8.00875 46.0124 8.93562 45.574 9.89725 45.2416C10.8502 44.9121 11.8408 44.6856 12.8401 44.5679C13.1616 44.5296 13.4831 44.5031 13.7988 44.4884C14.2883 44.4649 14.7778 44.4678 15.2471 44.4973C17.7294 44.6355 20.1421 45.4505 22.2247 46.8538C25.8279 49.2779 28.1046 53.179 28.4753 57.5595C28.681 59.9867 28.2668 62.4403 27.2791 64.6526C27.0705 65.1204 26.8359 65.5793 26.581 66.0177C26.4652 66.2177 26.3377 66.4295 26.1842 66.6649C25.77 67.3004 25.3037 67.9035 24.8026 68.4565C24.3826 68.9214 23.922 69.3656 23.4354 69.7775C22.8677 70.257 22.2508 70.6983 21.6049 71.0837C21.3731 71.222 21.1356 71.3544 20.8952 71.4809C18.8648 72.5341 16.6548 73.0578 14.4534 73.0578ZM14.4592 44.559C14.242 44.559 14.0219 44.5649 13.8017 44.5738C13.4889 44.5885 13.1674 44.6149 12.8488 44.6532C11.8553 44.7709 10.8705 44.9945 9.92332 45.324C8.96748 45.6535 8.0464 46.0918 7.18904 46.6184C6.81539 46.8479 6.44754 47.1009 6.09417 47.3686C5.95514 47.4716 5.8219 47.5775 5.70025 47.6775C4.57641 48.5895 3.5974 49.681 2.78928 50.9196C-1.47146 57.4507 0.292505 66.2824 6.72271 70.6101C10.9342 73.4461 16.3506 73.7521 20.8518 71.4044C21.0893 71.2808 21.3268 71.1484 21.5556 71.0102C22.1986 70.6248 22.8098 70.1894 23.3746 69.7098C23.8583 69.3009 24.316 68.8596 24.7331 68.3977C25.2342 67.8476 25.6947 67.2474 26.1089 66.6149C26.2595 66.3795 26.3899 66.1706 26.5028 65.9706C26.7548 65.5352 26.9894 65.0792 27.198 64.6144C28.1799 62.4167 28.5912 59.9778 28.3884 57.5654C28.0206 53.2113 25.7584 49.3338 22.1784 46.9244C20.1074 45.5299 17.7091 44.7209 15.2442 44.5826C14.9835 44.5649 14.7228 44.559 14.4592 44.559Z" fill="#371A45"/>
<g opacity="0.35">
<g opacity="0.35">
<path opacity="0.35" d="M6.69687 70.6453C11.0821 73.599 16.5015 73.7196 20.8694 71.4425C21.1069 71.319 21.3444 71.1866 21.5761 71.0483C22.2133 70.6659 22.8245 70.2334 23.4009 69.745C23.8788 69.342 24.3365 68.9036 24.7651 68.427C25.2633 67.8769 25.7239 67.2826 26.1439 66.6383C26.28 66.4236 26.4132 66.2088 26.5407 65.994C26.7985 65.5498 27.0302 65.0938 27.2358 64.6349C28.2467 62.3695 28.6291 59.9365 28.4292 57.5624C28.3191 56.2591 28.0353 54.9735 27.5805 53.7467C27.7196 56.0149 27.3285 58.3302 26.364 60.4896C26.1584 60.9515 25.9266 61.4046 25.6688 61.8488C25.5443 62.0665 25.4111 62.2783 25.272 62.4931C24.852 63.1345 24.3915 63.7317 23.8933 64.2818C23.4646 64.7555 23.007 65.1938 22.5291 65.5969C21.9527 66.0823 21.3386 66.5177 20.7043 66.9002C20.4726 67.0384 20.235 67.1708 19.9975 67.2944C15.6296 69.5715 10.2103 69.4508 5.82503 66.4971C3.26743 64.7761 1.44554 62.349 0.443359 59.6365C0.709836 63.9464 2.8851 68.0799 6.69687 70.6453Z" fill="#371A45"/>
</g>
</g>
<path d="M14.4547 73.3461C11.6769 73.3461 8.90788 72.5312 6.51828 70.9219C-0.0799162 66.4796 -1.89312 57.4124 2.48058 50.7107C3.31187 49.4397 4.31695 48.3218 5.46975 47.3833C5.5943 47.2803 5.73044 47.1744 5.87526 47.0656C6.23732 46.792 6.61386 46.5331 6.9991 46.2977C7.87963 45.7535 8.82678 45.3063 9.80869 44.968C10.779 44.6296 11.7899 44.4002 12.8123 44.2795C13.1396 44.2413 13.467 44.2148 13.7914 44.2001C14.2924 44.1766 14.7877 44.1795 15.2686 44.2089C17.8001 44.3501 20.2621 45.1827 22.3881 46.6125C26.0638 49.0867 28.3868 53.0672 28.7633 57.536C28.9718 60.0131 28.549 62.5167 27.541 64.7732C27.3266 65.2498 27.0891 65.7176 26.8284 66.1648C26.7126 66.3678 26.5793 66.5825 26.4258 66.8238C26.0029 67.4739 25.5279 68.0888 25.0152 68.6537C24.5866 69.1303 24.1173 69.5833 23.6191 70.0011C23.0398 70.4924 22.4113 70.9396 21.7509 71.3338C21.5134 71.475 21.273 71.6103 21.0268 71.7368C18.9558 72.8136 16.7023 73.3461 14.4547 73.3461ZM14.4604 44.8473C14.249 44.8473 14.0318 44.8532 13.8174 44.862C13.5104 44.8768 13.1976 44.9032 12.8848 44.9385C11.9115 45.0533 10.947 45.2739 10.0201 45.5946C9.08167 45.9182 8.18086 46.3448 7.34088 46.8626C6.97592 47.0891 6.61386 47.3362 6.26918 47.5981C6.13305 47.701 6.0027 47.8011 5.88685 47.8981C4.78618 48.7925 3.82455 49.8604 3.03381 51.0755C-1.14003 57.4713 0.589172 66.1265 6.88613 70.3659C11.0136 73.146 16.3171 73.4432 20.7284 71.1426C20.9602 71.0219 21.1948 70.8896 21.4178 70.7572C22.0463 70.3806 22.6459 69.954 23.1991 69.4862C23.6742 69.0861 24.1202 68.6537 24.5315 68.2006C25.021 67.6593 25.4758 67.0738 25.8784 66.4531C26.0261 66.2236 26.1536 66.0177 26.2636 65.8235C26.5098 65.3969 26.7386 64.9497 26.9443 64.4937C27.9059 62.3402 28.3085 59.9514 28.1087 57.589C27.7495 53.3231 25.5308 49.5251 22.0232 47.1627C19.9956 45.7976 17.6466 45.0033 15.2309 44.8679C14.976 44.8562 14.7182 44.8473 14.4604 44.8473Z" fill="#371A45"/>
<path d="M14.455 73.4431C11.6599 73.4431 8.87351 72.6223 6.46653 71.0012C-0.175109 66.5295 -1.99989 57.4035 2.40276 50.6547C3.23985 49.3749 4.25072 48.2482 5.41221 47.3067C5.53676 47.2038 5.67579 47.0949 5.82062 46.9861C6.18268 46.7125 6.56501 46.4506 6.95025 46.2123C7.83947 45.6651 8.78951 45.215 9.77722 44.8737C10.7533 44.5354 11.7729 44.3001 12.7983 44.1824C13.1285 44.1441 13.4586 44.1147 13.7831 44.1C14.287 44.0765 14.7881 44.0794 15.2718 44.1088C17.8208 44.253 20.2973 45.0885 22.4378 46.5301C26.1366 49.019 28.4769 53.0288 28.8564 57.5271C29.0678 60.0219 28.642 62.5402 27.6254 64.8114C27.411 65.2909 27.1706 65.7616 26.9099 66.2117C26.7912 66.4147 26.6579 66.6324 26.5044 66.8737C26.0786 67.5268 25.6007 68.1475 25.0822 68.7153C24.6507 69.1949 24.1785 69.6509 23.6775 70.0716C23.0924 70.5658 22.4609 71.016 21.7976 71.4131C21.5601 71.5543 21.3139 71.6926 21.0706 71.8191C18.9851 72.9076 16.7172 73.4431 14.455 73.4431ZM14.4608 44.9443C14.2494 44.9443 14.0351 44.9502 13.8207 44.9591C13.5166 44.9738 13.2038 45.0002 12.8938 45.0356C11.9264 45.1503 10.9677 45.368 10.0466 45.6887C9.11682 46.0093 8.2218 46.433 7.38472 46.9478C7.01976 47.1714 6.66349 47.4185 6.31881 47.6774C6.18268 47.7804 6.05523 47.8775 5.93937 47.9746C4.8445 48.863 3.89156 49.9251 3.10371 51.1283C-1.04116 57.48 0.676458 66.0735 6.92997 70.2834C11.0285 73.043 16.2943 73.3401 20.6767 71.0542C20.9084 70.9336 21.1401 70.8041 21.3632 70.6717C21.9859 70.2981 22.5826 69.8745 23.1329 69.4097C23.6021 69.0125 24.0482 68.583 24.4537 68.1328C24.9403 67.5945 25.3922 67.012 25.7919 66.3971C25.9396 66.1706 26.0642 65.9646 26.1742 65.7734C26.4204 65.3498 26.6463 64.9055 26.8491 64.4525C27.8049 62.3137 28.2047 59.9424 28.0077 57.5948C27.6514 53.3583 25.4472 49.5868 21.9656 47.242C19.9526 45.8858 17.618 45.0973 15.2197 44.962C14.9706 44.9532 14.7157 44.9443 14.4608 44.9443Z" fill="#371A45"/>
<path d="M28.2762 61.2103C24.5658 70.6717 12.9741 73.4371 7.03047 65.3556C2.98697 59.857 5.16803 51.5901 10.6192 47.9862C14.5845 45.362 19.5867 44.5618 25.2783 49.7014C25.2783 49.7014 27.4507 52.3727 27.9257 54.7998C28.3979 57.2299 28.4558 59.6717 28.4558 59.6717L28.2762 61.2103Z" fill="#371A45"/>
<path d="M7.03017 65.3557C12.9709 73.4402 24.5626 70.6718 28.273 61.2105L28.3077 60.8986C21.64 67.318 11.1345 67.7534 4.97656 59.6924C5.13008 61.6959 5.78468 63.6582 7.03017 65.3557Z" fill="#220F2D"/>
<path d="M16.0268 71.9722C15.4649 71.9722 14.903 71.9369 14.3498 71.8604C10.845 71.3927 7.80371 69.5304 5.55603 66.4737C3.48794 63.6612 2.71168 60.0573 3.36339 56.3269C4.07593 52.267 6.43656 48.5601 9.68063 46.4155C11.5025 45.2092 13.3563 44.4561 15.1897 44.1707L15.2274 44.1649L15.2651 44.1678C17.8053 44.309 20.2731 45.1445 22.4049 46.5802C26.0892 49.0603 28.4209 53.0525 28.7974 57.5331C29.006 60.0161 28.5831 62.5256 27.5722 64.7909C27.3579 65.2704 27.1175 65.7382 26.8597 66.1854C26.7438 66.3884 26.6106 66.6061 26.4542 66.8444C26.0284 67.4946 25.5534 68.1124 25.0378 68.6802L24.9944 68.7214C22.3614 70.8278 19.1724 71.9722 16.0268 71.9722ZM15.2622 44.9121C13.5445 45.1857 11.8009 45.9006 10.0803 47.0391C7.00138 49.075 4.7595 52.5965 4.08462 56.4593C3.46767 59.9867 4.19758 63.3846 6.14112 66.0295C8.26714 68.9214 11.1376 70.6807 14.4425 71.122C17.9038 71.5839 21.5736 70.5012 24.5164 68.1506C24.9972 67.6181 25.4433 67.0386 25.8401 66.4325C25.9878 66.203 26.1124 65.9971 26.2254 65.8059C26.4716 65.3793 26.7004 64.9351 26.9031 64.4791C27.8619 62.3314 28.2645 59.9514 28.0646 57.5919C27.7055 53.3379 25.4954 49.5486 21.9965 47.1951C19.9863 45.8447 17.6576 45.0533 15.2622 44.9121Z" fill="#371A45"/>
<path d="M7.46537 70.894C9.15773 69.7848 9.31186 66.9687 7.80961 64.604C6.30736 62.2393 3.71761 61.2214 2.02524 62.3305C0.332872 63.4397 0.178754 66.2558 1.681 68.6205C3.18325 70.9852 5.773 72.0031 7.46537 70.894Z" fill="white"/>
<path d="M5.92452 71.7662C4.18953 71.7662 2.26626 70.5335 1.12794 68.5183C0.264792 66.9885 0.00410828 65.3116 0.409616 63.9141C0.690575 62.9551 1.25829 62.2284 2.05772 61.8106C4.0476 60.7751 6.87747 62.0695 8.36047 64.6996C9.22362 66.2265 9.4843 67.9063 9.0759 69.3038C8.79494 70.2628 8.22433 70.9895 7.4278 71.4073C6.96436 71.6514 6.45458 71.7662 5.92452 71.7662ZM1.86076 68.0917C3.12362 70.3305 5.4495 71.4749 7.04546 70.6453C7.63345 70.3393 8.05634 69.7921 8.27068 69.0625C8.60667 67.9063 8.36916 66.4383 7.63055 65.1321C6.36769 62.8933 4.04181 61.7489 2.44585 62.5785C1.85786 62.8844 1.43497 63.4316 1.22063 64.1612C0.88464 65.3145 1.12215 66.7855 1.86076 68.0917Z" fill="#371A45"/>
<path d="M6.20891 70.8932C7.55673 69.9418 7.63173 67.6833 6.37644 65.8487C5.12115 64.0141 3.01091 63.298 1.66309 64.2494C0.315278 65.2008 0.240272 67.4593 1.49557 69.2939C2.75086 71.1286 4.8611 71.8446 6.20891 70.8932Z" fill="white"/>
<path d="M4.82295 71.3571C3.9598 71.3571 3.04161 70.9629 2.25377 70.2392C0.640425 68.7593 0.078507 66.3616 0.99959 64.8906C1.38193 64.2816 1.95833 63.908 2.67086 63.8109C3.63829 63.6785 4.70999 64.0757 5.61369 64.9053C7.22703 66.3852 7.78895 68.7829 6.86787 70.2539C6.48553 70.8628 5.90913 71.2365 5.1966 71.3336C5.07205 71.3512 4.9475 71.3571 4.82295 71.3571ZM3.04451 63.8757C2.92286 63.8757 2.8012 63.8845 2.68245 63.8992C1.99598 63.9933 1.43986 64.3523 1.0749 64.9377C0.176987 66.3734 0.730216 68.7211 2.31459 70.1715C3.19802 70.9805 4.24365 71.3718 5.18501 71.2424C5.87148 71.1482 6.4276 70.7893 6.79256 70.2038C7.69047 68.7682 7.13724 66.4205 5.55287 64.9701C4.7824 64.264 3.88449 63.8757 3.04451 63.8757Z" fill="#371A45"/>
<g opacity="0.35">
<g opacity="0.35">
<path opacity="0.35" d="M7.20793 67.6416C7.00228 66.9032 6.59967 66.2207 6.0783 65.6617C6.4056 67.3827 5.44686 68.7213 3.82773 68.7096C2.7821 68.7037 1.69881 68.1359 0.896484 67.268C0.91676 67.3769 0.942828 67.4887 0.974689 67.6005C1.49606 69.4774 3.31505 71.0102 5.03556 71.0219C6.75608 71.0308 7.7293 69.5186 7.20793 67.6416Z" fill="#371A45"/>
</g>
</g>
<path d="M4.97145 71.672C3.60141 71.672 2.05758 70.6364 1.08726 68.933C0.357343 67.6504 0.116935 66.2206 0.444238 65.1056C0.652785 64.3966 1.07278 63.8611 1.66076 63.5611C3.21617 62.7667 5.40881 63.8552 6.6543 66.0382C7.38422 67.3209 7.62463 68.7506 7.29732 69.8656C7.08878 70.5746 6.66879 71.1101 6.0808 71.4102C5.73612 71.5896 5.35957 71.672 4.97145 71.672ZM2.76722 64.0494C2.48916 64.0494 2.22558 64.1083 1.98806 64.2289C1.58545 64.4348 1.2958 64.8114 1.14519 65.3203C0.875814 66.2412 1.09015 67.4532 1.72159 68.5624C2.75274 70.3746 4.56014 71.3572 5.7506 70.7482C6.15321 70.5423 6.44286 70.1657 6.59348 69.6568C6.86575 68.7359 6.64851 67.5239 6.01708 66.4147C5.19158 64.9673 3.87078 64.0494 2.76722 64.0494Z" fill="#371A45"/>
<g opacity="0.5">
<g opacity="0.5">
<path opacity="0.5" d="M9.26363 52.4287C9.26363 52.4287 14.5063 49.425 19.1638 50.537C19.1696 50.537 19.1725 50.54 19.1783 50.54C20.1573 50.7753 21.0581 51.2755 21.7851 51.9815C22.7497 52.9141 23.2768 53.7026 23.7171 54.4116C25.0524 56.5739 25.2812 57.8419 25.2812 57.8419C25.7852 55.9267 25.6664 54.1968 24.5716 52.3846C24.4644 52.2051 24.3456 52.0257 24.2182 51.8462C24.1892 51.805 24.1603 51.7638 24.1284 51.7227C24.1284 51.7227 24.1284 51.7197 24.1255 51.7197C23.8416 51.3726 23.4535 50.9283 22.9727 50.4664C21.5273 49.072 19.2594 47.498 16.5859 47.801C11.5924 48.3659 8.94791 52.314 9.26363 52.4287Z" fill="white"/>
</g>
</g>
<g opacity="0.5">
<g opacity="0.5">
<path opacity="0.5" d="M9.28722 62.2559C10.2763 61.946 10.7894 60.7445 10.4334 59.5722C10.0773 58.4 8.98689 57.7009 7.99785 58.0108C7.00881 58.3207 6.49567 59.5223 6.85171 60.6945C7.20776 61.8668 8.29817 62.5659 9.28722 62.2559Z" fill="white"/>
</g>
</g>
<g opacity="0.5">
<g opacity="0.5">
<path opacity="0.5" d="M10.006 64.8793C10.4233 64.7868 10.6753 64.3104 10.569 63.8151C10.4626 63.3198 10.0381 62.9932 9.62081 63.0857C9.20351 63.1781 8.95145 63.6546 9.05781 64.1499C9.16417 64.6451 9.58867 64.9717 10.006 64.8793Z" fill="white"/>
</g>
</g>
<path d="M51.1249 21.235C51.0554 22.0087 50.9395 22.7766 50.7744 23.5327C50.5485 24.5947 50.2299 25.6361 49.8301 26.6423C48.0893 31.0082 44.7613 34.7268 40.2022 36.8185C35.6345 38.9161 30.6728 38.9985 26.2904 37.4305C25.3288 37.0862 24.3932 36.6626 23.4982 36.1654C22.7943 35.7741 22.1166 35.3387 21.4648 34.8562C26.0529 33.6853 31.3534 31.7937 36.8423 29.2724C42.3282 26.757 47.2291 23.9622 51.1249 21.235Z" fill="#FFB200"/>
<path d="M36.8413 29.2783C42.3272 26.757 47.2281 23.9622 51.1239 21.2379C51.0543 22.0116 50.9385 22.7795 50.7734 23.5356C47.7755 25.7479 42.9847 28.4781 37.4061 31.0405C32.0621 33.4941 27.083 35.2946 23.4943 36.1683C22.7904 35.7771 22.1126 35.3416 21.4609 34.8592C26.0519 33.6883 31.3524 31.7966 36.8413 29.2783Z" fill="#D66B09"/>
<path d="M50.3667 13.9009C47.3254 16.3986 41.3152 19.8966 34.1348 23.1974C26.9573 26.4954 20.3996 28.7695 16.5444 29.4373C16.1418 28.7724 15.7797 28.0723 15.4553 27.3427C15.4408 27.3073 15.4264 27.275 15.409 27.2397C15.267 26.919 15.1367 26.5954 15.0151 26.2688C14.7283 25.5069 14.4937 24.7361 14.3083 23.9594C14.2996 23.927 14.2938 23.8976 14.2851 23.8653C14.0158 22.712 13.8594 21.5499 13.8072 20.3938C13.7058 18.1932 13.9897 16.0102 14.6153 13.9362C15.0817 12.3946 15.7392 10.9148 16.5763 9.53499C18.4648 6.4224 21.257 3.82466 24.7878 2.20364C25.1383 2.04183 25.4916 1.89473 25.845 1.75646C30.601 -0.0852011 35.6931 0.176633 40.0639 2.14186C40.0928 2.15363 40.1189 2.16539 40.1479 2.1801C42.0451 3.0421 43.8032 4.22771 45.3413 5.69868C46.0915 6.41946 46.7924 7.20791 47.4238 8.06402C47.4934 8.15522 47.56 8.24936 47.6295 8.3435C47.6845 8.41999 47.7396 8.49942 47.7946 8.57592C48.2464 9.22903 48.6606 9.91745 49.0343 10.6382C49.1733 10.9059 49.3066 11.1795 49.434 11.4561C49.4688 11.5326 49.5035 11.6091 49.5383 11.6856C49.8627 12.4152 50.1379 13.1536 50.3667 13.9009Z" fill="#FFB200"/>
<path d="M49.4332 11.4559C49.468 11.5324 49.5028 11.6059 49.5375 11.6824C49.8619 12.412 50.1371 13.1504 50.3659 13.8977C47.3246 16.3954 41.3144 19.8963 34.134 23.1943C26.9565 26.4922 20.3988 28.7663 16.5436 29.4342C16.1439 28.7693 15.779 28.0691 15.4517 27.3395C15.4372 27.3042 15.4227 27.2718 15.4082 27.2365C19.0665 26.8246 25.7371 24.627 33.0565 21.2643C40.6627 17.7722 46.8814 13.9801 49.4332 11.4559Z" fill="#D66B09"/>
<path d="M14.0545 20.8878C13.9589 20.8878 13.8662 20.8849 13.7793 20.882L13.8285 19.9052C16.3977 20.0406 23.0944 17.8841 30.1126 14.6597C38.4863 10.8116 43.9056 7.10773 44.9281 5.43964L45.7449 5.95742C44.4415 8.08446 38.1764 12.0296 30.5065 15.5511C23.4854 18.7785 16.9596 20.8878 14.0545 20.8878Z" fill="#D66B09"/>
<path d="M14.6829 14.4214L14.541 13.4535C17.4201 13.0181 22.4079 11.2794 27.5549 8.91701C32.9482 6.43989 37.6173 3.70387 39.7404 1.77689L40.3835 2.50649C38.1908 4.49525 33.429 7.29305 27.9517 9.80842C22.7294 12.2061 17.646 13.9742 14.6829 14.4214Z" fill="#D66B09"/>
<path d="M14.3122 24.3535C14.3006 24.3535 14.2919 24.3535 14.2832 24.3535L14.289 23.3738C14.2977 23.3738 14.3064 23.3738 14.318 23.3738C17.2782 23.3738 24.1718 21.1203 31.497 17.7547C39.2046 14.2126 45.6811 10.2233 47.2423 8.05212L48.0215 8.62875C46.3444 10.9588 39.865 14.9863 31.8938 18.6461C24.4528 22.0647 17.3969 24.3535 14.3122 24.3535Z" fill="#D66B09"/>
<path d="M26.3083 37.6776L26.291 37.4334L26.2012 37.204L26.2359 37.1893L26.2736 37.1863C28.8109 37.001 33.6451 35.4153 38.5865 33.1441C43.554 30.8611 47.8003 28.3016 49.6627 26.4629L49.9987 26.813C48.0986 28.687 43.8002 31.2848 38.7864 33.5883C33.7176 35.9213 28.9384 37.4864 26.3083 37.6776Z" fill="#D66B09"/>
<path d="M32.5055 39.0191C28.4968 39.0191 24.5112 37.7511 21.1658 35.277L20.291 34.6297L21.3395 34.362C26.0608 33.1558 31.3498 31.2347 36.6301 28.8105C41.9104 26.3834 46.8228 23.6209 50.8345 20.8143L51.7266 20.1906L51.6281 21.285C50.9967 28.2722 46.6983 34.4032 40.41 37.2922C37.8872 38.4484 35.1905 39.0191 32.5055 39.0191ZM22.669 35.074C27.8335 38.4278 34.3708 38.9368 39.99 36.3537C45.6121 33.7707 49.5542 28.4516 50.484 22.2971C46.6056 24.9154 41.9857 27.4808 37.0501 29.7461C32.1145 32.0143 27.1673 33.8442 22.669 35.074Z" fill="#371A45"/>
<path d="M50.6211 9.20538C50.6385 9.24363 50.653 9.28482 50.6616 9.32895L50.6211 9.20538Z" fill="#D66B09"/>
<path d="M60.297 9.69666C61.4266 12.2326 57.7046 16.6338 51.1238 21.2379C47.2281 23.9622 42.3301 26.76 36.8413 29.2783C31.3524 31.7996 26.0519 33.6883 21.4638 34.8621C13.7157 36.8421 8.00385 36.7744 6.87422 34.2384C5.84886 31.9349 8.82356 28.0956 14.3037 23.9622C14.4891 24.7359 14.7237 25.5097 15.0104 26.2716C13.4956 27.5308 12.7483 28.5281 13.009 29.1106C13.2726 29.7049 14.547 29.7873 16.5427 29.4401C20.3979 28.7693 26.9556 26.4952 34.133 23.2002C41.3105 19.9023 47.3207 16.4043 50.365 13.9037C51.9377 12.6092 52.7169 11.5854 52.4533 10.9911C52.1955 10.4086 50.9645 10.3174 49.0326 10.644C48.6589 9.92319 48.2447 9.23477 47.7929 8.58165C54.4664 7.12539 59.2716 7.3931 60.297 9.69666Z" fill="#FFCC4D"/>
<path d="M13.8902 31.4672C12.4507 31.4672 11.3529 31.1642 10.9937 30.3522C10.4753 29.1901 11.657 27.4426 14.4985 25.1508L14.9474 25.7275C11.3819 28.5988 11.5238 29.7609 11.6512 30.0492C12.0973 31.0494 15.5904 31.123 22.3885 29.0342C26.1279 27.8839 30.3567 26.2423 34.6175 24.2859C38.8782 22.3295 42.884 20.1877 46.2034 18.096C52.2368 14.2891 54.4903 11.5766 54.0442 10.5764C53.9167 10.2881 53.1492 9.41137 48.6741 10.2351L48.5467 9.51139C52.1151 8.85534 54.189 9.11129 54.7046 10.2734C55.7097 12.5298 50.0499 16.5338 46.5857 18.7197C43.2403 20.8291 39.2055 22.9855 34.9158 24.9567C30.6261 26.9278 26.3683 28.5812 22.597 29.7403C20.1003 30.5052 16.4536 31.4672 13.8902 31.4672Z" fill="#FFEC90"/>
<path d="M12.8484 34.0295C10.815 34.0295 9.14956 33.6088 8.60502 32.3909C7.59705 30.1285 11.1279 26.7717 14.2677 24.3535L14.705 24.9389C10.6847 28.0368 8.65137 30.7081 9.26542 32.0879C9.63038 32.9057 10.9975 33.3352 13.1264 33.2999C15.3365 33.2617 18.3314 32.7321 21.7898 31.7672C26.0506 30.5786 30.8413 28.784 35.6437 26.5776C40.4461 24.3711 44.9385 21.9028 48.6287 19.4374C51.6236 17.4369 53.9959 15.5041 55.4818 13.8418C56.9126 12.2444 57.5006 10.9146 57.1356 10.0967C56.5216 8.71696 53.2022 8.50514 48.2579 9.526L48.1131 8.80522C51.9741 8.00795 56.7881 7.53135 57.7931 9.79372C59.1574 12.8563 52.1131 17.9871 49.0226 20.0494C45.3006 22.5324 40.7763 25.0213 35.9392 27.2425C31.102 29.4636 26.2736 31.2729 21.9781 32.4703C19.8318 33.0705 15.9186 34.0295 12.8484 34.0295Z" fill="#FFEC90"/>
<path d="M12.329 36.7655C9.15739 36.7655 7.10089 35.9889 6.41442 34.4473C4.91114 31.0758 10.5245 26.1686 14.0061 23.5444L14.6202 23.0796L14.7997 23.8356C14.9822 24.5947 15.211 25.3507 15.4862 26.0804L15.6166 26.4275L15.3327 26.6629C13.3399 28.3192 13.4703 28.887 13.4703 28.8929C13.4732 28.8987 13.8178 29.3842 16.4565 28.9282C20.3871 28.2456 27.0809 25.8685 33.9223 22.7265C40.7639 19.5845 46.9421 16.0483 50.0442 13.5006C52.1239 11.7913 51.9935 11.2058 51.9906 11.1999C51.9877 11.1941 51.6546 10.7204 49.1144 11.147L48.7524 11.2088L48.5815 10.8793C48.2223 10.1879 47.8168 9.51126 47.3736 8.87286L46.9334 8.2374L47.6807 8.07559C51.9182 7.15476 59.2521 6.11331 60.7525 9.48479C61.969 12.2179 58.5628 16.6543 51.4055 21.6615C47.3447 24.5005 42.3801 27.2983 37.0448 29.749C31.7094 32.1996 26.3625 34.1413 21.5833 35.3622C17.9106 36.2978 14.7853 36.7655 12.329 36.7655ZM14.009 24.83C9.05891 28.6781 6.5129 32.1702 7.3384 34.0207C8.30293 36.1889 13.6701 36.3184 21.3429 34.359C26.0642 33.1528 31.3532 31.2317 36.6335 28.8075C41.9138 26.3804 46.8262 23.6179 50.8378 20.8113C57.3549 16.2542 60.8017 12.0737 59.8372 9.90843C59.0117 8.05794 54.751 7.69314 48.6365 8.92582C48.874 9.29944 49.0999 9.68484 49.3114 10.0761C51.4171 9.76427 52.567 9.98786 52.9175 10.7763C53.2941 11.6206 52.5844 12.7415 50.6843 14.3008C47.4721 16.9397 41.3634 20.4406 34.3423 23.665C27.3213 26.8894 20.6999 29.2371 16.6274 29.9431C14.2205 30.3609 12.9228 30.1608 12.5463 29.3194C12.1958 28.531 12.7896 27.5072 14.4116 26.1068C14.2639 25.6861 14.1278 25.2595 14.009 24.83Z" fill="#371A45"/>
<g opacity="0.41">
<g opacity="0.41">
<g opacity="0.41">
<path opacity="0.41" d="M50.3656 13.9006C50.0122 14.1919 49.6183 14.4949 49.1867 14.8126C49.0129 14.3125 48.816 13.8153 48.5958 13.324C48.5611 13.2475 48.5263 13.171 48.4916 13.0975C48.3641 12.8209 48.2309 12.5473 48.0919 12.2796C47.7182 11.5588 47.3011 10.8704 46.8522 10.2173C46.7971 10.1379 46.7421 10.0614 46.6871 9.98489C46.0006 9.02287 45.233 8.13734 44.3988 7.34007C42.8405 5.8485 41.0534 4.64818 39.1243 3.78325C34.4262 1.67387 28.8969 1.52677 23.8454 3.84503C20.4739 5.3925 17.7744 7.83138 15.8945 10.7616C17.7599 7.10472 20.8041 4.03626 24.7896 2.20636C29.8353 -0.114844 35.3676 0.0293119 40.0628 2.14164C41.9919 3.00657 43.7819 4.20395 45.3373 5.69846C46.1715 6.49573 46.9391 7.37832 47.6255 8.34328C47.6835 8.41977 47.7356 8.4992 47.7906 8.57864C48.2425 9.23175 48.6567 9.92017 49.0303 10.6409C49.1694 10.9087 49.3026 11.1823 49.43 11.4588C49.4648 11.5353 49.4995 11.6088 49.5343 11.6883C49.8616 12.4149 50.1368 13.1534 50.3656 13.9006Z" fill="white"/>
</g>
</g>
</g>
<path d="M16.289 30.0021L16.1094 29.7049C15.6952 29.0195 15.3187 28.2957 14.9885 27.5544C14.8263 27.1896 14.6757 26.8189 14.5366 26.4511C14.247 25.6803 14.0037 24.8831 13.8125 24.0799C11.6488 14.9922 16.1789 5.59266 24.5787 1.73576C32.9786 -2.12409 42.9164 0.629583 48.2083 8.28161C48.6746 8.95532 49.1033 9.67021 49.4827 10.3998C49.6623 10.747 49.8361 11.1088 50.0012 11.4736C50.3314 12.215 50.6182 12.9799 50.8528 13.7478L50.9541 14.0802L50.6877 14.3009C47.4755 16.9398 41.3668 20.4407 34.3457 23.6651C27.3246 26.8895 20.7032 29.2372 16.6308 29.9432L16.289 30.0021ZM32.489 1.02969C29.9662 1.02969 27.4144 1.56218 24.9987 2.6713C17.0392 6.32815 12.7495 15.2305 14.8002 23.8387C14.9827 24.5977 15.2115 25.3538 15.4867 26.0834C15.617 26.4335 15.7618 26.7865 15.9154 27.1307C16.1789 27.725 16.4773 28.3075 16.7988 28.8665C20.7699 28.1104 27.2783 25.7804 33.9257 22.7266C40.5731 19.6729 46.5949 16.2484 49.7753 13.7183C49.5754 13.1035 49.3408 12.4915 49.0743 11.8973C48.9208 11.5531 48.7557 11.2089 48.5848 10.8794C48.2257 10.1851 47.8201 9.51135 47.377 8.87C43.8896 3.82749 38.2675 1.02969 32.489 1.02969Z" fill="#371A45"/>
<g opacity="0.25">
<g opacity="0.25">
<path opacity="0.25" d="M36.5063 29.4313C31.1391 31.8761 25.9602 33.7119 21.4677 34.8592C13.7196 36.8392 8.00776 36.7715 6.87813 34.2355C5.85277 31.932 8.82746 28.0927 14.3076 23.9593C14.493 24.736 14.7276 25.5068 15.0144 26.2687C13.4995 27.5279 12.7522 28.5252 13.0129 29.1077C13.2765 29.702 14.5509 29.7844 16.5466 29.4372C19.1042 28.993 22.8522 27.8427 27.1796 26.154C27.0753 26.7277 27.1217 27.2484 27.3273 27.7103C28.1702 29.6078 31.588 30.1256 36.5063 29.4313Z" fill="#371A45"/>
</g>
</g>
<g opacity="0.3">
<g opacity="0.3">
<path opacity="0.3" d="M17.4375 8.23739C17.507 8.1403 17.5794 8.04322 17.6547 7.94614C17.5794 8.04028 17.507 8.13736 17.4375 8.23739Z" fill="#293856"/>
</g>
</g>
<g opacity="0.3">
<g opacity="0.3">
<path opacity="0.3" d="M17.9082 7.61381C18.0733 7.40493 18.2442 7.199 18.418 6.996C18.2442 7.199 18.0733 7.40493 17.9082 7.61381Z" fill="#293856"/>
</g>
</g>
<g opacity="0.3">
<g opacity="0.3">
<path opacity="0.3" d="M19.5202 5.82217C19.3377 6.00163 19.1582 6.18403 18.9844 6.36937C19.1582 6.18403 19.3377 6.00163 19.5202 5.82217Z" fill="#293856"/>
</g>
</g>
<g opacity="0.3">
<g opacity="0.3">
<path opacity="0.3" d="M19.8105 5.5426C20.0075 5.35726 20.2074 5.1778 20.413 5.00128C20.2103 5.1778 20.0075 5.3602 19.8105 5.5426Z" fill="#293856"/>
</g>
</g>
<g opacity="0.25">
<g opacity="0.25">
<path opacity="0.25" d="M51.1249 21.235C51.0554 22.0087 50.9395 22.7766 50.7744 23.5327C50.5485 24.5947 50.2299 25.6361 49.8301 26.6423C48.0893 31.0082 44.7613 34.7268 40.2022 36.8185C35.6345 38.9161 30.6728 38.9985 26.2904 37.4305C25.3288 37.0862 24.3932 36.6626 23.4982 36.1654C22.7943 35.7741 22.1166 35.3387 21.4648 34.8562C26.0529 33.6853 31.3534 31.7937 36.8423 29.2724C42.3282 26.757 47.2291 23.9622 51.1249 21.235Z" fill="#371A45"/>
</g>
</g>
<g opacity="0.25">
<g opacity="0.25">
<path opacity="0.25" d="M50.3656 13.9008C47.3214 16.3985 41.3141 19.8965 34.1337 23.1944C26.9563 26.4924 20.4015 28.7665 16.5434 29.4372C16.1408 28.7724 15.7787 28.0722 15.4543 27.3426C15.4398 27.3073 15.4253 27.2749 15.408 27.2396C15.266 26.9189 15.1328 26.5924 15.0111 26.2688C14.7244 25.5068 14.4898 24.736 14.3044 23.9593C14.2957 23.927 14.2899 23.8975 14.2812 23.8652C14.0119 22.7119 13.8554 21.5499 13.8033 20.3937C13.7019 18.1931 13.9858 16.0102 14.6114 13.939C15.0778 12.3974 15.7353 10.9147 16.5724 9.53786C17.6122 7.81976 18.9301 6.26053 20.4913 4.93665C20.0394 5.51621 19.6224 6.11931 19.2429 6.74595C18.4087 8.12278 17.7483 9.60553 17.282 11.1471C16.6563 13.2182 16.3725 15.4012 16.4739 17.6018C16.526 18.758 16.6853 19.92 16.9518 21.0733C16.9576 21.1056 16.9663 21.1351 16.975 21.1674C16.9779 21.1821 16.9837 21.1998 16.9865 21.2204C17.812 24.4653 21.1633 26.3276 24.3147 25.3303C27.8571 24.2094 32.2018 22.5178 36.8014 20.4054C42.1367 17.9548 46.8261 15.3924 50.131 13.2124C50.2179 13.4389 50.2932 13.6684 50.3656 13.9008Z" fill="#371A45"/>
</g>
</g>
</g>
<defs>
<clipPath id="clip0_1343_18073">
<rect width="61" height="100" fill="white"/>
</clipPath>
</defs>
</svg>
