<svg width="20" height="19" viewBox="0 0 20 19" fill="none" xmlns="http://www.w3.org/2000/svg">
<path d="M15.0972 18.25C14.9506 18.2506 14.806 18.216 14.6755 18.1491L10.0005 15.7016L5.32551 18.1491C5.17371 18.229 5.00255 18.2646 4.8315 18.252C4.66045 18.2394 4.49637 18.179 4.35791 18.0778C4.21945 17.9766 4.11216 17.8386 4.04824 17.6794C3.98433 17.5202 3.96635 17.3463 3.99635 17.1775L4.91301 12.0166L1.13635 8.34996C1.01852 8.23238 0.93493 8.08493 0.894557 7.92343C0.854183 7.76194 0.858548 7.5925 0.907181 7.4333C0.960311 7.27038 1.05804 7.12562 1.18929 7.01544C1.32053 6.90526 1.48003 6.83408 1.64968 6.80996L6.87468 6.04913L9.17552 1.34663C9.25058 1.19165 9.36777 1.06094 9.51368 0.969489C9.65959 0.878034 9.82831 0.829529 10.0005 0.829529C10.1727 0.829529 10.3414 0.878034 10.4873 0.969489C10.6333 1.06094 10.7505 1.19165 10.8255 1.34663L13.1538 6.03996L18.3788 6.8008C18.5485 6.82491 18.708 6.8961 18.8392 7.00628C18.9705 7.11645 19.0682 7.26121 19.1213 7.42413C19.17 7.58333 19.1743 7.75277 19.134 7.91427C19.0936 8.07576 19.01 8.22321 18.8922 8.3408L15.1155 12.0075L16.0322 17.1683C16.0649 17.3401 16.0478 17.5178 15.9828 17.6802C15.9178 17.8426 15.8077 17.9831 15.6655 18.085C15.4995 18.2013 15.2997 18.2593 15.0972 18.25Z" fill="url(#paint0_linear_1447_13871)"/>
<defs>
<linearGradient id="paint0_linear_1447_13871" x1="-2.26393" y1="-0.672621" x2="9.1014" y2="18.7876" gradientUnits="userSpaceOnUse">
<stop stop-color="#FFCC3E"/>
<stop offset="1" stop-color="#F79C41"/>
</linearGradient>
</defs>
</svg>
