<svg width="27" height="20" viewBox="0 0 27 20" fill="none" xmlns="http://www.w3.org/2000/svg">
<path d="M26.4493 3.46644C26.2988 2.89542 26.0038 2.37469 25.5939 1.95635C25.1839 1.53801 24.6733 1.23674 24.1132 1.0827C22.0514 0.517578 13.7866 0.517578 13.7866 0.517578C13.7866 0.517578 5.52172 0.517578 3.45994 1.0797C2.89957 1.23324 2.38871 1.53434 1.97866 1.95275C1.56861 2.37117 1.2738 2.89217 1.12384 3.46344C0.572266 5.56762 0.572266 9.95635 0.572266 9.95635C0.572266 9.95635 0.572266 14.3451 1.12384 16.4463C1.42765 17.6066 2.32434 18.5204 3.45994 18.83C5.52172 19.3951 13.7866 19.3951 13.7866 19.3951C13.7866 19.3951 22.0514 19.3951 24.1132 18.83C25.2517 18.5204 26.1454 17.6066 26.4493 16.4463C27.0008 14.3451 27.0008 9.95635 27.0008 9.95635C27.0008 9.95635 27.0008 5.56762 26.4493 3.46644ZM11.1614 13.9844V5.92834L18.0045 9.92629L11.1614 13.9844Z" fill="white"/>
</svg>
